<?xml version="1.0" encoding="utf-8"?>
<!-- Generator: Adobe Illustrator 25.0.1, SVG Export Plug-In . SVG Version: 6.00 Build 0)  -->
<svg version="1.1" id="レイヤー_1" xmlns="http://www.w3.org/2000/svg" xmlns:xlink="http://www.w3.org/1999/xlink" x="0px"
	 y="0px" viewBox="0 0 128 111.9" style="enable-background:new 0 0 128 111.9;" xml:space="preserve">
<style type="text/css">
	.st0{fill:#E9E9E9;}
	.st1{fill:#31344B;}
</style>
<g id="Lock">
	<rect x="-128" y="-238" class="st0" width="849.9" height="682.5"/>
</g>
<g id="_1">
	<path class="st1" d="M95.2,0C75.7,0.4,66.1,14.2,64,26.7C61.9,14.2,52.3,0.4,32.8,0C14.9-0.3,0,13.5,0,38.7
		c0,32.4,36.7,47.4,61.7,71.6c0.9,0.8,0.7,0.8,0.7,0.8c0.4,0.5,1,0.8,1.6,0.8l0,0c0.6,0,1.2-0.3,1.6-0.8c0,0-0.2,0,0.7-0.8
		c25-24.2,61.7-39.2,61.7-71.6C128,13.5,113.1-0.3,95.2,0z"/>
</g>
</svg>
