<svg xmlns="http://www.w3.org/2000/svg" viewBox="0 0 128 111.91"><defs><style>.cls-1{fill:#e9e9e9;}.cls-2{fill:#4b4b4b;}</style></defs><g id="Lock"><rect class="cls-1" x="-128" y="-238.02" width="849.91" height="682.5"/></g><g id="_1" data-name="1"><path class="cls-2" d="M95.16,0C75.66.38,66.12,14.18,64,26.73,61.88,14.18,52.34.38,32.84,0,14.87-.34,0,13.49,0,38.73c0,32.39,36.65,47.36,61.7,71.56.88.84.67.82.67.82a2.08,2.08,0,0,0,1.63.8h0a2.08,2.08,0,0,0,1.63-.8s-.21,0,.67-.82c25-24.2,61.7-39.17,61.7-71.56C128,13.49,113.13-.34,95.16,0Z"/></g></svg>