<?xml version="1.0" encoding="utf-8"?>
<!-- Generator: Adobe Illustrator 24.3.0, SVG Export Plug-In . SVG Version: 6.00 Build 0)  -->
<svg version="1.1" id="レイヤー_1" xmlns="http://www.w3.org/2000/svg" xmlns:xlink="http://www.w3.org/1999/xlink" x="0px"
	 y="0px" viewBox="0 0 1079.6 799.1" style="enable-background:new 0 0 1079.6 799.1;" xml:space="preserve">
<style type="text/css">
	.st0{enable-background:new    ;}
	.st1{fill:#72706D;}
	.st2{fill:#3A3A3A;}
	.st3{fill:#383838;}
	.st4{fill:#323232;}
	.st5{fill:#212321;}
	.st6{fill:#A3A4A4;}
	.st7{fill:#8A8C8D;}
	.st8{fill:#8D8E8F;}
	.st9{fill:#626363;}
	.st10{fill:#C4C4C4;}
	.st11{fill:#5E7C84;}
	.st12{fill:#7E9196;}
	.st13{fill:#BCB0B0;}
	.st14{fill:#48C0B7;}
	.st15{fill:#00A79D;}
	.st16{fill:#FBFCFC;}
	.st17{fill:#4D4C4A;}
	.st18{fill:#BABABA;}
	.st19{fill:#FFC849;}
	.st20{fill:#D1992A;}
	.st21{fill:#8DC63F;}
	.st22{fill:#5DACF7;}
	.st23{fill:#263C3F;}
	.st24{fill:#FFFFFF;stroke:#FFFFFF;stroke-width:3;stroke-linecap:round;stroke-miterlimit:10;}
	.st25{fill:#88C9FF;}
	.st26{fill:#C2DBEF;}
	.st27{fill:#FFFFFF;}
	.st28{fill:none;stroke:#5C6492;stroke-width:3;stroke-linecap:round;stroke-miterlimit:10;}
	.st29{fill:#FFD7A4;}
	.st30{opacity:0.5;}
	.st31{fill:#E6F0F4;}
	.st32{fill:#EF6970;}
	.st33{fill:#FFF5E6;}
	.st34{fill:#F2E2CC;}
	.st35{fill:#191F34;}
	.st36{fill:#64C8EC;}
	.st37{fill:#3497D0;}
	.st38{fill:#FED94F;}
	.st39{fill:#0792B2;}
	.st40{opacity:0.3;fill:#0F3142;enable-background:new    ;}
	.st41{fill:#EE7060;}
	.st42{fill:#DD4B40;}
	.st43{fill:#F0B89F;}
	.st44{opacity:0.3;fill:#94DADD;enable-background:new    ;}
	.st45{fill:#DB5663;}
	.st46{fill:#F4D4B8;}
	.st47{fill:#0880A5;}
	.st48{fill:#0E547A;}
	.st49{fill:#134454;}
	.st50{fill:#E6354B;}
	.st51{fill:#F7818C;}
	.st52{fill:#0A6776;}
	.st53{opacity:0.3;fill:#134454;enable-background:new    ;}
	.st54{fill:#FDF9D4;}
	.st55{fill:#F2F4FC;}
	.st56{fill:#DFE3F4;}
	.st57{fill:#BE735A;}
	.st58{fill:#059DBF;}
	.st59{fill:#0086AA;}
</style>
<g id="レイヤー_2_1_">
</g>
<g id="Layer_1">
	<g>
		<g>
			<g>
				<g>
					<g>
						<g class="st0">
							<g>
								<path class="st1" d="M371.1,344.9c4.8-2.7,4.7-7.2,0-9.9l-134.2-78.5c-4.7-2.7-12.4-2.7-17.1,0L25,370
									c-4.8,2.7-4.7,7.2,0,9.9l134.2,78.5c4.7,2.7,12.4,2.7,17.1,0L371.1,344.9z"/>
							</g>
							<path class="st2" d="M371.3,348.5L371.3,348.5l0.1-0.1c0.2-0.1,0.4-0.3,0.6-0.4c0.3-0.2,0.7-0.4,0.9-0.6
								c0-0.1,0.1-0.1,0.1-0.1c0.3-0.3,0.6-0.5,0.8-0.8c0-0.1,0.1-0.1,0.1-0.2s0.1-0.1,0.1-0.2c0-0.1,0.1-0.2,0.2-0.3
								c0.1-0.2,0.2-0.5,0.3-0.7V345v-0.1c0-0.1,0.1-0.3,0.1-0.4c0.1-0.2,0.1-0.5,0.1-0.7v-0.1v-3.6c0,0.4-0.1,0.8-0.2,1.2v0.1
								c-0.2,0.4-0.4,0.7-0.6,1.1c0,0.1-0.1,0.1-0.1,0.2c-0.3,0.4-0.6,0.8-1,1.1c-0.3,0.2-0.6,0.4-0.9,0.6c-0.2,0.1-0.4,0.3-0.7,0.5
								L176.4,458.5c-0.5,0.3-1.1,0.6-1.7,0.8c-0.2,0.1-0.3,0.1-0.5,0.2c-0.3,0.1-0.7,0.2-1.1,0.3c-0.4,0.1-0.8,0.2-1.2,0.3
								c-0.5,0.1-1,0.2-1.5,0.3c-0.2,0.1-0.3,0.1-0.4,0.1c-0.6,0.1-1.3,0.1-2,0.1c-0.1,0-0.2,0-0.3,0c-0.7,0-1.3,0-2-0.1
								c-0.1,0-0.2,0-0.3,0c-0.6,0-1.3-0.2-1.9-0.3c-0.1,0-0.2-0.1-0.3-0.1c-0.6-0.1-1.2-0.3-1.7-0.5c-0.1,0-0.2-0.1-0.3-0.1
								c-0.6-0.3-1.2-0.6-1.8-0.9L25.2,380.1c-2.4-1.4-3.6-3.2-3.6-5v3.6c0,1.8,1.2,3.6,3.6,5l134.2,78.5c0.5,0.3,1.1,0.6,1.7,0.8
								h0.1c0.1,0,0.2,0.1,0.3,0.1c0.4,0.2,0.7,0.3,1.1,0.4c0.2,0.1,0.4,0.1,0.6,0.2c0.1,0,0.2,0.1,0.3,0.1s0.2,0.1,0.3,0.1
								c0.4,0.1,0.8,0.1,1.2,0.2c0.1,0,0.3,0,0.4,0s0.2,0,0.3,0s0.3,0,0.4,0c0.4,0.1,0.8,0.1,1.2,0.1c0.1,0,0.3,0,0.4,0s0.2,0,0.3,0
								s0.3,0,0.5,0c0.4,0,0.9-0.1,1.3-0.1c0.1,0,0.1,0,0.2,0c0.2-0.1,0.3-0.1,0.4-0.1c0.3,0,0.7,0,1-0.1c0.1,0,0.3-0.1,0.4-0.1
								c0.4-0.1,0.8-0.2,1.2-0.3c0.2-0.1,0.4-0.1,0.6-0.2s0.3-0.1,0.5-0.2s0.3-0.1,0.5-0.2c0.6-0.2,1.2-0.5,1.7-0.8L371.3,348.5z"/>
						</g>
					</g>
				</g>
			</g>
		</g>
		<g>
			<g>
				<path class="st3" d="M128,380.1l7.1,4.2c18.7,11.1,41.9,11,60.4-0.4l61.2-37.6c3.5-2.1,5.6-5.9,5.6-10l0,0c0-4.1-2.1-7.8-5.5-10
					l-12.6-7.9c-18.3-11.6-40.8-14.7-61.5-8.5c-18.7,5.5-40.9,16.5-59.8,37.8C114.1,357.6,116.5,373.2,128,380.1z"/>
			</g>
			<path class="st4" d="M127.9,379.9l7.1,4.2c18.7,11.1,41.9,11,60.4-0.4l61.2-37.6c3.5-2.1,5.6-5.9,5.6-10c0-1.5-0.3-3-0.9-4.4
				l-60.9,37.4c-18.5,11.4-41.8,11.5-60.4,0.4l-7.1-4.2c-6.4-3.8-10-10.5-10.3-17.3C114.2,358,116.7,373.3,127.9,379.9z"/>
			<path class="st5" d="M200.2,325.2c-0.1-0.3,0-0.6,0.3-0.8c17.1-8.6,37.2-6.3,46-4.7l2.9,1.9c-5.5-1.3-29-5.9-48.3,3.9
				c-0.1,0.1-0.2,0.1-0.3,0.1C200.6,325.6,200.3,325.5,200.2,325.2z"/>
		</g>
		<g>
			<g>
				<g>
					<g class="st0">
						<g>
							<path class="st6" d="M344.2,114.3c-2.4,1.4-2.4,3.6,0,5l96.2,55.9c2.3,1.4,6.2,1.4,8.6,0l57.8-32.7c2.4-1.4,2.4-3.6,0-5
								l-96.2-55.9c-2.3-1.4-6.2-1.4-8.6,0L344.2,114.3z"/>
						</g>
						<path class="st7" d="M344.5,291.6L344.5,291.6C344.4,291.6,344.4,291.6,344.5,291.6c-0.2,0-0.3-0.1-0.4-0.2
							c-0.1-0.1-0.3-0.2-0.4-0.3l0,0c-0.2-0.1-0.3-0.3-0.4-0.4c-0.1,0-0.1-0.1-0.1-0.1c-0.1,0-0.1-0.1-0.1-0.1
							c0-0.1-0.1-0.1-0.1-0.2c-0.1-0.1-0.2-0.2-0.2-0.3s0-0.1,0-0.1c0-0.1,0-0.1,0-0.1c-0.1-0.1-0.1-0.1-0.1-0.2c0-0.2,0-0.3,0-0.4
							s0-0.1,0-0.1V117c0,0.2,0,0.4,0.1,0.6c0,0.1,0,0.1,0,0.1c0.1,0.2,0.2,0.4,0.3,0.6c0.1,0,0.1,0.1,0.1,0.1
							c0.1,0.1,0.3,0.3,0.5,0.5c0.1,0.1,0.2,0.2,0.4,0.3c0.1,0.1,0.3,0.2,0.4,0.3l96.2,55.9c0.3,0.1,0.6,0.3,0.9,0.4
							c0,0,0.1,0.1,0.2,0.1c0.2,0.1,0.4,0.1,0.6,0.2c0.2,0.1,0.4,0.2,0.6,0.2s0.5,0.1,0.7,0.1c0.1,0,0.1,0,0.2,0
							c0.3,0.1,0.7,0.1,1,0.1c0.1,0,0.1,0,0.2,0c0.3,0,0.7-0.1,1-0.1c0.1,0,0.1,0,0.2,0c0.4-0.1,0.7-0.1,1-0.2c0.1,0,0.1,0,0.2,0
							c0.2-0.1,0.5-0.2,0.8-0.3c0.1-0.1,0.2-0.1,0.2-0.1c0.3-0.1,0.6-0.2,0.9-0.4l57.8-32.7c1.2-0.7,1.8-1.6,1.8-2.5v172.1
							c0,0.9-0.6,1.8-1.8,2.5l-57.8,32.7c-0.3,0.1-0.6,0.3-0.9,0.4c-0.1,0-0.1,0-0.1,0c-0.1,0.1-0.1,0.1-0.2,0.1
							c-0.1,0.1-0.3,0.1-0.5,0.2c-0.1,0.1-0.2,0.1-0.3,0.1c-0.1,0-0.1,0-0.2,0c-0.1,0-0.1,0-0.2,0c-0.2,0-0.4,0.1-0.6,0.1
							c0,0-0.1,0-0.2,0c-0.1,0-0.1,0-0.2,0c-0.1,0-0.1,0-0.2,0c-0.2,0-0.4,0-0.6,0c-0.1,0-0.1,0-0.2,0c-0.1,0-0.1,0-0.2,0
							s-0.2,0-0.3,0c-0.2,0-0.5,0-0.7,0h-0.1c-0.1,0-0.1,0-0.2,0c-0.2-0.1-0.3-0.1-0.5-0.1c-0.1-0.1-0.1-0.1-0.2-0.1
							c-0.2-0.1-0.4-0.1-0.6-0.2c-0.1,0-0.2-0.1-0.3-0.1s-0.2-0.1-0.3-0.1c0,0-0.1-0.1-0.2-0.1c-0.3-0.1-0.6-0.2-0.9-0.4
							L344.5,291.6z"/>
						<path class="st2" d="M342.3,116.6v172.1c0,0.1,0,0.1,0,0.1c0,0.2,0,0.3,0,0.4c0.1,0.1,0.1,0.1,0.1,0.2s0,0.1,0,0.1
							c0,0.1,0,0.1,0,0.1c0.1,0.1,0.1,0.2,0.2,0.3c0,0.1,0.1,0.1,0.1,0.2c0.1,0,0.1,0.1,0.1,0.1c0.1,0,0.1,0.1,0.1,0.1
							c0.1,0.1,0.3,0.3,0.4,0.4l0,0c0.1,0.1,0.2,0.2,0.4,0.3c0.1,0.1,0.2,0.1,0.3,0.2h0.1l0,0l96.2,55.9c0.3,0.1,0.6,0.3,0.9,0.4
							c0,0,0.1,0.1,0.2,0.1s0.2,0.1,0.3,0.1c0.1,0.1,0.2,0.1,0.3,0.1c0.2,0.1,0.4,0.2,0.6,0.2c0.1,0.1,0.1,0.1,0.2,0.1
							c0.2,0.1,0.3,0.1,0.5,0.1c0.1,0,0.1,0,0.2,0h0.1c0.2,0,0.5,0,0.7,0c0.1,0,0.2,0,0.3,0c0.1,0,0.1,0,0.2,0c0.1,0,0.1,0,0.2,0
							c0.2,0,0.4,0,0.6,0c0.1,0,0.1,0,0.2,0c0.1,0,0.1,0,0.2,0s0.1,0,0.2,0V176.1c-0.1,0-0.1,0-0.2,0c-0.1,0-0.1,0-0.2,0
							c-0.3,0.1-0.7,0.1-1,0.1c-0.1,0-0.1,0-0.2,0c-0.3,0-0.7-0.1-1-0.1c-0.1,0-0.1,0-0.2,0c-0.2,0-0.5-0.1-0.7-0.1
							c-0.2-0.1-0.4-0.1-0.6-0.2c-0.2-0.1-0.4-0.1-0.6-0.2c0,0-0.1-0.1-0.2-0.1c-0.3-0.1-0.6-0.2-0.9-0.4l-96.2-55.9
							c-0.2-0.1-0.3-0.2-0.4-0.3c-0.1-0.1-0.3-0.2-0.4-0.3c-0.2-0.1-0.4-0.3-0.5-0.5c-0.1,0-0.1-0.1-0.1-0.1
							c-0.1-0.1-0.2-0.3-0.3-0.6c0.1,0.1,0.1,0.1,0,0C342.5,117.2,342.4,117,342.3,116.6z"/>
					</g>
				</g>
			</g>
			<g>
				<path class="st8" d="M433,245.4c-0.1,25.6-18.2,36-40.5,23.1s-40.3-44.1-40.2-69.7s18.2-36,40.5-23.1
					C415.1,188.6,433.1,219.8,433,245.4z"/>
			</g>
			<g>
				<path class="st2" d="M424.7,240.6c0,20.4-14.5,28.6-32.2,18.4c-17.7-10.3-32.1-35.1-32-55.5c0-20.4,14.5-28.6,32.2-18.4
					C410.5,195.4,424.8,220.2,424.7,240.6z"/>
			</g>
			<g>
				<path class="st8" d="M405.6,229.6c0,8.2-5.9,11.6-13,7.4s-12.9-14.2-12.9-22.4s5.8-11.5,13-7.4
					C399.8,211.3,405.6,221.3,405.6,229.6z"/>
			</g>
			<g>
				<path class="st8" d="M405.3,306.9c0,3.8-2.7,5.3-5.9,3.4c-3.3-1.8-5.9-6.4-5.9-10.1c0-3.8,2.7-5.3,5.9-3.4
					C402.7,298.7,405.3,303.2,405.3,306.9z"/>
			</g>
			<g>
				<path class="st8" d="M386.3,296.4c0,3.8-2.7,5.3-5.9,3.4c-3.3-1.8-5.9-6.4-5.9-10.1c0-3.8,2.7-5.3,5.9-3.4
					C383.7,288.1,386.3,292.7,386.3,296.4z"/>
			</g>
		</g>
		<g>
			<g>
				<g class="st0">
					<path class="st9" d="M907.4,586.9l2.7-314.2c0-0.4-0.1-0.9-0.1-1.4v-0.1c-0.1-0.5-0.1-1-0.2-1.5l0,0c-0.1-0.5-0.2-1-0.3-1.5
						v-0.1c-0.1-0.5-0.3-0.9-0.4-1.4v-0.1c-0.2-0.5-0.3-1-0.5-1.5V265c-0.2-0.5-0.4-0.9-0.6-1.4v-0.1c-0.2-0.5-0.5-0.9-0.7-1.4
						c-0.1,0-0.1-0.1-0.1-0.1c-0.2-0.4-0.4-0.8-0.6-1.2c-0.1-0.1-0.1-0.2-0.2-0.3c-0.1-0.3-0.3-0.5-0.4-0.7
						c-0.2-0.3-0.3-0.5-0.5-0.8c-0.3-0.4-0.6-0.8-0.9-1.2l0,0c-0.3-0.5-0.7-0.9-1-1.3l0,0c-0.3-0.4-0.6-0.8-1-1.2l-0.1-0.1
						c-0.3-0.3-0.7-0.7-1-1l-0.1-0.1c-0.4-0.3-0.7-0.6-1.1-0.9l-0.1-0.1c-0.3-0.3-0.7-0.5-1.1-0.8c-0.1-0.1-0.1-0.1-0.1-0.1
						c-0.4-0.3-0.8-0.6-1.2-0.8L475.8,7.9c-0.4-0.2-0.8-0.4-1.2-0.6h-0.1c-0.4-0.2-0.8-0.4-1.2-0.5c-0.1,0-0.1,0-0.1,0
						c-0.4-0.1-0.7-0.2-1.1-0.3H472c-0.3-0.1-0.7-0.2-1-0.2h-0.1c-0.3,0-0.6,0-0.9,0c-0.1,0-0.1,0-0.2,0c-0.3,0-0.6,0-0.9,0.1
						c-0.1,0-0.1,0-0.2,0c-0.3,0-0.6,0.1-0.8,0.2c-0.3,0.1-0.6,0.2-0.9,0.4l9.4-6.3c0.3-0.1,0.6-0.3,0.9-0.4c0.1,0,0.1,0,0.1,0
						c0.2-0.1,0.5-0.1,0.7-0.2c0.1,0,0.1,0,0.2,0l0,0c0.2,0,0.5-0.1,0.7-0.1c0.1,0,0.1,0,0.2,0c0.1,0,0.1,0,0.2,0c0,0,0.1,0,0.2,0
						c0.2,0,0.4,0,0.6,0l0.1,0l0.1,0c0.1,0,0.2,0,0.3,0s0.3,0.1,0.5,0.1c0.1,0,0.1,0,0.2,0h0.1c0,0.1,0.1,0.1,0.2,0.1
						c0.2,0,0.3,0,0.5,0.1c0.1,0,0.2,0.1,0.3,0.1s0.1,0,0.1,0h0.1c0.2,0.1,0.3,0.1,0.5,0.2s0.3,0.1,0.5,0.2h0.1h0.1
						c0.1,0.1,0.2,0.1,0.3,0.2c0.2,0.1,0.3,0.2,0.5,0.3c0.1,0.1,0.3,0.1,0.4,0.2l422.3,244c0,0.1,0.1,0.1,0.1,0.1
						c0.2,0.1,0.3,0.2,0.5,0.3s0.3,0.2,0.5,0.3c0.1,0,0.1,0,0.1,0c0.1,0,0.1,0,0.1,0c0.1,0.1,0.3,0.2,0.4,0.3
						c0.1,0.1,0.3,0.3,0.5,0.4c0.1,0,0.1,0.1,0.2,0.1l0.1,0.1c0,0.1,0.1,0.1,0.2,0.2c0.1,0.2,0.3,0.3,0.5,0.5c0.1,0,0.2,0.1,0.3,0.2
						l0.1,0.1c0.1,0.1,0.1,0.1,0.2,0.2c0.2,0.2,0.3,0.3,0.5,0.5c0.1,0.2,0.2,0.3,0.3,0.4l0.1,0.1l0.1,0.1c0.2,0.1,0.3,0.3,0.5,0.5
						c0.2,0.2,0.3,0.4,0.5,0.6l0,0l0,0c0.2,0.2,0.3,0.4,0.5,0.6c0.1,0.2,0.3,0.5,0.5,0.7c0.3,0.3,0.5,0.7,0.8,1.1l0.1,0.1
						c0.2,0.3,0.3,0.5,0.5,0.8c0.1,0.1,0.2,0.3,0.3,0.5c0.1,0,0.1,0.1,0.1,0.1c0.1,0.1,0.1,0.2,0.2,0.3c0.2,0.2,0.3,0.4,0.4,0.6
						c0.1,0.2,0.2,0.3,0.3,0.5c0.1,0,0.1,0.1,0.1,0.1c0.1,0,0.1,0.1,0.1,0.1c0.1,0.3,0.2,0.5,0.3,0.7c0.1,0.2,0.2,0.4,0.3,0.6v0.1
						c0,0.1,0,0.1,0,0.1c0.1,0.1,0.1,0.3,0.2,0.4c0,0.2,0.1,0.4,0.2,0.6c0,0.1,0.1,0.3,0.1,0.4v0.1v0.1c0.1,0.2,0.1,0.4,0.2,0.6
						c0.1,0.2,0.1,0.4,0.2,0.6v0.1v0.1c0,0.2,0.1,0.3,0.1,0.5c0.1,0.3,0.1,0.5,0.2,0.7c0.1,0.1,0.1,0.2,0.1,0.3v0.1
						c0.1,0,0.1,0.1,0.1,0.2c0,0.2,0.1,0.4,0.1,0.6s0.1,0.4,0.1,0.6l0,0l0,0c0,0.2,0.1,0.4,0.1,0.6c0.1,0.2,0.1,0.4,0.1,0.6
						c0,0.1,0,0.1,0,0.2v0.1c0,0.1,0,0.2,0,0.3c0,0.2,0,0.4,0,0.6s0,0.4,0,0.6l-0.8,306.7c-0.1,3.6-1.9,7-4.9,9L907.4,586.9z"/>
					<g>
						<path class="st10" d="M910.1,272.7c0-7.8-5.5-17.4-12.3-21.3L475.7,7.8c-6.8-3.9-12.4-0.7-12.4,7.1l-0.9,319.7l438.4,253.1
							c3.7,2.1,8.4-0.6,8.4-4.9L910.1,272.7z M890.7,544.4L481.4,308.1l0.8-276.4L891.5,268L890.7,544.4z"/>
						<path class="st9" d="M903.6,584.8c-0.3,0-0.7-0.1-1-0.3L466,332.5l0.8-317.7c0-1.9,0.4-5.2,3.3-5.2c1.1,0,2.4,0.4,3.8,1.2
							L896,254.4c5.7,3.4,10.5,11.7,10.5,18.3l-0.8,310C905.7,584,904.6,584.8,903.6,584.8L903.6,584.8z"/>
					</g>
					<g>
						<polygon class="st11" points="890.7,544.4 481.4,308.1 482.2,31.7 891.5,268 						"/>
					</g>
					<g>
						<polygon class="st12" points="890.7,544.4 482.2,31.7 891.5,268 						"/>
					</g>
				</g>
			</g>
			<g>
				<g class="st0">
					<path class="st9" d="M160,530.3L160,530.3c-0.1-0.1-0.2-0.1-0.3-0.2c-0.4-0.3-0.7-0.5-1.1-0.8c-0.5-0.3-1.1-0.7-1.5-1.1
						l-0.1-0.1c-0.5-0.4-0.9-0.9-1.3-1.4c-0.1-0.1-0.1-0.2-0.2-0.3c0-0.2-0.1-0.3-0.2-0.4c-0.1-0.2-0.3-0.4-0.4-0.6
						c-0.3-0.4-0.4-0.8-0.6-1.2c-0.1-0.1-0.1-0.1-0.1-0.2c-0.1,0-0.1-0.1-0.1-0.2c-0.1-0.3-0.1-0.5-0.2-0.8c0-0.4-0.1-0.8-0.1-1.2
						c0-0.1,0-0.1,0-0.2l-0.1-13.6c0,0.7,0.2,1.5,0.4,2.2c0.1,0,0.1,0.1,0.1,0.2c0.2,0.7,0.6,1.3,1,2c0,0.2,0.1,0.3,0.2,0.4
						c0.5,0.7,1,1.3,1.7,1.9c0.4,0.4,1,0.7,1.5,1.1c0.4,0.3,0.8,0.6,1.3,0.9l425.8,247.5c0.9,0.5,2,1,3,1.4c0.2,0.1,0.5,0.2,0.8,0.3
						c0.6,0.2,1.3,0.4,2,0.6c0.8,0.2,1.5,0.3,2.2,0.5c0.9,0.1,1.7,0.3,2.6,0.4c0.3,0,0.5,0.1,0.7,0.1c1.2,0.1,2.4,0.2,3.6,0.2
						c0.2,0,0.4,0,0.6,0c1.2,0,2.4-0.1,3.6-0.2c0.1-0.1,0.3-0.1,0.5-0.1c1.2-0.1,2.4-0.3,3.5-0.6c0.2,0,0.4-0.1,0.6-0.1
						c1-0.2,2-0.6,3-0.9c0.1-0.1,0.3-0.1,0.5-0.2c1.2-0.4,2.3-0.9,3.3-1.5l281.1-162.3c4.2-2.4,6.3-5.6,6.3-8.8l0.1,13.6
						c0,3.2-2.1,6.4-6.3,8.8l-281,162.1c-1,0.6-2,1.1-3.1,1.5c-0.1,0.1-0.1,0.1-0.2,0.1c-0.1,0.1-0.3,0.1-0.5,0.2
						c-0.6,0.2-1.3,0.4-1.9,0.6c-0.4,0.1-0.7,0.2-1.1,0.3c-0.2,0-0.4,0.1-0.6,0.1c-0.1,0-0.3,0.1-0.5,0.1c-0.7,0.2-1.4,0.3-2.1,0.4
						c-0.3,0-0.5,0.1-0.8,0.1c-0.1,0.1-0.3,0.1-0.5,0.1c-0.3,0-0.5,0.1-0.8,0.1c-0.7,0-1.4,0.1-2.1,0.1c-0.2,0-0.5,0-0.7,0
						s-0.4,0-0.6,0c-0.3,0-0.6,0-0.9,0c-0.8-0.1-1.6-0.1-2.4-0.2c-0.1,0-0.2,0-0.3,0c-0.3,0-0.5-0.1-0.7-0.1
						c-0.6-0.1-1.2-0.2-1.8-0.3c-0.3-0.1-0.5-0.1-0.8-0.2c-0.8-0.1-1.5-0.3-2.2-0.5c-0.3-0.1-0.7-0.2-1.1-0.3
						c-0.3-0.1-0.6-0.2-0.9-0.3c-0.2-0.1-0.5-0.2-0.8-0.3c-1.1-0.4-2.1-0.9-3-1.4L160,530.3z"/>
				</g>
			</g>
			<path class="st13" d="M441.3,336.7c8.4-4.9,21.9-4.9,30.3,0l425.9,247.4c8.3,4.9,8.3,12.7-0.1,17.6L616.3,764
				c-8.4,4.9-22,4.9-30.3,0L160.1,516.6c-8.3-4.9-8.3-12.7,0.1-17.6L441.3,336.7z"/>
			<path class="st9" d="M400.6,543.6c2.5-1.5,6.7-1.5,9.2,0l129.5,75.2c2.6,1.4,2.6,3.8,0,5.3l-85.5,49.3c-2.5,1.5-6.7,1.5-9.2,0
				l-129.5-75.2c-2.6-1.4-2.6-3.8,0-5.3L400.6,543.6z"/>
			<g>
				<g class="st0">
					<g>
						<polygon class="st9" points="452.9,385.9 452.9,400.8 431.5,388.4 431.5,373.5 						"/>
					</g>
					<g>
						<polygon class="st9" points="431.5,373.5 431.5,388.4 410.2,400.8 410.2,385.9 						"/>
					</g>
					<g>
						<polygon class="st9" points="431.6,398.3 431.6,413.1 410.2,400.8 410.2,385.9 						"/>
					</g>
					<g>
						<polygon class="st9" points="452.9,385.9 452.9,400.8 431.6,413.1 431.6,398.3 						"/>
					</g>
					<g>
						<polygon class="st9" points="480,401.5 480,416.4 458.5,404 458.6,389.2 						"/>
					</g>
					<g>
						<polygon class="st9" points="458.6,389.2 458.5,404 437.2,416.4 437.3,401.5 						"/>
					</g>
					<g>
						<polygon class="st9" points="424.5,402.5 424.4,417.3 403,405 403,390.1 						"/>
					</g>
					<g>
						<polygon class="st9" points="403,390.1 403,405 381.7,417.3 381.7,402.5 						"/>
					</g>
					<g>
						<polygon class="st9" points="480,401.5 480,416.4 458.7,428.8 458.7,413.9 						"/>
					</g>
					<g>
						<polygon class="st9" points="458.7,413.9 458.7,428.8 437.2,416.4 437.3,401.5 						"/>
					</g>
					<g>
						<polygon class="st9" points="424.5,402.5 424.4,417.3 403.1,429.7 403.1,414.8 						"/>
					</g>
					<g>
						<polygon class="st9" points="403.1,414.8 403.1,429.7 381.7,417.3 381.7,402.5 						"/>
					</g>
					<g>
						<polygon class="st9" points="507.1,417.2 507,432 485.6,419.7 485.7,404.8 						"/>
					</g>
					<g>
						<polygon class="st9" points="485.7,404.8 485.6,419.7 464.3,432 464.4,417.2 						"/>
					</g>
					<g>
						<polygon class="st9" points="451.5,418.1 451.5,433 430,420.6 430.1,405.7 						"/>
					</g>
					<g>
						<polygon class="st9" points="430.1,405.7 430,420.6 408.7,433 408.8,418.1 						"/>
					</g>
					<g>
						<polygon class="st9" points="396,419 395.9,433.9 374.5,421.5 374.5,406.7 						"/>
					</g>
					<g>
						<polygon class="st9" points="374.5,406.7 374.5,421.5 353.2,433.9 353.2,419 						"/>
					</g>
					<g>
						<polygon class="st9" points="485.8,429.5 485.7,444.4 464.3,432 464.4,417.2 						"/>
					</g>
					<g>
						<polygon class="st9" points="507.1,417.2 485.8,429.5 464.4,417.2 485.7,404.8 						"/>
					</g>
					<g>
						<polygon class="st9" points="507.1,417.2 507,432 485.7,444.4 485.8,429.5 						"/>
					</g>
					<g>
						<polygon class="st9" points="430.2,430.5 430.2,445.3 408.7,433 408.8,418.1 						"/>
					</g>
					<g>
						<polygon class="st9" points="451.5,418.1 451.5,433 430.2,445.3 430.2,430.5 						"/>
					</g>
					<g>
						<polygon class="st9" points="396,419 395.9,433.9 374.6,446.3 374.6,431.4 						"/>
					</g>
					<g>
						<polygon class="st9" points="374.6,431.4 374.6,446.3 353.2,433.9 353.2,419 						"/>
					</g>
					<g>
						<polygon class="st9" points="534.2,432.8 534.1,447.7 512.7,435.3 512.7,420.4 						"/>
					</g>
					<g>
						<polygon class="st9" points="512.7,420.4 512.7,435.3 491.4,447.7 491.4,432.8 						"/>
					</g>
					<g>
						<polygon class="st9" points="478.6,433.7 478.5,448.6 457.1,436.2 457.2,421.3 						"/>
					</g>
					<g>
						<polygon class="st9" points="457.2,421.3 457.1,436.2 435.8,448.6 435.9,433.7 						"/>
					</g>
					<g>
						<polygon class="st9" points="423,434.7 423,449.5 401.5,437.1 401.6,422.3 						"/>
					</g>
					<g>
						<polygon class="st9" points="401.6,422.3 401.5,437.1 380.2,449.5 380.3,434.7 						"/>
					</g>
					<g>
						<polygon class="st9" points="367.4,435.6 367.4,450.5 346,438.1 346,423.2 						"/>
					</g>
					<g>
						<polygon class="st9" points="346,423.2 346,438.1 324.7,450.5 324.7,435.6 						"/>
					</g>
					<g>
						<polygon class="st9" points="512.9,445.2 512.8,460 491.4,447.7 491.4,432.8 						"/>
					</g>
					<g>
						<polygon class="st9" points="534.2,432.8 534.1,447.7 512.8,460 512.9,445.2 						"/>
					</g>
					<g>
						<polygon class="st9" points="457.3,446.1 457.2,461 435.8,448.6 435.9,433.7 						"/>
					</g>
					<g>
						<polygon class="st9" points="478.6,433.7 478.5,448.6 457.2,461 457.3,446.1 						"/>
					</g>
					<g>
						<polygon class="st9" points="423,434.7 423,449.5 401.7,461.9 401.7,447 						"/>
					</g>
					<g>
						<polygon class="st9" points="401.7,447 401.7,461.9 380.2,449.5 380.3,434.7 						"/>
					</g>
					<g>
						<polygon class="st9" points="561.2,448.4 561.2,463.3 539.7,450.9 539.8,436 						"/>
					</g>
					<g>
						<polygon class="st9" points="539.8,436 539.7,450.9 518.4,463.3 518.5,448.4 						"/>
					</g>
					<g>
						<polygon class="st9" points="346.2,448 346.1,462.8 324.7,450.5 324.7,435.6 						"/>
					</g>
					<g>
						<polygon class="st9" points="367.4,435.6 367.4,450.5 346.1,462.8 346.2,448 						"/>
					</g>
					<g>
						<polygon class="st9" points="505.7,449.4 505.6,464.2 484.2,451.8 484.2,437 						"/>
					</g>
					<g>
						<polygon class="st9" points="484.2,437 484.2,451.8 462.9,464.2 462.9,449.4 						"/>
					</g>
					<g>
						<polygon class="st9" points="450.1,450.3 450,465.1 428.6,452.8 428.7,437.9 						"/>
					</g>
					<g>
						<polygon class="st9" points="428.7,437.9 428.6,452.8 407.3,465.2 407.4,450.3 						"/>
					</g>
					<g>
						<polygon class="st9" points="394.5,451.2 394.5,466.1 373,453.7 373.1,438.9 						"/>
					</g>
					<g>
						<polygon class="st9" points="373.1,438.9 373,453.7 351.7,466.1 351.8,451.2 						"/>
					</g>
					<g>
						<polygon class="st9" points="338.9,452.2 338.9,467 317.5,454.7 317.5,439.8 						"/>
					</g>
					<g>
						<polygon class="st9" points="317.5,439.8 317.5,454.7 296.2,467 296.2,452.2 						"/>
					</g>
					<g>
						<polygon class="st9" points="561.2,448.4 539.9,460.8 518.5,448.4 539.8,436 						"/>
					</g>
					<g>
						<polygon class="st9" points="539.9,460.8 539.9,475.7 518.4,463.3 518.5,448.4 						"/>
					</g>
					<g>
						<polygon class="st9" points="561.2,448.4 561.2,463.3 539.9,475.7 539.9,460.8 						"/>
					</g>
					<g>
						<polygon class="st9" points="505.7,449.4 505.6,464.2 484.3,476.6 484.4,461.7 						"/>
					</g>
					<g>
						<polygon class="st9" points="484.4,461.7 484.3,476.6 462.9,464.2 462.9,449.4 						"/>
					</g>
					<g>
						<polygon class="st9" points="428.8,462.7 428.7,477.5 407.3,465.2 407.4,450.3 						"/>
					</g>
					<g>
						<polygon class="st9" points="450.1,450.3 450,465.1 428.7,477.5 428.8,462.7 						"/>
					</g>
					<g>
						<polygon class="st9" points="588.3,464 588.2,478.9 566.8,466.5 566.8,451.7 						"/>
					</g>
					<g>
						<polygon class="st9" points="566.8,451.7 566.8,466.5 545.5,478.9 545.5,464 						"/>
					</g>
					<g>
						<polygon class="st9" points="394.5,451.2 394.5,466.1 373.2,478.5 373.2,463.6 						"/>
					</g>
					<g>
						<polygon class="st9" points="373.2,463.6 373.2,478.5 351.7,466.1 351.8,451.2 						"/>
					</g>
					<g>
						<polygon class="st9" points="532.7,465 532.7,479.8 511.2,467.5 511.3,452.6 						"/>
					</g>
					<g>
						<polygon class="st9" points="511.3,452.6 511.2,467.5 489.9,479.8 490,465 						"/>
					</g>
					<g>
						<polygon class="st9" points="338.9,452.2 338.9,467 317.6,479.4 317.7,464.5 						"/>
					</g>
					<g>
						<polygon class="st9" points="317.7,464.5 317.6,479.4 296.2,467 296.2,452.2 						"/>
					</g>
					<g>
						<polygon class="st9" points="338.9,452.2 317.7,464.5 296.2,452.2 317.5,439.8 						"/>
					</g>
					<g>
						<polygon class="st9" points="477.2,465.9 477.1,480.8 455.7,468.4 455.7,453.5 						"/>
					</g>
					<g>
						<polygon class="st9" points="455.7,453.5 455.7,468.4 434.4,480.8 434.4,465.9 						"/>
					</g>
					<g>
						<polygon class="st9" points="421.6,466.9 421.5,481.7 400.1,469.3 400.1,454.5 						"/>
					</g>
					<g>
						<polygon class="st9" points="400.1,454.5 400.1,469.3 378.8,481.7 378.9,466.9 						"/>
					</g>
					<g>
						<polygon class="st9" points="366,467.8 366,482.7 344.5,470.3 344.6,455.4 						"/>
					</g>
					<g>
						<polygon class="st9" points="344.6,455.4 344.5,470.3 323.2,482.6 323.3,467.8 						"/>
					</g>
					<g>
						<polygon class="st9" points="588.3,464 588.3,478.9 566.9,491.3 567,476.4 						"/>
					</g>
					<g>
						<polygon class="st9" points="567,476.4 566.9,491.3 545.5,478.9 545.5,464 						"/>
					</g>
					<g>
						<polygon class="st9" points="532.7,465 532.7,479.8 511.4,492.2 511.4,477.4 						"/>
					</g>
					<g>
						<polygon class="st9" points="511.4,477.4 511.4,492.2 489.9,479.8 490,465 						"/>
					</g>
					<g>
						<polygon class="st9" points="455.9,478.3 455.8,493.2 434.4,480.8 434.4,465.9 						"/>
					</g>
					<g>
						<polygon class="st9" points="477.2,465.9 477.1,480.8 455.8,493.2 455.9,478.3 						"/>
					</g>
					<g>
						<polygon class="st9" points="615.3,479.7 615.3,494.5 593.9,482.1 593.9,467.3 						"/>
					</g>
					<g>
						<polygon class="st9" points="593.9,467.3 593.9,482.1 572.6,494.5 572.6,479.7 						"/>
					</g>
					<g>
						<polygon class="st9" points="421.6,466.9 400.3,479.2 378.9,466.9 400.1,454.5 						"/>
					</g>
					<g>
						<polygon class="st9" points="400.3,479.2 400.2,494.1 378.8,481.7 378.9,466.9 						"/>
					</g>
					<g>
						<polygon class="st9" points="421.6,466.9 421.5,481.7 400.2,494.1 400.3,479.2 						"/>
					</g>
					<g>
						<polygon class="st9" points="559.8,480.6 559.8,495.5 538.3,483.1 538.4,468.2 						"/>
					</g>
					<g>
						<polygon class="st9" points="538.4,468.2 538.3,483.1 517,495.5 517,480.6 						"/>
					</g>
					<g>
						<polygon class="st9" points="366,467.8 344.7,480.2 323.3,467.8 344.6,455.4 						"/>
					</g>
					<g>
						<polygon class="st9" points="366,467.8 366,482.7 344.7,495 344.7,480.2 						"/>
					</g>
					<g>
						<polygon class="st9" points="344.7,480.2 344.7,495 323.2,482.6 323.3,467.8 						"/>
					</g>
					<g>
						<polygon class="st9" points="504.2,481.5 504.2,496.4 482.7,484 482.8,469.2 						"/>
					</g>
					<g>
						<polygon class="st9" points="482.8,469.2 482.7,484 461.4,496.4 461.5,481.5 						"/>
					</g>
					<g>
						<polygon class="st9" points="448.6,482.5 448.6,497.3 427.2,485 427.2,470.1 						"/>
					</g>
					<g>
						<polygon class="st9" points="427.2,470.1 427.2,485 405.9,497.3 405.9,482.5 						"/>
					</g>
					<g>
						<polygon class="st9" points="393.1,483.4 393,498.3 371.6,485.9 371.6,471 						"/>
					</g>
					<g>
						<polygon class="st9" points="371.6,471 371.6,485.9 350.3,498.3 350.4,483.4 						"/>
					</g>
					<g>
						<polygon class="st9" points="615.3,479.7 594,492 572.6,479.7 593.9,467.3 						"/>
					</g>
					<g>
						<polygon class="st9" points="615.3,479.7 615.3,494.5 594,506.9 594,492 						"/>
					</g>
					<g>
						<polygon class="st9" points="594,492 594,506.9 572.6,494.5 572.6,479.7 						"/>
					</g>
					<g>
						<polygon class="st9" points="559.8,480.6 538.5,493 517,480.6 538.4,468.2 						"/>
					</g>
					<g>
						<polygon class="st9" points="538.5,493 538.4,507.8 517,495.5 517,480.6 						"/>
					</g>
					<g>
						<polygon class="st9" points="559.8,480.6 559.8,495.5 538.4,507.8 538.5,493 						"/>
					</g>
					<g>
						<polygon class="st9" points="482.9,493.9 482.9,508.8 461.4,496.4 461.5,481.5 						"/>
					</g>
					<g>
						<polygon class="st9" points="504.2,481.5 482.9,493.9 461.5,481.5 482.8,469.2 						"/>
					</g>
					<g>
						<polygon class="st9" points="504.2,481.5 504.2,496.4 482.9,508.8 482.9,493.9 						"/>
					</g>
					<g>
						<polygon class="st9" points="642.4,510.1 620.9,497.8 621,482.9 642.4,495.3 						"/>
					</g>
					<g>
						<polygon class="st9" points="621,482.9 620.9,497.8 599.6,510.2 599.7,495.3 						"/>
					</g>
					<g>
						<polygon class="st9" points="427.4,494.9 427.3,509.7 405.9,497.3 405.9,482.5 						"/>
					</g>
					<g>
						<polygon class="st9" points="448.6,482.5 427.4,494.9 405.9,482.5 427.2,470.1 						"/>
					</g>
					<g>
						<polygon class="st9" points="448.6,482.5 448.6,497.3 427.3,509.7 427.4,494.9 						"/>
					</g>
					<g>
						<polygon class="st9" points="586.8,496.2 586.8,511.1 565.4,498.7 565.4,483.8 						"/>
					</g>
					<g>
						<polygon class="st9" points="565.4,483.8 565.4,498.7 544.1,511.1 544.1,496.2 						"/>
					</g>
					<g>
						<polygon class="st9" points="371.8,495.8 371.7,510.6 350.3,498.3 350.4,483.4 						"/>
					</g>
					<g>
						<polygon class="st9" points="393.1,483.4 393,498.3 371.7,510.6 371.8,495.8 						"/>
					</g>
					<g>
						<polygon class="st9" points="393.1,483.4 371.8,495.8 350.4,483.4 371.6,471 						"/>
					</g>
					<g>
						<polygon class="st9" points="531.3,497.2 531.3,512 509.8,499.6 509.9,484.8 						"/>
					</g>
					<g>
						<polygon class="st9" points="509.9,484.8 509.8,499.6 488.5,512 488.5,497.2 						"/>
					</g>
					<g>
						<polygon class="st9" points="475.7,498.1 475.7,513 454.2,500.6 454.3,485.7 						"/>
					</g>
					<g>
						<polygon class="st9" points="454.3,485.7 454.2,500.6 432.9,513 433,498.1 						"/>
					</g>
					<g>
						<polygon class="st9" points="420.1,499 420.1,513.9 398.7,501.5 398.7,486.7 						"/>
					</g>
					<g>
						<polygon class="st9" points="398.7,486.7 398.7,501.5 377.4,513.9 377.4,499 						"/>
					</g>
					<g>
						<polygon class="st9" points="621.1,507.7 621.1,522.5 599.6,510.2 599.7,495.3 						"/>
					</g>
					<g>
						<polygon class="st9" points="642.4,510.1 621.1,522.5 621.1,507.7 642.4,495.3 						"/>
					</g>
					<g>
						<polygon class="st9" points="565.5,508.6 565.5,523.5 544.1,511.1 544.1,496.2 						"/>
					</g>
					<g>
						<polygon class="st9" points="586.8,496.2 586.8,511.1 565.5,523.5 565.5,508.6 						"/>
					</g>
					<g>
						<polygon class="st9" points="531.3,497.2 510,509.5 488.5,497.2 509.9,484.8 						"/>
					</g>
					<g>
						<polygon class="st9" points="531.3,497.2 531.3,512 510,524.4 510,509.5 						"/>
					</g>
					<g>
						<polygon class="st9" points="510,509.5 510,524.4 488.5,512 488.5,497.2 						"/>
					</g>
					<g>
						<polygon class="st9" points="669.5,510.9 669.4,525.8 648,513.4 648,498.5 						"/>
					</g>
					<g>
						<polygon class="st9" points="648,498.5 648,513.4 626.7,525.8 626.7,510.9 						"/>
					</g>
					<g>
						<polygon class="st9" points="454.4,510.5 454.4,525.3 432.9,513 433,498.1 						"/>
					</g>
					<g>
						<polygon class="st9" points="475.7,498.1 454.4,510.5 433,498.1 454.3,485.7 						"/>
					</g>
					<g>
						<polygon class="st9" points="475.7,498.1 475.7,513 454.4,525.3 454.4,510.5 						"/>
					</g>
					<g>
						<polygon class="st9" points="613.9,511.8 613.9,526.7 592.4,514.3 592.5,499.5 						"/>
					</g>
					<g>
						<polygon class="st9" points="592.5,499.5 592.4,514.3 571.1,526.7 571.2,511.9 						"/>
					</g>
					<g>
						<polygon class="st9" points="420.1,499 420.1,513.9 398.8,526.3 398.9,511.4 						"/>
					</g>
					<g>
						<polygon class="st9" points="398.9,511.4 398.8,526.3 377.4,513.9 377.4,499 						"/>
					</g>
					<g>
						<polygon class="st9" points="558.4,512.8 558.3,527.6 536.9,515.3 536.9,500.4 						"/>
					</g>
					<g>
						<polygon class="st9" points="536.9,500.4 536.9,515.3 515.6,527.6 515.6,512.8 						"/>
					</g>
					<g>
						<polygon class="st9" points="502.8,513.7 502.7,528.6 481.3,516.2 481.3,501.4 						"/>
					</g>
					<g>
						<polygon class="st9" points="481.3,501.4 481.3,516.2 460,528.6 460.1,513.7 						"/>
					</g>
					<g>
						<polygon class="st9" points="425.8,502.3 425.7,517.1 404.4,529.5 404.5,514.7 						"/>
					</g>
					<g>
						<polygon class="st9" points="669.5,510.9 669.4,525.8 648.1,538.2 648.2,523.3 						"/>
					</g>
					<g>
						<polygon class="st9" points="648.2,523.3 648.1,538.2 626.7,525.8 626.7,510.9 						"/>
					</g>
					<g>
						<polygon class="st9" points="669.5,510.9 648.2,523.3 626.7,510.9 648,498.5 						"/>
					</g>
					<g>
						<polygon class="st9" points="592.6,524.2 592.6,539.1 571.1,526.7 571.2,511.9 						"/>
					</g>
					<g>
						<polygon class="st9" points="613.9,511.8 592.6,524.2 571.2,511.9 592.5,499.5 						"/>
					</g>
					<g>
						<polygon class="st9" points="613.9,511.8 613.9,526.7 592.6,539.1 592.6,524.2 						"/>
					</g>
					<g>
						<polygon class="st9" points="537,525.2 537,540 515.6,527.6 515.6,512.8 						"/>
					</g>
					<g>
						<polygon class="st9" points="558.4,512.8 558.3,527.6 537,540 537,525.2 						"/>
					</g>
					<g>
						<polygon class="st9" points="558.4,512.8 537,525.2 515.6,512.8 536.9,500.4 						"/>
					</g>
					<g>
						<polygon class="st9" points="696.5,526.5 696.5,541.4 675.1,529 675.1,514.2 						"/>
					</g>
					<g>
						<polygon class="st9" points="675.1,514.2 675.1,529 653.8,541.4 653.8,526.5 						"/>
					</g>
					<g>
						<polygon class="st9" points="502.8,513.7 502.7,528.6 481.5,541 481.5,526.1 						"/>
					</g>
					<g>
						<polygon class="st9" points="481.5,526.1 481.5,541 460,528.6 460.1,513.7 						"/>
					</g>
					<g>
						<polygon class="st9" points="502.8,513.7 481.5,526.1 460.1,513.7 481.3,501.4 						"/>
					</g>
					<g>
						<polygon class="st9" points="640.9,542.3 619.5,530 619.5,515.1 641,527.5 						"/>
					</g>
					<g>
						<polygon class="st9" points="619.5,515.1 619.5,530 598.2,542.3 598.2,527.5 						"/>
					</g>
					<g>
						<polygon class="st9" points="585.4,528.4 585.4,543.3 563.9,530.9 564,516 						"/>
					</g>
					<g>
						<polygon class="st9" points="564,516 563.9,530.9 542.6,543.3 542.7,528.4 						"/>
					</g>
					<g>
						<polygon class="st9" points="529.8,529.4 529.8,544.2 508.3,531.8 508.4,517 						"/>
					</g>
					<g>
						<polygon class="st9" points="508.4,517 508.3,531.8 487.1,544.2 487.1,529.3 						"/>
					</g>
					<g>
						<polygon class="st9" points="696.5,526.5 696.5,541.4 675.2,553.8 675.2,538.9 						"/>
					</g>
					<g>
						<polygon class="st9" points="675.2,538.9 675.2,553.8 653.8,541.4 653.8,526.5 						"/>
					</g>
					<g>
						<polygon class="st9" points="696.5,526.5 675.2,538.9 653.8,526.5 675.1,514.2 						"/>
					</g>
					<g>
						<polygon class="st9" points="619.7,539.9 619.6,554.7 598.2,542.3 598.2,527.5 						"/>
					</g>
					<g>
						<polygon class="st9" points="640.9,542.3 619.6,554.7 619.7,539.9 641,527.5 						"/>
					</g>
					<g>
						<polygon class="st9" points="641,527.5 619.7,539.9 598.2,527.5 619.5,515.1 						"/>
					</g>
					<g>
						<polygon class="st9" points="585.4,528.4 585.4,543.3 564.1,555.6 564.1,540.8 						"/>
					</g>
					<g>
						<polygon class="st9" points="585.4,528.4 564.1,540.8 542.7,528.4 564,516 						"/>
					</g>
					<g>
						<polygon class="st9" points="564.1,540.8 564.1,555.6 542.6,543.3 542.7,528.4 						"/>
					</g>
					<g>
						<polygon class="st9" points="723.6,542.2 723.6,557 702.1,544.7 702.2,529.8 						"/>
					</g>
					<g>
						<polygon class="st9" points="702.2,529.8 702.1,544.7 680.8,557 680.9,542.2 						"/>
					</g>
					<g>
						<polygon class="st9" points="529.8,529.4 529.8,544.2 508.5,556.6 508.5,541.7 						"/>
					</g>
					<g>
						<polygon class="st9" points="508.5,541.7 508.5,556.6 487.1,544.2 487.1,529.3 						"/>
					</g>
					<g>
						<polygon class="st9" points="668,543.1 668,558 646.6,545.6 646.6,530.7 						"/>
					</g>
					<g>
						<polygon class="st9" points="646.6,530.7 646.6,545.6 625.3,558 625.3,543.1 						"/>
					</g>
					<g>
						<polygon class="st9" points="612.5,544 612.4,558.9 591,546.5 591,531.7 						"/>
					</g>
					<g>
						<polygon class="st9" points="591,531.7 591,546.5 569.7,558.9 569.7,544 						"/>
					</g>
					<g>
						<polygon class="st9" points="556.9,545 556.8,559.8 535.4,547.5 535.5,532.6 						"/>
					</g>
					<g>
						<polygon class="st9" points="535.5,532.6 535.4,547.5 514.1,559.8 514.2,545 						"/>
					</g>
					<g>
						<polygon class="st9" points="723.6,542.2 723.6,557 702.3,569.4 702.3,554.5 						"/>
					</g>
					<g>
						<polygon class="st9" points="702.3,554.5 702.3,569.4 680.8,557 680.9,542.2 						"/>
					</g>
					<g>
						<polygon class="st9" points="668,543.1 646.7,555.5 625.3,543.1 646.6,530.7 						"/>
					</g>
					<g>
						<polygon class="st9" points="668,543.1 668,558 646.7,570.3 646.7,555.5 						"/>
					</g>
					<g>
						<polygon class="st9" points="646.7,555.5 646.7,570.3 625.3,558 625.3,543.1 						"/>
					</g>
					<g>
						<polygon class="st9" points="591.2,556.4 591.1,571.3 569.7,558.9 569.7,544 						"/>
					</g>
					<g>
						<polygon class="st9" points="612.5,544 612.4,558.9 591.1,571.3 591.2,556.4 						"/>
					</g>
					<g>
						<polygon class="st9" points="612.5,544 591.2,556.4 569.7,544 591,531.7 						"/>
					</g>
					<g>
						<polygon class="st9" points="750.7,557.8 750.6,572.7 729.2,560.3 729.2,545.4 						"/>
					</g>
					<g>
						<polygon class="st9" points="729.2,545.4 729.2,560.3 707.9,572.7 707.9,557.8 						"/>
					</g>
					<g>
						<polygon class="st9" points="535.6,557.3 535.6,572.2 514.1,559.8 514.2,545 						"/>
					</g>
					<g>
						<polygon class="st9" points="556.9,545 556.8,559.8 535.6,572.2 535.6,557.3 						"/>
					</g>
					<g>
						<polygon class="st9" points="695.1,558.7 695.1,573.6 673.6,561.2 673.7,546.3 						"/>
					</g>
					<g>
						<polygon class="st9" points="673.7,546.3 673.6,561.2 652.3,573.6 652.4,558.7 						"/>
					</g>
					<g>
						<polygon class="st9" points="639.5,574.5 618.1,562.2 618.1,547.3 639.5,559.7 						"/>
					</g>
					<g>
						<polygon class="st9" points="618.1,547.3 618.1,562.2 596.8,574.5 596.8,559.7 						"/>
					</g>
					<g>
						<polygon class="st9" points="584,560.6 583.9,575.5 562.5,563.1 562.5,548.2 						"/>
					</g>
					<g>
						<polygon class="st9" points="562.5,548.2 562.5,563.1 541.2,575.5 541.2,560.6 						"/>
					</g>
					<g>
						<polygon class="st9" points="750.7,557.8 729.4,570.2 707.9,557.8 729.2,545.4 						"/>
					</g>
					<g>
						<polygon class="st9" points="729.4,570.2 729.3,585 707.9,572.7 707.9,557.8 						"/>
					</g>
					<g>
						<polygon class="st9" points="750.7,557.8 750.6,572.7 729.3,585 729.4,570.2 						"/>
					</g>
					<g>
						<polygon class="st9" points="695.1,558.7 673.8,571.1 652.4,558.7 673.7,546.3 						"/>
					</g>
					<g>
						<polygon class="st9" points="673.8,571.1 673.8,586 652.3,573.6 652.4,558.7 						"/>
					</g>
					<g>
						<polygon class="st9" points="695.1,558.7 695.1,573.6 673.8,586 673.8,571.1 						"/>
					</g>
					<g>
						<polygon class="st9" points="618.2,572 618.2,586.9 596.8,574.5 596.8,559.7 						"/>
					</g>
					<g>
						<polygon class="st9" points="639.5,574.5 618.2,586.9 618.2,572 639.5,559.7 						"/>
					</g>
					<g>
						<polygon class="st9" points="639.5,559.7 618.2,572 596.8,559.7 618.1,547.3 						"/>
					</g>
					<g>
						<polygon class="st9" points="777.7,573.4 777.7,588.3 756.3,575.9 756.3,561 						"/>
					</g>
					<g>
						<polygon class="st9" points="756.3,561 756.3,575.9 735,588.3 735,573.4 						"/>
					</g>
					<g>
						<polygon class="st9" points="562.7,573 562.6,587.8 541.2,575.5 541.2,560.6 						"/>
					</g>
					<g>
						<polygon class="st9" points="584,560.6 583.9,575.5 562.6,587.8 562.7,573 						"/>
					</g>
					<g>
						<polygon class="st9" points="584,560.6 562.7,573 541.2,560.6 562.5,548.2 						"/>
					</g>
					<g>
						<polygon class="st9" points="722.2,574.4 722.1,589.2 700.7,576.8 700.7,562 						"/>
					</g>
					<g>
						<polygon class="st9" points="700.7,562 700.7,576.8 679.4,589.2 679.4,574.4 						"/>
					</g>
					<g>
						<polygon class="st9" points="666.6,575.3 666.6,590.2 645.1,577.8 645.2,562.9 						"/>
					</g>
					<g>
						<polygon class="st9" points="645.1,577.8 623.8,590.2 623.9,575.3 645.2,562.9 						"/>
					</g>
					<g>
						<polygon class="st9" points="611,576.2 611,591.1 589.6,578.7 589.6,563.9 						"/>
					</g>
					<g>
						<polygon class="st9" points="589.6,563.9 589.6,578.7 568.3,591.1 568.3,576.2 						"/>
					</g>
					<g>
						<polygon class="st9" points="777.7,573.4 777.7,588.3 756.4,600.7 756.4,585.8 						"/>
					</g>
					<g>
						<polygon class="st9" points="777.7,573.4 756.4,585.8 735,573.4 756.3,561 						"/>
					</g>
					<g>
						<polygon class="st9" points="756.4,585.8 756.4,600.7 735,588.3 735,573.4 						"/>
					</g>
					<g>
						<polygon class="st9" points="722.2,574.4 722.1,589.2 700.8,601.6 700.9,586.7 						"/>
					</g>
					<g>
						<polygon class="st9" points="700.9,586.7 700.8,601.6 679.4,589.2 679.4,574.4 						"/>
					</g>
					<g>
						<polygon class="st9" points="722.2,574.4 700.9,586.7 679.4,574.4 700.7,562 						"/>
					</g>
					<g>
						<polygon class="st9" points="666.6,575.3 666.6,590.2 645.3,602.5 645.3,587.7 						"/>
					</g>
					<g>
						<polygon class="st9" points="645.3,587.7 623.9,575.3 645.2,562.9 666.6,575.3 						"/>
					</g>
					<g>
						<polygon class="st9" points="645.3,602.5 623.8,590.2 623.9,575.3 645.3,587.7 						"/>
					</g>
					<g>
						<polygon class="st9" points="804.8,589 804.8,603.9 783.3,591.5 783.4,576.7 						"/>
					</g>
					<g>
						<polygon class="st9" points="783.4,576.7 783.3,591.5 762,603.9 762.1,589 						"/>
					</g>
					<g>
						<polygon class="st9" points="611,576.2 611,591.1 589.7,603.5 589.7,588.6 						"/>
					</g>
					<g>
						<polygon class="st9" points="589.7,588.6 589.7,603.5 568.3,591.1 568.3,576.2 						"/>
					</g>
					<g>
						<polygon class="st9" points="611,576.2 589.7,588.6 568.3,576.2 589.6,563.9 						"/>
					</g>
					<g>
						<polygon class="st9" points="749.2,590 749.2,604.8 727.8,592.5 727.8,577.6 						"/>
					</g>
					<g>
						<polygon class="st9" points="727.8,577.6 727.8,592.5 706.5,604.8 706.5,590 						"/>
					</g>
					<g>
						<polygon class="st9" points="693.7,590.9 693.6,605.8 672.2,593.4 672.2,578.5 						"/>
					</g>
					<g>
						<polygon class="st9" points="672.2,578.5 672.2,593.4 650.9,605.8 650.9,590.9 						"/>
					</g>
					<g>
						<polygon class="st9" points="638.1,606.7 616.6,594.3 616.7,579.5 638.1,591.9 						"/>
					</g>
					<g>
						<polygon class="st9" points="616.7,579.5 616.6,594.3 595.3,606.7 595.4,591.9 						"/>
					</g>
					<g>
						<polygon class="st9" points="582.5,592.8 582.5,607.7 425.7,517.1 425.8,502.3 						"/>
					</g>
					<g>
						<polygon class="st9" points="804.8,589 783.5,601.4 762.1,589 783.4,576.7 						"/>
					</g>
					<g>
						<polygon class="st9" points="804.8,589 804.8,603.9 783.5,616.3 783.5,601.4 						"/>
					</g>
					<g>
						<polygon class="st9" points="783.5,601.4 783.5,616.3 762,603.9 762.1,589 						"/>
					</g>
					<g>
						<polygon class="st9" points="749.2,590 727.9,602.4 706.5,590 727.8,577.6 						"/>
					</g>
					<g>
						<polygon class="st9" points="727.9,602.4 727.9,617.2 706.5,604.8 706.5,590 						"/>
					</g>
					<g>
						<polygon class="st9" points="749.2,590 749.2,604.8 727.9,617.2 727.9,602.4 						"/>
					</g>
					<g>
						<polygon class="st9" points="693.7,590.9 672.4,603.3 650.9,590.9 672.2,578.5 						"/>
					</g>
					<g>
						<polygon class="st9" points="693.7,590.9 693.6,605.8 672.3,618.2 672.4,603.3 						"/>
					</g>
					<g>
						<polygon class="st9" points="672.4,603.3 672.3,618.2 650.9,605.8 650.9,590.9 						"/>
					</g>
					<g>
						<polygon class="st9" points="831.9,604.7 831.8,619.5 810.4,607.2 810.4,592.3 						"/>
					</g>
					<g>
						<polygon class="st9" points="810.4,592.3 810.4,607.2 789.1,619.5 789.1,604.7 						"/>
					</g>
					<g>
						<polygon class="st9" points="638.1,591.9 616.8,604.2 595.4,591.9 616.7,579.5 						"/>
					</g>
					<g>
						<polygon class="st9" points="638.1,606.7 616.8,619.1 616.8,604.2 638.1,591.9 						"/>
					</g>
					<g>
						<polygon class="st9" points="616.8,604.2 616.8,619.1 595.3,606.7 595.4,591.9 						"/>
					</g>
					<g>
						<polygon class="st9" points="776.3,605.6 776.3,620.5 754.8,608.1 754.9,593.2 						"/>
					</g>
					<g>
						<polygon class="st9" points="754.9,593.2 754.8,608.1 733.5,620.5 733.6,605.6 						"/>
					</g>
					<g>
						<polygon class="st9" points="582.5,592.8 582.5,607.7 561.2,620 561.2,605.2 						"/>
					</g>
					<g>
						<polygon class="st9" points="582.5,592.8 561.2,605.2 404.5,514.7 425.8,502.3 						"/>
					</g>
					<g>
						<polygon class="st9" points="561.2,605.2 561.2,620 404.4,529.5 404.5,514.7 						"/>
					</g>
					<g>
						<polygon class="st9" points="720.7,606.5 720.7,621.4 699.3,609 699.3,594.2 						"/>
					</g>
					<g>
						<polygon class="st9" points="699.3,594.2 699.3,609 678,621.4 678,606.5 						"/>
					</g>
					<g>
						<polygon class="st9" points="665.1,607.5 665.1,622.3 643.7,610 643.7,595.1 						"/>
					</g>
					<g>
						<polygon class="st9" points="643.7,610 622.4,622.3 622.4,607.5 643.7,595.1 						"/>
					</g>
					<g>
						<polygon class="st9" points="609.6,608.4 609.6,623.3 588.1,610.9 588.2,596 						"/>
					</g>
					<g>
						<polygon class="st9" points="588.2,596 588.1,610.9 566.8,623.3 566.9,608.4 						"/>
					</g>
					<g>
						<polygon class="st9" points="831.9,604.7 831.8,619.5 810.5,631.9 810.5,617 						"/>
					</g>
					<g>
						<polygon class="st9" points="831.9,604.7 810.5,617 789.1,604.7 810.4,592.3 						"/>
					</g>
					<g>
						<polygon class="st9" points="810.5,617 810.5,631.9 789.1,619.5 789.1,604.7 						"/>
					</g>
					<g>
						<polygon class="st9" points="776.3,605.6 776.3,620.5 755,632.8 755,618 						"/>
					</g>
					<g>
						<polygon class="st9" points="755,618 755,632.8 733.5,620.5 733.6,605.6 						"/>
					</g>
					<g>
						<polygon class="st9" points="776.3,605.6 755,618 733.6,605.6 754.9,593.2 						"/>
					</g>
					<g>
						<polygon class="st9" points="720.7,606.5 699.4,618.9 678,606.5 699.3,594.2 						"/>
					</g>
					<g>
						<polygon class="st9" points="720.7,606.5 720.7,621.4 699.4,633.8 699.4,618.9 						"/>
					</g>
					<g>
						<polygon class="st9" points="699.4,618.9 699.4,633.8 678,621.4 678,606.5 						"/>
					</g>
					<g>
						<polygon class="st9" points="643.8,634.7 622.4,622.3 622.4,607.5 643.9,619.9 						"/>
					</g>
					<g>
						<polygon class="st9" points="643.9,619.9 622.4,607.5 643.7,595.1 665.1,607.5 						"/>
					</g>
					<g>
						<polygon class="st9" points="665.1,607.5 665.1,622.3 643.8,634.7 643.9,619.9 						"/>
					</g>
					<g>
						<polygon class="st9" points="803.4,621.2 803.3,636.1 781.9,623.7 781.9,608.9 						"/>
					</g>
					<g>
						<polygon class="st9" points="781.9,608.9 781.9,623.7 760.6,636.1 760.6,621.2 						"/>
					</g>
					<g>
						<polygon class="st9" points="588.3,620.8 588.3,635.7 566.8,623.3 566.9,608.4 						"/>
					</g>
					<g>
						<polygon class="st9" points="609.6,608.4 609.6,623.3 588.3,635.7 588.3,620.8 						"/>
					</g>
					<g>
						<polygon class="st9" points="609.6,608.4 588.3,620.8 566.9,608.4 588.2,596 						"/>
					</g>
					<g>
						<polygon class="st9" points="747.8,622.2 747.8,637 726.3,624.6 726.4,609.8 						"/>
					</g>
					<g>
						<polygon class="st9" points="726.4,609.8 726.3,624.6 705,637 705.1,622.2 						"/>
					</g>
					<g>
						<polygon class="st9" points="692.2,623.1 692.2,638 670.7,625.6 670.8,610.7 						"/>
					</g>
					<g>
						<polygon class="st9" points="670.8,610.7 670.7,625.6 649.5,638 649.5,623.1 						"/>
					</g>
					<g>
						<polygon class="st9" points="636.6,638.9 615.2,626.5 615.2,611.7 636.7,624 						"/>
					</g>
					<g>
						<polygon class="st9" points="615.2,611.7 615.2,626.5 593.9,638.9 593.9,624 						"/>
					</g>
					<g>
						<polygon class="st9" points="803.4,621.2 803.3,636.1 782,648.5 782.1,633.6 						"/>
					</g>
					<g>
						<polygon class="st9" points="803.4,621.2 782.1,633.6 760.6,621.2 781.9,608.9 						"/>
					</g>
					<g>
						<polygon class="st9" points="782.1,633.6 782,648.5 760.6,636.1 760.6,621.2 						"/>
					</g>
					<g>
						<polygon class="st9" points="747.8,622.2 747.8,637 726.5,649.4 726.5,634.5 						"/>
					</g>
					<g>
						<polygon class="st9" points="726.5,634.5 726.5,649.4 705,637 705.1,622.2 						"/>
					</g>
					<g>
						<polygon class="st9" points="747.8,622.2 726.5,634.5 705.1,622.2 726.4,609.8 						"/>
					</g>
					<g>
						<polygon class="st9" points="692.2,623.1 692.2,638 670.9,650.3 670.9,635.5 						"/>
					</g>
					<g>
						<polygon class="st9" points="670.9,635.5 670.9,650.3 649.5,638 649.5,623.1 						"/>
					</g>
					<g>
						<polygon class="st9" points="692.2,623.1 670.9,635.5 649.5,623.1 670.8,610.7 						"/>
					</g>
					<g>
						<polygon class="st9" points="615.4,636.4 615.3,651.3 593.9,638.9 593.9,624 						"/>
					</g>
					<g>
						<polygon class="st9" points="636.6,638.9 615.3,651.3 615.4,636.4 636.7,624 						"/>
					</g>
					<g>
						<polygon class="st9" points="636.7,624 615.4,636.4 593.9,624 615.2,611.7 						"/>
					</g>
					<g>
						<polygon class="st9" points="774.9,637.8 774.8,652.6 753.4,640.3 753.4,625.4 						"/>
					</g>
					<g>
						<polygon class="st9" points="753.4,625.4 753.4,640.3 732.1,652.7 732.1,637.8 						"/>
					</g>
					<g>
						<polygon class="st9" points="719.3,638.7 719.2,653.6 697.8,641.2 697.8,626.4 						"/>
					</g>
					<g>
						<polygon class="st9" points="697.8,626.4 697.8,641.2 676.5,653.6 676.6,638.7 						"/>
					</g>
					<g>
						<polygon class="st9" points="663.7,639.7 663.7,654.5 642.2,642.2 642.3,627.3 						"/>
					</g>
					<g>
						<polygon class="st9" points="642.2,642.2 621,654.5 621,639.7 642.3,627.3 						"/>
					</g>
					<g>
						<polygon class="st9" points="774.9,637.8 774.8,652.6 753.5,665 753.6,650.2 						"/>
					</g>
					<g>
						<polygon class="st9" points="774.9,637.8 753.6,650.2 732.1,637.8 753.4,625.4 						"/>
					</g>
					<g>
						<polygon class="st9" points="753.6,650.2 753.5,665 732.1,652.7 732.1,637.8 						"/>
					</g>
					<g>
						<polygon class="st9" points="698,651.1 698,666 676.5,653.6 676.6,638.7 						"/>
					</g>
					<g>
						<polygon class="st9" points="719.3,638.7 719.2,653.6 698,666 698,651.1 						"/>
					</g>
					<g>
						<polygon class="st9" points="719.3,638.7 698,651.1 676.6,638.7 697.8,626.4 						"/>
					</g>
					<g>
						<polygon class="st9" points="642.4,666.9 621,654.5 621,639.7 642.4,652 						"/>
					</g>
					<g>
						<polygon class="st9" points="663.7,639.7 663.7,654.5 642.4,666.9 642.4,652 						"/>
					</g>
					<g>
						<polygon class="st9" points="642.4,652 621,639.7 642.3,627.3 663.7,639.7 						"/>
					</g>
					<g>
						<polygon class="st9" points="746.3,654.4 746.3,669.2 724.9,656.9 724.9,642 						"/>
					</g>
					<g>
						<polygon class="st9" points="724.9,642 724.9,656.9 703.6,669.2 703.6,654.4 						"/>
					</g>
					<g>
						<polygon class="st9" points="690.8,655.3 690.7,670.2 669.3,657.8 669.3,642.9 						"/>
					</g>
					<g>
						<polygon class="st9" points="669.3,642.9 669.3,657.8 648,670.2 648.1,655.3 						"/>
					</g>
					<g>
						<polygon class="st9" points="725.1,666.7 725,681.6 703.6,669.2 703.6,654.4 						"/>
					</g>
					<g>
						<polygon class="st9" points="746.3,654.4 725.1,666.7 703.6,654.4 724.9,642 						"/>
					</g>
					<g>
						<polygon class="st9" points="746.3,654.4 746.3,669.2 725,681.6 725.1,666.7 						"/>
					</g>
					<g>
						<polygon class="st9" points="669.5,667.7 669.5,682.5 648,670.2 648.1,655.3 						"/>
					</g>
					<g>
						<polygon class="st9" points="690.8,655.3 690.7,670.2 669.5,682.5 669.5,667.7 						"/>
					</g>
					<g>
						<polygon class="st9" points="690.8,655.3 669.5,667.7 648.1,655.3 669.3,642.9 						"/>
					</g>
					<g>
						<polygon class="st9" points="717.8,670.9 717.8,685.8 696.4,673.4 696.4,658.6 						"/>
					</g>
					<g>
						<polygon class="st9" points="696.4,658.6 696.4,673.4 675.1,685.8 675.1,670.9 						"/>
					</g>
					<g>
						<polygon class="st9" points="717.8,670.9 696.6,683.3 675.1,670.9 696.4,658.6 						"/>
					</g>
					<g>
						<polygon class="st9" points="717.8,670.9 717.8,685.8 696.5,698.2 696.6,683.3 						"/>
					</g>
					<g>
						<polygon class="st9" points="696.6,683.3 696.5,698.2 675.1,685.8 675.1,670.9 						"/>
					</g>
					<g>
						<path class="st3" d="M870.3,608.4L426.7,352.6l-164.6,95.7l443.6,255.8L870.3,608.4z M725.1,666.7l-21.5-12.3l21.3-12.4
							l21.4,12.4L725.1,666.7z M455.7,453.5l21.4,12.4l-21.3,12.4l-21.4-12.4L455.7,453.5z M428.8,462.7l-21.4-12.4l21.3-12.4
							l21.4,12.4L428.8,462.7z M482.8,469.1l21.4,12.4l-21.3,12.4l-21.4-12.4L482.8,469.1z M509.9,484.7l21.4,12.4L510,509.5
							l-21.5-12.3L509.9,484.7z M536.9,500.4l21.4,12.4L537,525.2l-21.4-12.4L536.9,500.4z M564,516l21.4,12.4l-21.3,12.4
							l-21.4-12.4L564,516z M591,531.7l21.4,12.3l-21.3,12.4L569.7,544L591,531.7z M618.1,547.3l21.4,12.4l-21.3,12.4l-21.4-12.4
							L618.1,547.3z M645.2,562.9l21.4,12.4l-21.3,12.4l-21.4-12.4L645.2,562.9z M672.2,578.5l21.4,12.4l-21.3,12.4l-21.4-12.4
							L672.2,578.5z M699.3,594.1l21.4,12.4l-21.3,12.4L678,606.5L699.3,594.1z M726.4,609.8l21.4,12.4l-21.3,12.4l-21.4-12.4
							L726.4,609.8z M733.6,605.6l21.3-12.4l21.4,12.4L755,618L733.6,605.6z M727.9,602.4L706.5,590l21.3-12.4l21.4,12.4
							L727.9,602.4z M700.9,586.7l-21.4-12.3l21.3-12.4l21.4,12.4L700.9,586.7z M673.8,571.1l-21.4-12.4l21.3-12.4l21.4,12.4
							L673.8,571.1z M646.7,555.5l-21.4-12.4l21.3-12.4l21.4,12.4L646.7,555.5z M619.7,539.9l-21.4-12.4l21.3-12.4l21.4,12.4
							L619.7,539.9z M592.6,524.2l-21.4-12.4l21.3-12.4l21.4,12.4L592.6,524.2z M565.5,508.6l-21.4-12.4l21.3-12.4l21.4,12.4
							L565.5,508.6z M538.5,493l-21.4-12.4l21.3-12.4l21.4,12.4L538.5,493z M511.4,477.4L490,465l21.3-12.4l21.4,12.4L511.4,477.4z
							 M484.4,461.7L463,449.4l21.3-12.4l21.4,12.4L484.4,461.7z M457.3,446.1l-21.4-12.4l21.3-12.4l21.4,12.4L457.3,446.1z
							 M430.2,430.5l-21.4-12.4l21.3-12.4l21.4,12.4L430.2,430.5z M423,434.7l-21.3,12.4l-21.4-12.4l21.3-12.4L423,434.7z
							 M394.5,451.3l-21.3,12.4l-21.4-12.4l21.3-12.4L394.5,451.3z M400.2,454.5l21.4,12.4l-21.3,12.4l-21.4-12.4L400.2,454.5z
							 M427.2,470.1l21.4,12.4l-21.3,12.4l-21.4-12.4L427.2,470.1z M454.3,485.7l21.4,12.4l-21.3,12.4L433,498.1L454.3,485.7z
							 M481.4,501.3l21.4,12.4l-21.3,12.4l-21.4-12.4L481.4,501.3z M508.4,516.9l21.4,12.4l-21.3,12.4l-21.4-12.4L508.4,516.9z
							 M535.5,532.6l21.4,12.4l-21.3,12.4L514.2,545L535.5,532.6z M562.6,548.2l21.4,12.4L562.6,573l-21.4-12.4L562.6,548.2z
							 M589.6,563.8l21.4,12.4l-21.3,12.4l-21.4-12.4L589.6,563.8z M616.7,579.5l21.4,12.4l-21.3,12.4l-21.4-12.4L616.7,579.5z
							 M643.7,595.1l21.4,12.4l-21.3,12.4l-21.4-12.4L643.7,595.1z M670.8,610.7l21.4,12.4l-21.3,12.4l-21.4-12.4L670.8,610.7z
							 M697.9,626.3l21.4,12.4L698,651.1l-21.4-12.4L697.9,626.3z M753.6,650.2l-21.4-12.4l21.3-12.4l21.4,12.4L753.6,650.2z
							 M782.1,633.6l-21.4-12.4l21.3-12.4l21.4,12.4L782.1,633.6z M831.9,604.7l-21.4,12.4l-21.4-12.4l21.3-12.4L831.9,604.7z
							 M804.8,589.1l-21.3,12.4l-21.4-12.4l21.3-12.4L804.8,589.1z M777.7,573.4l-21.3,12.4L735,573.4l21.3-12.4L777.7,573.4z
							 M750.6,557.8l-21.3,12.4l-21.4-12.4l21.3-12.4L750.6,557.8z M723.6,542.2l-21.3,12.4l-21.4-12.4l21.3-12.4L723.6,542.2z
							 M696.5,526.6L675.2,539l-21.4-12.4l21.3-12.4L696.5,526.6z M669.4,510.9l-21.3,12.4l-21.4-12.4l21.3-12.4L669.4,510.9z
							 M642.4,495.3l-21.3,12.4l-21.4-12.4l21.3-12.4L642.4,495.3z M615.3,479.7L594,492l-21.4-12.3l21.3-12.4L615.3,479.7z
							 M588.3,464L567,476.4l-21.5-12.3l21.3-12.4L588.3,464z M561.2,448.4l-21.3,12.4l-21.4-12.4l21.3-12.4L561.2,448.4z
							 M534.1,432.8l-21.3,12.4l-21.4-12.4l21.3-12.4L534.1,432.8z M507.1,417.2l-21.3,12.4l-21.4-12.4l21.3-12.4L507.1,417.2z
							 M480,401.5L458.7,414l-21.4-12.4l21.3-12.4L480,401.5z M431.5,373.5l21.4,12.4l-21.3,12.4l-21.4-12.4L431.5,373.5z
							 M403,390.1l21.4,12.4l-21.3,12.4l-21.4-12.4L403,390.1z M374.6,406.6L396,419l-21.4,12.4L353.2,419L374.6,406.6z M346,423.2
							l21.4,12.4L346.1,448l-21.4-12.4L346,423.2z M296.3,452.1l21.3-12.4l21.4,12.4l-21.3,12.4L296.3,452.1z M323.3,467.8
							l21.3-12.4l21.4,12.4l-21.3,12.4L323.3,467.8z M350.4,483.4l21.3-12.4l21.4,12.4l-21.3,12.4L350.4,483.4z M377.5,499
							l21.3-12.4l21.4,12.4l-21.3,12.4L377.5,499z M404.4,514.7l21.3-12.4l156.8,90.5l-21.3,12.4L404.4,514.7z M566.9,608.4
							l21.3-12.4l21.4,12.4l-21.3,12.4L566.9,608.4z M594,624l21.3-12.4l21.4,12.4l-21.3,12.4L594,624z M621,639.7l21.3-12.4
							l21.4,12.4L642.4,652L621,639.7z M648.1,655.3l21.3-12.4l21.4,12.4l-21.3,12.4L648.1,655.3z M675.2,670.9l21.3-12.4l21.4,12.4
							l-21.3,12.4L675.2,670.9z"/>
					</g>
					<g>
						<polygon class="st9" points="452.9,385.9 431.6,398.3 410.2,385.9 431.5,373.5 						"/>
					</g>
					<g>
						<polygon class="st9" points="480,401.5 458.7,413.9 437.3,401.5 458.6,389.2 						"/>
					</g>
					<g>
						<polygon class="st9" points="424.5,402.5 403.1,414.8 381.7,402.5 403,390.1 						"/>
					</g>
					<g>
						<polygon class="st9" points="451.5,418.1 430.2,430.5 408.8,418.1 430.1,405.7 						"/>
					</g>
					<g>
						<polygon class="st9" points="396,419 374.6,431.4 353.2,419 374.5,406.7 						"/>
					</g>
					<g>
						<polygon class="st9" points="534.2,432.8 512.9,445.2 491.4,432.8 512.7,420.4 						"/>
					</g>
					<g>
						<polygon class="st9" points="478.6,433.7 457.3,446.1 435.9,433.7 457.2,421.3 						"/>
					</g>
					<g>
						<polygon class="st9" points="423,434.7 401.7,447 380.3,434.7 401.6,422.3 						"/>
					</g>
					<g>
						<polygon class="st9" points="367.4,435.6 346.2,448 324.7,435.6 346,423.2 						"/>
					</g>
					<g>
						<polygon class="st9" points="505.7,449.4 484.4,461.7 462.9,449.4 484.2,437 						"/>
					</g>
					<g>
						<polygon class="st9" points="450.1,450.3 428.8,462.7 407.4,450.3 428.7,437.9 						"/>
					</g>
					<g>
						<polygon class="st9" points="394.5,451.2 373.2,463.6 351.8,451.2 373.1,438.9 						"/>
					</g>
					<g>
						<polygon class="st9" points="588.3,464 567,476.4 545.5,464 566.8,451.7 						"/>
					</g>
					<g>
						<polygon class="st9" points="532.7,465 511.4,477.4 490,465 511.3,452.6 						"/>
					</g>
					<g>
						<polygon class="st9" points="477.2,465.9 455.9,478.3 434.4,465.9 455.7,453.5 						"/>
					</g>
					<g>
						<polygon class="st9" points="642.4,495.3 621.1,507.7 599.7,495.3 621,482.9 						"/>
					</g>
					<g>
						<polygon class="st9" points="586.8,496.2 565.5,508.6 544.1,496.2 565.4,483.8 						"/>
					</g>
					<g>
						<polygon class="st9" points="420.1,499 398.9,511.4 377.4,499 398.7,486.7 						"/>
					</g>
					<g>
						<polygon class="st9" points="529.8,529.4 508.5,541.7 487.1,529.3 508.4,517 						"/>
					</g>
					<g>
						<polygon class="st9" points="723.6,542.2 702.3,554.5 680.9,542.2 702.2,529.8 						"/>
					</g>
					<g>
						<polygon class="st9" points="556.9,545 535.6,557.3 514.2,545 535.5,532.6 						"/>
					</g>
				</g>
			</g>
		</g>
		<g>
			<g>
				<g>
					<g class="st0">
						<path class="st14" d="M327.5,229.6c0-0.1,0-0.3,0-0.4l0.3-112.1c0,0.3,0,0.6,0,0.9c-0.1,0.3-0.1,0.5-0.1,0.8s-0.1,0.5-0.1,0.7
							c0,0.3-0.1,0.5-0.1,0.8s-0.1,0.5-0.1,0.7c-0.1,0.2-0.1,0.5-0.2,0.7c-0.1,0.3-0.1,0.5-0.2,0.7c0,0.2-0.1,0.5-0.2,0.7
							c0,0.2-0.1,0.4-0.2,0.6c-0.1,0.3-0.2,0.5-0.3,0.8c-0.1,0.2-0.2,0.4-0.3,0.6c-0.1,0.3-0.3,0.5-0.4,0.8
							c-0.1,0.2-0.2,0.4-0.3,0.6c-0.2,0.3-0.4,0.6-0.6,0.9c-0.1,0.1-0.2,0.3-0.3,0.5c-0.2,0.4-0.5,0.7-0.7,1
							c-0.1,0.1-0.2,0.3-0.3,0.4c-0.4,0.5-0.8,1-1.3,1.5c-0.1,0.1-0.3,0.3-0.4,0.4c-0.3,0.3-0.7,0.7-1.1,1.1
							c-0.1,0.2-0.3,0.3-0.5,0.5c-0.2,0.2-0.5,0.4-0.7,0.6c-0.2,0.2-0.5,0.4-0.7,0.6c-0.3,0.2-0.5,0.4-0.8,0.6
							c-0.2,0.2-0.4,0.4-0.7,0.6c-0.2,0.2-0.5,0.4-0.8,0.6c-0.3,0.1-0.5,0.3-0.8,0.5c-0.3,0.2-0.6,0.4-0.9,0.6
							c-0.4,0.2-0.8,0.5-1.2,0.7c-0.7,0.5-1.5,0.9-2.3,1.3c-0.2,0.1-0.5,0.2-0.7,0.3c-0.6,0.3-1.3,0.6-1.9,0.9
							c-0.2,0.1-0.4,0.2-0.6,0.3c-0.8,0.3-1.6,0.7-2.5,1c-0.2,0.1-0.3,0.1-0.5,0.2c-0.7,0.3-1.5,0.6-2.2,0.8
							c-0.3,0.1-0.6,0.2-0.9,0.3c-0.4,0.2-0.8,0.3-1.2,0.4c-0.3,0.1-0.7,0.2-1,0.3c-0.5,0.1-0.9,0.2-1.3,0.3
							c-0.4,0.1-0.7,0.2-1.1,0.3c-0.4,0.1-0.9,0.2-1.3,0.3c-0.4,0-0.7,0.1-1.1,0.2c-0.4,0.1-0.9,0.2-1.3,0.3c-0.3,0.1-0.7,0.1-1,0.2
							c-0.9,0.2-1.8,0.4-2.8,0.5c-0.1,0.1-0.3,0.1-0.4,0.1c-0.8,0.1-1.7,0.2-2.5,0.3c-0.4,0-0.7,0.1-1,0.1c-0.5,0-1.1,0.1-1.6,0.1
							c-0.3,0.1-0.7,0.1-1,0.1c-0.6,0-1.1,0.1-1.7,0.1c-0.4,0-0.7,0-1,0c-0.5,0-1,0-1.5,0c-0.3,0-0.7,0-1,0c-0.5,0-1.1,0-1.6,0
							c-0.3,0-0.6,0-0.9,0c-0.5-0.1-1-0.1-1.5-0.1c-0.3,0-0.7,0-1,0c-0.5,0-1-0.1-1.5-0.1c-0.3-0.1-0.6-0.1-0.9-0.1
							c-0.7-0.1-1.3-0.1-1.9-0.2c-0.2-0.1-0.4-0.1-0.6-0.1c-0.8-0.1-1.6-0.2-2.4-0.3c-0.1-0.1-0.3-0.1-0.4-0.1
							c-0.6-0.1-1.3-0.2-2-0.3c-0.2-0.1-0.5-0.1-0.8-0.2c-0.6-0.1-1.1-0.2-1.6-0.3c-0.3-0.1-0.5-0.1-0.8-0.2
							c-0.6-0.1-1.1-0.3-1.7-0.4c-0.3,0-0.6-0.1-0.9-0.2c-0.5-0.1-1-0.3-1.5-0.4c-0.3,0-0.6-0.1-0.9-0.2c-0.8-0.2-1.6-0.4-2.4-0.7
							c-0.1,0-0.3-0.1-0.4-0.1c-0.9-0.3-1.8-0.7-2.7-1c-0.4-0.1-0.7-0.3-1.1-0.4c-0.2-0.1-0.5-0.2-0.8-0.3c-0.4-0.1-0.8-0.3-1.2-0.5
							c-0.3-0.1-0.6-0.2-0.8-0.3c-0.5-0.2-0.9-0.4-1.3-0.6c-0.2-0.1-0.4-0.2-0.6-0.3c-0.6-0.3-1.2-0.7-1.8-1
							c-9.9-5.7-14.8-13.2-14.8-20.7L227,229.3c-0.1,7.5,4.9,15,14.8,20.7c0.6,0.3,1.2,0.7,1.8,1c0.2,0.1,0.4,0.2,0.6,0.3
							c0.5,0.2,0.9,0.4,1.3,0.6c0.3,0.1,0.5,0.2,0.8,0.3c0.4,0.2,0.8,0.3,1.2,0.5c0.2,0.1,0.5,0.2,0.8,0.3s0.5,0.2,0.8,0.3
							c0.1,0,0.2,0.1,0.3,0.1c0.9,0.4,1.8,0.7,2.7,1c0.1,0,0.3,0.1,0.4,0.1c0.8,0.2,1.6,0.5,2.4,0.7c0.1,0,0.3,0.1,0.4,0.1
							c0.2,0,0.3,0.1,0.5,0.1c0.5,0.1,1,0.3,1.5,0.4c0.3,0,0.6,0.1,0.9,0.2c0.6,0.2,1.1,0.3,1.7,0.4c0.2,0,0.4,0.1,0.6,0.1
							c0.1,0,0.1,0,0.2,0c0.6,0.1,1.1,0.2,1.6,0.3c0.2,0.1,0.5,0.2,0.8,0.2c0.6,0.1,1.3,0.2,2,0.3c0.2,0.1,0.3,0.1,0.4,0.1l0,0
							c0.8,0.1,1.6,0.2,2.4,0.3c0.2,0.1,0.4,0.1,0.6,0.1c0.7,0.1,1.3,0.1,1.9,0.2l0,0c0.2,0.1,0.5,0.1,0.8,0.1c0.5,0,1,0.1,1.5,0.1
							c0.3,0,0.7,0,1,0c0.5,0.1,1,0.1,1.5,0.1h0.1c0.3,0,0.5,0,0.8,0c0.5,0,1.1,0,1.6,0c0.3,0,0.7,0,1,0c0.5,0,1,0,1.5,0
							c0.1,0,0.2,0,0.3,0c0.2,0,0.5,0,0.7,0c0.6,0,1.1-0.1,1.7-0.1c0.3-0.1,0.7-0.1,1-0.1c0.5,0,1.1-0.1,1.6-0.1c0.2,0,0.4,0,0.6,0
							c0.1,0,0.3,0,0.4,0c0.8-0.1,1.7-0.2,2.5-0.3c0.1-0.1,0.3-0.1,0.4-0.1c0.9-0.2,1.9-0.3,2.8-0.5c0.1,0,0.2,0,0.3,0
							c0.2,0,0.5-0.1,0.7-0.1c0.4-0.1,0.9-0.2,1.3-0.3c0.4,0,0.7-0.1,1.1-0.2c0.4-0.1,0.9-0.2,1.3-0.3c0.4-0.1,0.7-0.2,1.1-0.3
							c0.5-0.1,0.9-0.2,1.3-0.3c0.3-0.1,0.7-0.2,1-0.3c0.4-0.1,0.8-0.3,1.2-0.4c0.1-0.1,0.3-0.1,0.5-0.2c0.2,0,0.3-0.1,0.4-0.1
							c0.8-0.3,1.5-0.5,2.2-0.8c0.2-0.1,0.4-0.1,0.5-0.2c0.8-0.3,1.7-0.6,2.5-1c0.2-0.1,0.4-0.2,0.6-0.3c0.7-0.3,1.3-0.6,1.9-0.9
							c0.2-0.1,0.5-0.2,0.7-0.3c0.8-0.4,1.5-0.9,2.3-1.3c0.2-0.2,0.4-0.3,0.6-0.4c0.2-0.1,0.4-0.2,0.6-0.3c0.3-0.2,0.6-0.4,0.9-0.6
							c0.3-0.1,0.5-0.3,0.8-0.5c0.2-0.2,0.5-0.4,0.8-0.6c0.2-0.2,0.5-0.4,0.7-0.6c0.3-0.2,0.5-0.4,0.8-0.6c0.2-0.2,0.5-0.4,0.7-0.6
							s0.5-0.4,0.7-0.6c0.1-0.1,0.2-0.2,0.3-0.3s0.2-0.2,0.3-0.3c0.4-0.3,0.7-0.7,1.1-1.1c0.2-0.1,0.3-0.3,0.4-0.4
							c0.5-0.5,0.9-1,1.3-1.5c0.1-0.1,0.1-0.1,0.1-0.1c0.1-0.2,0.2-0.3,0.3-0.4c0.2-0.3,0.5-0.7,0.7-1c0.2-0.1,0.3-0.3,0.4-0.5
							c0.1-0.3,0.3-0.6,0.5-0.9c0.1,0,0.2-0.1,0.2-0.2c0.1-0.2,0.1-0.3,0.2-0.4c0.1-0.3,0.3-0.5,0.4-0.8c0.1-0.2,0.2-0.4,0.3-0.6
							c0.1-0.3,0.2-0.5,0.3-0.8c0-0.1,0.1-0.2,0.1-0.3s0.1-0.2,0.1-0.3c0-0.2,0.1-0.5,0.2-0.7c0.1-0.3,0.1-0.5,0.2-0.7
							c0.1-0.2,0.1-0.5,0.2-0.7c0-0.1,0.1-0.3,0.1-0.4s0-0.2,0-0.3c0-0.3,0.1-0.5,0.1-0.8s0.1-0.5,0.1-0.7c0.1-0.3,0.1-0.5,0.1-0.8
							C327.8,229.8,327.8,229.7,327.5,229.6z"/>
						<path class="st15" d="M327.3,229.8c0-0.1,0-0.3,0-0.4l0.3-112.1c0,0.3,0,0.6,0,0.9c-0.1,0.3-0.1,0.5-0.1,0.8s-0.1,0.5-0.1,0.7
							c0,0.3-0.1,0.5-0.1,0.8s-0.1,0.5-0.1,0.7c-0.1,0.2-0.1,0.5-0.2,0.7c-0.1,0.3-0.1,0.5-0.2,0.7c0,0.2-0.1,0.5-0.2,0.7
							c0,0.2-0.1,0.4-0.2,0.6c-0.1,0.3-0.2,0.5-0.3,0.8c-0.1,0.2-0.2,0.4-0.3,0.6c-0.1,0.3-0.3,0.5-0.4,0.8
							c-0.1,0.2-0.2,0.4-0.3,0.6c-0.2,0.3-0.4,0.6-0.6,0.9c-0.1,0.1-0.2,0.3-0.3,0.5c-0.2,0.4-0.5,0.7-0.7,1
							c-0.1,0.1-0.2,0.3-0.3,0.4c-0.4,0.5-0.8,1-1.3,1.5c-0.1,0.1-0.3,0.3-0.4,0.4c-0.3,0.3-0.7,0.7-1.1,1.1
							c-0.1,0.2-0.3,0.3-0.5,0.5c-0.2,0.2-0.5,0.4-0.7,0.6c-0.2,0.2-0.5,0.4-0.7,0.6c-0.3,0.2-0.5,0.4-0.8,0.6
							c-0.2,0.2-0.4,0.4-0.7,0.6c-0.2,0.2-0.5,0.4-0.8,0.6c-0.3,0.1-0.5,0.3-0.8,0.5c-0.3,0.2-0.6,0.4-0.9,0.6
							c-0.4,0.2-0.8,0.5-1.2,0.7c-0.7,0.5-1.5,0.9-2.3,1.3c-0.2,0.1-0.5,0.2-0.7,0.3c-0.6,0.3-1.3,0.6-1.9,0.9
							c-0.2,0.1-0.4,0.2-0.6,0.3c-0.8,0.3-1.6,0.7-2.5,1c-0.2,0.1-0.3,0.1-0.5,0.2c-0.7,0.3-1.5,0.6-2.2,0.8
							c-0.3,0.1-0.6,0.2-0.9,0.3c-0.4,0.2-0.8,0.3-1.2,0.4c-0.3,0.1-0.7,0.2-1,0.3c-0.5,0.1-0.9,0.2-1.3,0.3
							c-0.4,0.1-0.7,0.2-1.1,0.3c-0.2,0-0.4,0.1-0.6,0.1v112c0.2,0,0.3-0.1,0.4-0.1c0.4-0.1,0.7-0.2,1.1-0.3
							c0.5-0.1,0.9-0.2,1.3-0.3c0.3-0.1,0.7-0.2,1-0.3c0.4-0.1,0.8-0.3,1.2-0.4c0.1-0.1,0.3-0.1,0.5-0.2c0.2,0,0.3-0.1,0.4-0.1
							c0.8-0.3,1.5-0.5,2.2-0.8c0.2-0.1,0.4-0.1,0.5-0.2c0.8-0.3,1.7-0.6,2.5-1c0.2-0.1,0.4-0.2,0.6-0.3c0.7-0.3,1.3-0.6,1.9-0.9
							c0.2-0.1,0.5-0.2,0.7-0.3c0.8-0.4,1.5-0.9,2.3-1.3c0.2-0.2,0.4-0.3,0.6-0.4c0.2-0.1,0.4-0.2,0.6-0.3c0.3-0.2,0.6-0.4,0.9-0.6
							c0.3-0.1,0.5-0.3,0.8-0.5c0.2-0.2,0.5-0.4,0.8-0.6c0.2-0.2,0.5-0.4,0.7-0.6c0.3-0.2,0.5-0.4,0.8-0.6c0.2-0.2,0.5-0.4,0.7-0.6
							s0.5-0.4,0.7-0.6c0.1-0.1,0.2-0.2,0.3-0.3s0.2-0.2,0.3-0.3c0.4-0.3,0.7-0.7,1.1-1.1c0.2-0.1,0.3-0.3,0.4-0.4
							c0.5-0.5,0.9-1,1.3-1.5c0.1-0.1,0.1-0.1,0.1-0.1c0.1-0.2,0.2-0.3,0.3-0.4c0.2-0.3,0.5-0.7,0.7-1c0.2-0.1,0.3-0.3,0.4-0.5
							c0.1-0.3,0.3-0.6,0.5-0.9c0.1,0,0.2-0.1,0.2-0.2c0.1-0.2,0.1-0.3,0.2-0.4c0.1-0.3,0.3-0.5,0.4-0.8c0.1-0.2,0.2-0.4,0.3-0.6
							c0.1-0.3,0.2-0.5,0.3-0.8c0-0.1,0.1-0.2,0.1-0.3s0.1-0.2,0.1-0.3c0-0.2,0.1-0.5,0.2-0.7c0.1-0.3,0.1-0.5,0.2-0.7
							c0.1-0.2,0.1-0.5,0.2-0.7c0-0.1,0.1-0.3,0.1-0.4s0-0.2,0-0.3c0-0.3,0.1-0.5,0.1-0.8s0.1-0.5,0.1-0.7c0.1-0.3,0.1-0.5,0.1-0.8
							C327.8,229.8,327.8,229.7,327.3,229.8z"/>
						<g>
							<path class="st16" d="M313.4,137.5c19.6-11.4,19.5-29.8-0.2-41.2c-19.7-11.4-51.5-11.4-71.1,0s-19.5,29.8,0.2,41.2
								S293.9,148.9,313.4,137.5z"/>
							<path class="st17" d="M311.3,133.9c8.1-4.7,12.5-10.7,12.5-16.9c0-6.3-4.6-12.4-12.8-17.1c-8.9-5.2-20.8-8-33.5-8
								s-24.6,2.9-33.4,8c-8.1,4.7-12.5,10.7-12.5,16.9c0,6.3,4.6,12.4,12.8,17.1c8.9,5.2,20.8,8,33.5,8
								C290.6,141.9,302.5,139,311.3,133.9z"/>
						</g>
					</g>
				</g>
			</g>
		</g>
		<g>
			<g>
				<g>
					<path class="st7" d="M120.3,454.4v6.1l-17.7,10.4c-0.1,0-0.3,0.1-0.5,0.2c0,0.1-0.1,0.1-0.1,0.1c-0.1,0.1-0.1,0.1-0.2,0.1
						s-0.1,0-0.2,0s-0.3,0.1-0.4,0.1h-0.1c-0.1,0-0.2,0-0.3,0h-0.1l0,0c-0.1,0-0.3,0-0.4,0s-0.1,0-0.2,0H100h-0.1
						c-0.2,0-0.3,0-0.4,0h-0.1h-0.1h-0.1c-0.2-0.1-0.3-0.1-0.4-0.1h-0.1h-0.1c-0.1,0-0.1,0-0.2,0s-0.2-0.1-0.3-0.1H98l0,0
						c-0.2-0.1-0.3-0.2-0.5-0.3l-12.6-7c-0.7-0.4-1.1-0.9-1.1-1.5v-6.1c0,0.5,0.4,1.1,1.1,1.5l12.6,7c0.2,0.1,0.4,0.2,0.6,0.3h0.1
						c0.1,0.1,0.3,0.2,0.5,0.2h0.1c0.2,0,0.4,0.1,0.6,0.1h0.1c0.2,0,0.4,0,0.6,0h0.1c0.2,0,0.4,0,0.6,0h0.1c0.2,0,0.4-0.1,0.5-0.1
						c0.2,0,0.3-0.1,0.4-0.1c0.2,0,0.3-0.1,0.4-0.1c0-0.1,0.1-0.1,0.1-0.1c0.2,0,0.3-0.1,0.5-0.2l17.7-10.4H120.3z"/>
					<path class="st18" d="M102.6,444.4l18,10l-17.7,10.4c-1.5,0.8-3.8,0.8-5.3,0l-12.6-7c-1.5-0.9-1.5-2.3,0-3.1L102.6,444.4z"/>
				</g>
				<g>
					<g>
						<g class="st0">
							<g>
								<path class="st19" d="M86.8,448.4c-2.6-1.5-6.7-1.5-9.3,0L5.3,490.9c-2.6,1.5-2.6,3.9,0,5.4l22.1,12.3
									c2.6,1.5,6.7,1.5,9.3,0l72.2-42.5c2.6-1.5,2.6-3.9,0-5.4L86.8,448.4z"/>
							</g>
							<path class="st20" d="M108.9,476.9L108.9,476.9L108.9,476.9c0.2,0,0.3-0.1,0.4-0.2c0.2-0.1,0.4-0.2,0.5-0.3l0,0
								c0.1-0.1,0.3-0.2,0.4-0.4c0.1,0,0.1-0.1,0.1-0.1c0.1,0,0.1-0.1,0.1-0.1c0-0.1,0.1-0.1,0.1-0.2c0.1-0.1,0.2-0.3,0.2-0.4
								s0-0.1,0-0.1c0-0.1,0-0.1,0-0.1c0.1,0,0.1-0.1,0.1-0.2s0-0.3,0-0.4s0-0.1,0-0.1v-10.7c0,0.2,0,0.5-0.1,0.7c0,0.1,0,0.1,0,0.1
								c-0.1,0.2-0.2,0.4-0.3,0.6c-0.1,0-0.1,0.1-0.1,0.1c-0.1,0.2-0.3,0.4-0.5,0.6c-0.2,0.1-0.3,0.2-0.5,0.3
								c-0.1,0.1-0.2,0.2-0.4,0.3l-72.2,42.5c-0.3,0.1-0.6,0.3-0.9,0.4c-0.1,0-0.2,0.1-0.3,0.1c-0.2,0.1-0.4,0.1-0.6,0.2
								c-0.3,0.1-0.5,0.2-0.7,0.2c-0.3,0-0.5,0.1-0.8,0.1c-0.1,0-0.1,0-0.2,0c-0.4,0.1-0.7,0.1-1.1,0.1c-0.1,0-0.1,0-0.2,0
								c-0.4,0-0.7-0.1-1.1-0.1c-0.1,0-0.1,0-0.2,0c-0.4-0.1-0.8-0.1-1.1-0.2c-0.1,0-0.1,0-0.2,0c-0.3-0.1-0.6-0.2-0.9-0.3
								c-0.1-0.1-0.1-0.1-0.2-0.1c-0.3-0.2-0.7-0.3-1-0.5L5.1,496.4c-1.3-0.7-1.9-1.7-1.9-2.7v10.7c0,1,0.6,2,1.9,2.7l22.1,12.3
								c0.2,0.2,0.6,0.4,0.9,0.5c0.1,0,0.1,0,0.1,0c0.1,0.1,0.1,0.1,0.2,0.1c0.2,0.1,0.4,0.1,0.6,0.2c0.1,0,0.2,0.1,0.3,0.1
								s0.1,0,0.2,0s0.1,0,0.2,0c0.3,0,0.5,0.1,0.7,0.1c0,0,0.1,0,0.2,0s0.1,0,0.2,0c0,0,0.1,0,0.2,0c0.3,0,0.5,0,0.7,0
								c0.1,0,0.1,0,0.2,0s0.1,0,0.2,0c0.1,0,0.2,0,0.3,0c0.2,0,0.5,0,0.7,0h0.1c0.1,0,0.1,0,0.2,0c0.2,0,0.4-0.1,0.6-0.1
								c0-0.1,0.1-0.1,0.2-0.1c0.3-0.1,0.5-0.1,0.7-0.2c0.1,0,0.2-0.1,0.3-0.1c0.1,0,0.2-0.1,0.3-0.1c0.1,0,0.2-0.1,0.3-0.1
								c0.3-0.1,0.6-0.2,0.9-0.4L108.9,476.9z"/>
						</g>
					</g>
				</g>
				<g>
					<polygon class="st9" points="104.2,451.5 101.6,453.1 98.9,451.5 101.5,449.9 					"/>
				</g>
				<g>
					<polygon class="st9" points="109.3,454.4 106.6,456 103.9,454.4 106.6,452.9 					"/>
				</g>
			</g>
			<g>
				<g>
					<g>
						<g class="st0">
							<g>
								<path class="st19" d="M130.4,462.9c-2.6-1.5-6.7-1.5-9.3,0l-24.6,14.7c-2.6,1.5-2.6,3.9,0,5.4l22.1,12.3
									c2.6,1.5,6.7,1.5,9.3,0l24.6-14.7c2.6-1.5,2.6-3.9,0-5.4L130.4,462.9z"/>
							</g>
							<path class="st20" d="M152.6,491.5L152.6,491.5L152.6,491.5c0.2,0,0.3-0.1,0.4-0.2c0.2-0.1,0.4-0.2,0.5-0.3l0,0
								c0.1-0.1,0.3-0.2,0.4-0.4c0.1,0,0.1-0.1,0.1-0.1c0.1,0,0.1-0.1,0.1-0.1c0-0.1,0.1-0.1,0.1-0.2c0.1-0.1,0.2-0.3,0.2-0.4
								s0-0.1,0-0.1c0-0.1,0-0.1,0-0.1c0.1,0,0.1-0.1,0.1-0.2s0-0.3,0-0.4s0-0.1,0-0.1v-10.7c0,0.2,0,0.5-0.1,0.7c0,0.1,0,0.1,0,0.1
								c-0.1,0.2-0.2,0.4-0.3,0.6c-0.1,0-0.1,0.1-0.1,0.1c-0.1,0.2-0.3,0.4-0.5,0.6c-0.2,0.1-0.3,0.2-0.5,0.3
								c-0.1,0.1-0.2,0.2-0.4,0.3L128,495.6c-0.3,0.1-0.6,0.3-0.9,0.4c-0.1,0-0.2,0.1-0.3,0.1c-0.2,0.1-0.4,0.1-0.6,0.2
								c-0.3,0.1-0.5,0.2-0.7,0.2c-0.3,0-0.5,0.1-0.8,0.1c-0.1,0-0.1,0-0.2,0c-0.4,0.1-0.7,0.1-1.1,0.1c-0.1,0-0.1,0-0.2,0
								c-0.4,0-0.7-0.1-1.1-0.1c-0.1,0-0.1,0-0.2,0c-0.4-0.1-0.8-0.1-1.1-0.2c-0.1,0-0.1,0-0.2,0c-0.3-0.1-0.6-0.2-0.9-0.3
								c-0.1-0.1-0.1-0.1-0.2-0.1c-0.3-0.2-0.7-0.3-1-0.5l-22.1-12.3c-1.3-0.7-1.9-1.7-1.9-2.7v10.7c0,1,0.6,2,1.9,2.7l22.1,12.3
								c0.2,0.2,0.6,0.4,0.9,0.5c0.1,0,0.1,0,0.1,0c0.1,0.1,0.1,0.1,0.2,0.1c0.2,0.1,0.4,0.1,0.6,0.2c0.1,0,0.2,0.1,0.3,0.1
								s0.1,0,0.2,0s0.1,0,0.2,0c0.3,0,0.5,0.1,0.7,0.1c0,0,0.1,0,0.2,0s0.1,0,0.2,0c0,0,0.1,0,0.2,0c0.3,0,0.5,0,0.7,0
								c0.1,0,0.1,0,0.2,0s0.1,0,0.2,0s0.2,0,0.3,0c0.2,0,0.5,0,0.7,0h0.1c0.1,0,0.1,0,0.2,0c0.2,0,0.4-0.1,0.6-0.1
								c0-0.1,0.1-0.1,0.2-0.1c0.3-0.1,0.5-0.1,0.7-0.2c0.1,0,0.2-0.1,0.3-0.1s0.2-0.1,0.3-0.1s0.2-0.1,0.3-0.1
								c0.3-0.1,0.6-0.2,0.9-0.4L152.6,491.5z"/>
						</g>
					</g>
				</g>
				<polygon class="st3" points="118,504.2 97.5,492.2 97.5,484.9 118,496.9 				"/>
			</g>
		</g>
		<g>
			<g>
				<g>
					<g class="st0">
						<g>
							<path class="st6" d="M915.2,435.3c-2.4,1.4-2.4,3.6,0,5l96.2,55.9c2.3,1.4,6.2,1.4,8.6,0l57.8-32.7c2.4-1.4,2.4-3.6,0-5
								l-96.2-55.9c-2.3-1.4-6.2-1.4-8.6,0L915.2,435.3z"/>
						</g>
						<path class="st7" d="M915.5,612.6L915.5,612.6C915.4,612.6,915.4,612.6,915.5,612.6c-0.2,0-0.3-0.1-0.4-0.2
							c-0.1-0.1-0.3-0.2-0.4-0.3l0,0c-0.2-0.1-0.3-0.3-0.4-0.4c-0.1,0-0.1-0.1-0.1-0.1c-0.1,0-0.1-0.1-0.1-0.1
							c0-0.1-0.1-0.1-0.1-0.2c-0.1-0.1-0.2-0.2-0.2-0.3s0-0.1,0-0.1c0-0.1,0-0.1,0-0.1c-0.1-0.1-0.1-0.1-0.1-0.2c0-0.2,0-0.3,0-0.4
							s0-0.1,0-0.1V438c0,0.2,0,0.4,0.1,0.6c0,0.1,0,0.1,0,0.1c0.1,0.2,0.2,0.4,0.3,0.6c0.1,0,0.1,0.1,0.1,0.1
							c0.1,0.1,0.3,0.3,0.5,0.5c0.1,0.1,0.2,0.2,0.4,0.3c0.1,0.1,0.3,0.2,0.4,0.3l96.2,55.9c0.3,0.1,0.6,0.3,0.9,0.4
							c0,0,0.1,0.1,0.2,0.1c0.2,0.1,0.4,0.1,0.6,0.2c0.2,0.1,0.4,0.2,0.6,0.2s0.5,0.1,0.7,0.1c0.1,0,0.1,0,0.2,0
							c0.3,0.1,0.7,0.1,1,0.1c0.1,0,0.1,0,0.2,0c0.3,0,0.7-0.1,1-0.1c0.1,0,0.1,0,0.2,0c0.4-0.1,0.7-0.1,1-0.2c0.1,0,0.1,0,0.2,0
							c0.2-0.1,0.5-0.2,0.8-0.3c0.1-0.1,0.2-0.1,0.2-0.1c0.3-0.1,0.6-0.2,0.9-0.4l57.8-32.7c1.2-0.7,1.8-1.6,1.8-2.5v172.1
							c0,0.9-0.6,1.8-1.8,2.5l-57.8,32.7c-0.3,0.1-0.6,0.3-0.9,0.4c-0.1,0-0.1,0-0.1,0c-0.1,0.1-0.1,0.1-0.2,0.1
							c-0.1,0.1-0.3,0.1-0.5,0.2c-0.1,0.1-0.2,0.1-0.3,0.1c-0.1,0-0.1,0-0.2,0c-0.1,0-0.1,0-0.2,0c-0.2,0-0.4,0.1-0.6,0.1
							c0,0-0.1,0-0.2,0c-0.1,0-0.1,0-0.2,0c-0.1,0-0.1,0-0.2,0c-0.2,0-0.4,0-0.6,0c-0.1,0-0.1,0-0.2,0c-0.1,0-0.1,0-0.2,0
							c-0.1,0-0.2,0-0.3,0c-0.2,0-0.5,0-0.7,0h-0.1c-0.1,0-0.1,0-0.2,0c-0.2-0.1-0.3-0.1-0.5-0.1c-0.1-0.1-0.1-0.1-0.2-0.1
							c-0.2-0.1-0.4-0.1-0.6-0.2c-0.1,0-0.2-0.1-0.3-0.1c-0.1,0-0.2-0.1-0.3-0.1c0,0-0.1-0.1-0.2-0.1c-0.3-0.1-0.6-0.2-0.9-0.4
							L915.5,612.6z"/>
						<path class="st2" d="M913.3,437.6v172.1c0,0.1,0,0.1,0,0.1c0,0.2,0,0.3,0,0.4c0.1,0.1,0.1,0.1,0.1,0.2s0,0.1,0,0.1
							c0,0.1,0,0.1,0,0.1c0.1,0.1,0.1,0.2,0.2,0.3c0,0.1,0.1,0.1,0.1,0.2c0.1,0,0.1,0.1,0.1,0.1c0.1,0,0.1,0.1,0.1,0.1
							c0.1,0.1,0.3,0.3,0.4,0.4l0,0c0.1,0.1,0.3,0.2,0.4,0.3c0.1,0.1,0.2,0.1,0.3,0.2h0.1l0,0l96.2,55.9c0.3,0.1,0.6,0.3,0.9,0.4
							c0,0,0.1,0.1,0.2,0.1c0.1,0,0.2,0.1,0.3,0.1c0.1,0.1,0.2,0.1,0.3,0.1c0.2,0.1,0.4,0.2,0.6,0.2c0.1,0.1,0.1,0.1,0.2,0.1
							c0.2,0.1,0.3,0.1,0.5,0.1c0.1,0,0.1,0,0.2,0h0.1c0.2,0,0.5,0,0.7,0c0.1,0,0.2,0,0.3,0c0.1,0,0.1,0,0.2,0c0.1,0,0.1,0,0.2,0
							c0.2,0,0.4,0,0.6,0c0.1,0,0.1,0,0.2,0c0.1,0,0.1,0,0.2,0c0.1,0,0.1,0,0.2,0V497.1c-0.1,0-0.1,0-0.2,0c-0.1,0-0.1,0-0.2,0
							c-0.3,0.1-0.7,0.1-1,0.1c-0.1,0-0.1,0-0.2,0c-0.3,0-0.7-0.1-1-0.1c-0.1,0-0.1,0-0.2,0c-0.2,0-0.5-0.1-0.7-0.1
							c-0.2-0.1-0.4-0.1-0.6-0.2s-0.4-0.1-0.6-0.2c0,0-0.1-0.1-0.2-0.1c-0.3-0.1-0.6-0.2-0.9-0.4l-96.2-55.9
							c-0.2-0.1-0.3-0.2-0.4-0.3s-0.3-0.2-0.4-0.3c-0.2-0.1-0.4-0.3-0.5-0.5c-0.1,0-0.1-0.1-0.1-0.1c-0.1-0.1-0.2-0.3-0.3-0.6
							c0.1,0.1,0.1,0.1,0,0C913.5,438.2,913.4,438,913.3,437.6z"/>
					</g>
				</g>
			</g>
			<g>
				<path class="st8" d="M1004,566.4c-0.1,25.6-18.2,36-40.5,23.1c-22.3-12.9-40.3-44.1-40.2-69.7c0.1-25.6,18.2-36,40.5-23.1
					C986.1,509.6,1004.1,540.7,1004,566.4z"/>
			</g>
			<g>
				<path class="st2" d="M995.7,561.6c0,20.4-14.5,28.6-32.2,18.4c-17.7-10.3-32.1-35.1-32-55.5c0-20.4,14.5-28.6,32.2-18.4
					C981.5,516.4,995.8,541.2,995.7,561.6z"/>
			</g>
			<g>
				<path class="st8" d="M976.6,550.6c0,8.2-5.8,11.5-13,7.4c-7.1-4.2-12.9-14.2-12.9-22.4s5.8-11.5,13-7.4
					C970.8,532.3,976.6,542.3,976.6,550.6z"/>
			</g>
			<g>
				<path class="st8" d="M976.3,627.9c0,3.8-2.7,5.3-5.9,3.4c-3.3-1.8-5.9-6.4-5.9-10.1c0-3.8,2.7-5.3,5.9-3.4
					C973.7,619.7,976.3,624.2,976.3,627.9z"/>
			</g>
			<g>
				<path class="st8" d="M957.3,617.4c0,3.8-2.7,5.3-5.9,3.4c-3.3-1.8-5.9-6.4-5.9-10.1c0-3.8,2.7-5.3,5.9-3.4
					C954.7,609.1,957.3,613.6,957.3,617.4z"/>
			</g>
		</g>
		<g>
			<path class="st21" d="M184.7,86.3c53.8-19.3,94,37,94,37C247.9,31.3,184.7,86.4,184.7,86.3z"/>
			<path class="st21" d="M259.4,55.1c-27.1-30.8-65.3-11.5-65.3-11.5c69.8,2.5,84.6,79.7,84.6,79.7S286.5,85.9,259.4,55.1z"/>
			<path class="st21" d="M372.7,86.3c-53.8-19.3-94,37-94,37C309.5,31.3,372.8,86.4,372.7,86.3z"/>
			<path class="st21" d="M298,55.1c27.1-30.8,65.3-11.5,65.3-11.5c-69.8,2.5-84.6,79.7-84.6,79.7S270.9,85.9,298,55.1z"/>
		</g>
		<g id="XMLID_30_">
			<g id="XMLID_124_">
				<polygon id="XMLID_154_" class="st22" points="208.7,661.8 441.7,796.3 441.7,801.1 208.7,666.7 				"/>
				<path id="XMLID_153_" class="st23" d="M510.8,397.7v-54.3c0-18.5,5-36.3,13.9-51.8s21.9-28.6,37.9-37.9l0,0l233,134.5
					c-16,9.2-29,22.4-37.9,37.9c-9,15.5-13.9,33.3-13.9,51.8v54.3c0,37-19.8,71.2-51.8,89.7c-5.6,3.2-11.5,4.7-17.2,4.7
					c-7.6,0-14.9-2.6-20.8-7c-8.2-6.1-13.8-15.9-13.8-27.6v-49.8c0-12.9-6.7-23.4-16.3-29.3c-0.8-0.5-1.6-1-2.4-1.4l-25.7-14.8
					l-94.9-54.8C507.3,428.3,510.8,413.3,510.8,397.7z"/>
				<g id="XMLID_142_">
					<line id="XMLID_152_" class="st24" x1="753.9" y1="395.4" x2="557.8" y2="282.2"/>
					<line id="XMLID_151_" class="st24" x1="737.9" y1="415.9" x2="541.7" y2="302.6"/>
					<line id="XMLID_150_" class="st24" x1="727.4" y1="439.7" x2="531.3" y2="326.4"/>
					<line id="XMLID_149_" class="st24" x1="723.2" y1="465.7" x2="527.1" y2="352.5"/>
					<line id="XMLID_148_" class="st24" x1="723.2" y1="492.1" x2="527" y2="378.8"/>
					<line id="XMLID_147_" class="st24" x1="723.2" y1="518.4" x2="527" y2="405.1"/>
					<line id="XMLID_146_" class="st24" x1="721" y1="544.7" x2="524.8" y2="431.5"/>
					<line id="XMLID_145_" class="st24" x1="712.4" y1="569.3" x2="516.3" y2="456.1"/>
					<line id="XMLID_144_" class="st24" x1="698.1" y1="591" x2="501.9" y2="477.7"/>
					<line id="XMLID_143_" class="st24" x1="678.5" y1="608.5" x2="482.4" y2="495.3"/>
				</g>
				<path id="XMLID_140_" class="st25" d="M484.9,771.2c32.1-18.5,51.8-52.7,51.8-89.7v-79.8c0-14,2.8-27.7,8.1-40.2
					c1.6-4,3.6-7.9,5.7-11.6c8.9-15.5,21.9-28.7,37.9-37.9c0.7-0.4,1.4-0.8,2.1-1.1c6.1-3,12.4-4,18.5-3.4c0.6,0,1.1,0.1,1.7,0.2
					c0.5,0.1,1.1,0.2,1.6,0.3c0.2,0,0.2,0,0.3,0c0.5,0.1,0.9,0.2,1.4,0.3c0.6,0.1,1.1,0.2,1.6,0.4c0.4,0.1,0.7,0.3,1.1,0.4
					c0.3,0,0.5,0.1,0.7,0.2c0.4,0.1,0.7,0.2,1.1,0.4c1,0.4,2,0.9,3,1.4c0.2,0.1,0.3,0.2,0.5,0.3c0.3,0.2,0.7,0.4,1,0.6
					c0.3,0.2,0.6,0.4,0.9,0.6c1.1,0.7,2.2,1.5,3.3,2.3l0.1,0.1c0.5,0.5,1.1,0.9,1.6,1.4l0,0c0.4,0.4,0.7,0.7,1.1,1.1
					c0.2,0.2,0.4,0.4,0.6,0.6c1,1,1.9,2.2,2.8,3.3c0.3,0.4,0.7,0.9,1,1.4c0.4,0.6,0.7,1.2,1.1,1.8c0,0.1,0,0.1,0,0.1
					c0.4,0.6,0.7,1.2,1,1.8c0.4,0.8,0.8,1.6,1.1,2.5c0.2,0.5,0.4,0.9,0.5,1.3c0.1,0.2,0.1,0.4,0.2,0.6c0.2,0.6,0.4,1.2,0.6,1.9
					c0.2,0.6,0.4,1.3,0.5,1.9c0,0.1,0,0.1,0,0.1c0.2,0.4,0.2,0.9,0.3,1.3c0.1,0.2,0.1,0.3,0.1,0.5c0.1,0.5,0.2,0.9,0.2,1.3
					c0,0.5,0.1,1.1,0.1,1.7c0.1,0.8,0.1,1.6,0.1,2.4v49.8c0,0.7,0.1,1.4,0.1,2.1c0,0.1,0,0.2,0,0.3c0,0.6,0,1.1,0.1,1.6
					c0,0.3,0.1,0.5,0.1,0.8c0,0.5,0.1,1,0.2,1.4c0,0.2,0.1,0.3,0.1,0.4c0,0.6,0.2,1.1,0.3,1.7c0.1,0.1,0.1,0.2,0.1,0.3
					c0.1,0.5,0.2,1,0.4,1.5c0,0.2,0.1,0.5,0.2,0.7c0.3,1,0.7,2,1.1,3c0.5,1.2,1.1,2.4,1.7,3.5c0.3,0.4,0.5,0.9,0.8,1.3
					c0.3,0.5,0.6,0.9,0.9,1.4c0.3,0.3,0.5,0.7,0.8,1c0.4,0.5,0.8,1,1.2,1.5c0.1,0,0.1,0.1,0.1,0.1c0.7,0.8,1.5,1.6,2.3,2.4
					c0.1,0.1,0.2,0.2,0.3,0.3c0.4,0.5,0.9,0.9,1.4,1.3c0.4,0.4,0.9,0.8,1.4,1.1c0.1,0.1,0.1,0.1,0.1,0.1c5.9,4.5,13.2,7,20.8,7
					c5.7,0,11.6-1.5,17.2-4.7c32.1-18.5,51.8-52.7,51.8-89.7v-54.3c0-18.5,5-36.3,13.9-51.8c8.9-15.5,21.9-28.7,37.9-37.9v5
					c-29.4,18-47.5,50.2-47.5,84.7v54.3c0,38.3-20.7,74.1-53.9,93.3c-12.2,7-26.6,7-38.8,0c-0.8-0.5-1.5-0.9-2.2-1.4H653
					c-10.7-7.2-17.1-19.1-17.1-32.2v-49.8c0-10.9-5.6-20.7-15.1-26.2c-9.5-5.5-20.8-5.5-30.3,0c-19.1,11-33.7,28.1-42,47.9
					c-4.9,11.9-7.6,24.8-7.6,38.1v79.8c0,38.3-20.7,74.1-53.9,93.3l-43.2,25l-2.1,1.2v-4.9L484.9,771.2z"/>
				<path id="XMLID_139_" class="st26" d="M590.6,516c9.5-5.5,20.8-5.5,30.3,0c9.4,5.4,15.1,15.3,15.1,26.2V592
					c0,13.1,6.3,25,17.1,32.2l-104.6-60.3C556.8,544,571.4,527,590.6,516z"/>
				<path id="XMLID_137_" class="st27" d="M251.8,636.9c32.1-18.5,51.8-52.7,51.8-89.7v-79.7c0-18.5,5-36.3,13.9-51.8
					s21.9-28.7,37.9-37.9c11.5-6.6,24.5-5.8,34.5,0l0.3,0.2l110.5,63.8l94.9,54.8l25.7,14.8c-9.8-5.1-22.1-5.5-33,0.8
					c-16,9.3-29,22.4-37.9,37.9c-2.1,3.8-4,7.6-5.7,11.6c-5.3,12.5-8.1,26.1-8.1,40.2v79.8c0,37-19.8,71.2-51.8,89.7l-43.1,24.9
					l-233-134.5L251.8,636.9z"/>
				<line id="XMLID_135_" class="st28" x1="554.4" y1="508.1" x2="464.9" y2="456.1"/>
				<line id="XMLID_134_" class="st28" x1="513.5" y1="656.6" x2="317.3" y2="543.4"/>
				<line id="XMLID_133_" class="st28" x1="513.5" y1="681.8" x2="317.3" y2="568.5"/>
				<line id="XMLID_132_" class="st28" x1="513.5" y1="628.7" x2="317.3" y2="515.4"/>
				<line id="XMLID_130_" class="st28" x1="514.4" y1="602.8" x2="318.2" y2="489.5"/>
				<line id="XMLID_129_" class="st28" x1="516.5" y1="576.1" x2="427" y2="524.1"/>
				<line id="XMLID_128_" class="st28" x1="523.1" y1="549.2" x2="433.6" y2="497.2"/>
				<line id="XMLID_127_" class="st28" x1="536.9" y1="526.3" x2="447.4" y2="474.3"/>
				<path id="XMLID_125_" class="st29" d="M315.1,469.5c0.7-16.8,6.1-32,14.4-46.3c9-15.5,21.3-30.1,37.3-39.3l93.7,54.5
					c-16.1,9.3-24.6,20-33.5,35.5c-8.3,14.4-17,32.9-18.2,50.2L315.1,469.5z"/>
			</g>
			<g class="st30">
				<g id="XMLID_160_">
					<g id="XMLID_164_">
						<path id="XMLID_167_" class="st31" d="M605.3,158l-66.9-38.6c-3.3-1.9-6-0.3-6,3.5l-0.1,57.7c0,3.8,2.7,8.5,6,10.4l67,38.6
							c3.3,1.9,6,0.3,6-3.5l-0.1-57.7C611.2,164.6,608.5,159.9,605.3,158z"/>
						<polygon id="XMLID_166_" class="st31" points="534.4,133.4 533.8,119.1 522.8,125.4 						"/>
						<polygon id="XMLID_165_" class="st31" points="599,224.1 609.4,230.1 598.1,236.6 						"/>
					</g>
					<polygon id="XMLID_163_" class="st31" points="583,236.4 583,210.4 571.7,216.8 571.7,242.9 					"/>
					<path id="XMLID_162_" class="st27" d="M593.9,164.6L527,125.8c-3.3-1.9-6-0.3-6,3.5v57.8c0,3.8,2.7,8.5,6,10.4l66.9,38.7
						c3.3,1.9,6,0.3,6-3.5V175C599.9,171.2,597.2,166.5,593.9,164.6z"/>
					<polygon id="XMLID_161_" class="st27" points="543.5,200.6 571.7,242.9 571.7,216.8 					"/>
				</g>
				<g id="XMLID_156_">
					<g>
						<path id="XMLID_22_" class="st32" d="M553.3,191.2c-6.1-8.6-13.3-20.6-13.3-28.4c0-5.5,4.4-7.4,9.9-4.2c5,2.9,9.2,10.8,9.8,16
							c0.6-4.5,4.8-7.6,9.8-4.7c5.5,3.1,9.9,10.1,9.9,15.6c0,7.8-7.3,11.4-13.4,13l-6.4,1.7L553.3,191.2z"/>
					</g>
				</g>
			</g>
			<g>
				<g>
					<polygon id="XMLID_121_" class="st33" points="405.7,659.3 452.6,684.9 431,636.3 					"/>
					<polygon id="XMLID_120_" class="st34" points="405.7,659.3 415.9,650.1 452.6,684.9 					"/>
					<polygon id="XMLID_119_" class="st35" points="439.5,677.8 443.6,678.4 442.2,675.8 445.3,676.9 444.7,673.8 447,675.4 
						446.9,672.2 452.6,684.9 					"/>
					<path id="XMLID_117_" class="st36" d="M197.5,382.5l7.1,7.6l226.5,246.3c0.8,5.4-3.6,13.1-10.2,18.1c-4.4,3.3-9.7,5.4-15.2,4.8
						L178.3,412l-3.7-4l-3.1-3.3C175.9,409.8,201.8,387.7,197.5,382.5z"/>
					<path id="XMLID_115_" class="st37" d="M188.2,403.2l232.7,251.3c-4.4,3.3-9.7,5.4-15.2,4.8L178.2,412l-3.7-4L188.2,403.2z"/>
					<path id="XMLID_114_" class="st38" d="M183.3,417.5L183.3,417.5c2.1,1.8,7.7-1,13.2-5.2c7.6-5.8,14.9-14.4,12.4-17.3l1.8,2
						l5.1,5.4c2.6,2.9-4.8,11.5-12.4,17.3c-5.7,4.4-11.6,7.2-13.5,5l-6.8-7.4C183.1,417.4,183.2,417.5,183.3,417.5z"/>
					<path id="XMLID_113_" class="st39" d="M178,411.8c4.4,5.2,30.3-17.2,25.9-22.3l6.8,7.4c4.4,5.1-21.5,27.4-25.9,22.3L178,411.8z
						"/>
					<path id="XMLID_112_" class="st38" d="M197.5,382.5l6.8,7.3c0.1,0.1,0.2,0.2,0.2,0.3c3.2,5.7-22,27-26.3,21.9l-6.7-7.3
						C175.9,409.8,201.8,387.7,197.5,382.5z"/>
					<path id="XMLID_111_" class="st40" d="M183.8,398.8l1.1,1.2l6.5,7l0.3,0.3l4.9,5.2l1.7,1.8l5.1,5.5c-5.7,4.4-11.6,7.2-13.5,5
						l-5.1-5.6l-1.5-1.6l0,0l-5.1-5.5l-0.2-0.3l-6.5-7.1L183.8,398.8z"/>
					<path id="XMLID_110_" class="st41" d="M143.1,363.8c5.1-9.6,21.1-18.7,26.9-11.2l27.5,29.9l0,0c2.5,3-5,11.5-12.6,17.3
						c-5.7,4.3-11.5,7.1-13.4,4.9l-28.6-31.1C140.7,370.8,141.1,367.2,143.1,363.8z"/>
					<path id="XMLID_109_" class="st42" d="M143.1,363.7c-1.6,4-1.4,7.5,2.4,8.8c3.7,1.3,11.7-4.2,11.7-4.2l27.7,31.5
						c-5.7,4.3-11.5,7.1-13.4,4.9l-28.6-31.1C140.7,370.8,141.1,367.2,143.1,363.7z"/>
				</g>
				<g>
					<path id="XMLID_108_" class="st43" d="M287.9,448.4c0,0,4.6-0.1,5.3-1.1c0.7-0.9-4.2-14.8-4.2-14.8L287.9,448.4z"/>
					<path id="XMLID_107_" class="st44" d="M295.4,442.8c-2.1,2.9-7.5,2.1-7.5,2.1v-13.4l8.7,0.5C296.6,432,297.5,439.8,295.4,442.8
						z"/>
					<path id="XMLID_105_" class="st32" d="M208.5,476.7c0.8-5.5,2.8-11.2,6.9-14.1c6.6-4.6,13.3-0.6,13.3-0.6l-17.5,37.3
						c0,0-2.2-7.6-2.9-13.8C208,483.2,208,480,208.5,476.7z"/>
					<path id="XMLID_104_" class="st45" d="M208.6,476.6c0,0-0.4,7.4,4.2-1.3c4.6-8.6,9.3-11.3,9.3-11.3l6.6-2l-17.5,37.3
						c0,0-2.2-7.6-2.9-13.8C208,483.2,208,480,208.6,476.6z"/>
					<path id="XMLID_102_" class="st46" d="M243,449c-0.4-2.1-1-4.7-1.5-7.5c-2.2-11.5-3.9-27.3,6.8-34.2
						c13.3-8.6,24.5-1.1,24.5-1.1c7.8,4.1,16,6,16.2,24.2v1.1c0,0.3,0,0.7,0,1c0,4-0.1,7.7-0.2,11.1c0,0.7-0.1,1.4-0.1,2.1
						c-0.6,10.7-2,17.7-5.2,18.9c-0.3,0.1-0.7,0.2-1,0.2c-5.3,0.1-11.8-1.9-13.8-1.1S263,474,263,474l-22.1-11.4
						C240.9,462.6,245,459.8,243,449z"/>
					<path id="XMLID_101_" class="st43" d="M263.6,433c-2.3,2-0.6,8.2-0.6,8.2c-2.4-3.3-2.6-8.7-0.3-10.3c3-2.1,4.8,2,4.8,2
						S265.3,431.5,263.6,433z"/>
					<path id="XMLID_100_" class="st43" d="M243,449c-0.4-2.1-1-4.7-1.5-7.5l24,5.5c0,0,3,10.7,5.6,12.3c2.5,1.6,12.4,5.3,12.4,5.3
						c-0.3,0.1-0.7,0.2-1,0.2c-5.3,0.1-11.8-1.9-13.8-1.1S263,474,263,474l-22.1-11.4C240.9,462.6,245,459.8,243,449z"/>
					<path id="XMLID_99_" class="st47" d="M175.5,710.4c2.1-6.5,5.4-16.1,8.2-23.2c4.3-11.3,6.9-17.4,16.1-23.2c0,0,1.8-50,2.3-70
						c0.6-25.6,6.7-32.7,6.7-32.7L267,574c0,0,4,27,6.6,47c2.6,19.9,4.5,39,5.4,46.7s-0.7,13.2-1.3,25s-0.1,55.8-0.1,55.8
						s-3.7,2.6-8.6,3.4c-3.5,0.6-7.6,0.3-11.5-2.4c0,0-3.3-15.5-7.3-34.5c-2.3-10.8-3.2-18.2-3.2-24.3c0-4.6,0.6-8.4,1.4-12.4
						l-13.9-46.2c0,0-6.1,36.1-7.3,40.6s-38.5,56.7-38.5,56.7s-9.2,0.7-15.3-11.7C173.5,717.1,174.3,714.3,175.5,710.4z"/>
					<path id="XMLID_98_" class="st48" d="M175.3,710.5c1.9,2.9,10.2,14.2,21.1-1.2c12.4-17.5,25.6-39.1,25.5-48.7
						c-0.1-9.7,0-45.2,0-45.2c-6.6-6.4-12.2-16.8-12.5-17.5c7.2,8.7,19.2,14.5,19.2,14.5l5.9,19.7c0,0-6.1,36.1-7.3,40.6
						s-38.5,56.7-38.5,56.7s-9.2,0.7-15.3-11.7C173.5,717.1,174.3,714.3,175.3,710.5z"/>
					<g id="XMLID_95_">
						<path id="XMLID_97_" class="st49" d="M239,444.3c1.4,4.3,2.2,6,2.5,8.5c0.5,3.1,3.4,4.5,4.8,3.4c0.6-0.6,1.6-2,2.4-3.3
							c0,0-0.3,1.9-0.4,2.9c-0.4,3,3.7,3.8,6.2,1.4c1.2-1.2,1.9-3,1.9-3s0.4,4.5,0.9,6.8s7.6-1.1,8.2-14.1c0,0-2,0.5-3.8-2.1
							c-1.8-2.7-4.4-7.1-2.9-11.6c1.3-3.9,4.7-6.9,9-4.2c0.6,0.4,1.3,0.9,1.9,1.5c0.2,0.2,0.3,0.5,0.4,0.8c0.9,2.5,1.5,7.6,3.2,8.3
							c2,0.9,3.3-1.8,3.3-6.2c0-0.6,0-1.2,0-1.7c0-0.7-0.1-1.5-0.1-2.1c-0.1-2.3-0.3-3.7-0.3-3.7s5.6-2.2,8.9-7.9
							c0,0,10.9-0.5,15.1-11.2c4.3-10.7-1-8-4.7-5.3c-3.7,2.7-10.2,4.4-10.2,4.4s5.2-11.2,0.6-16.8c-4.7-5.5-3,10.1-13.4,10.8
							c-10.3,0.8-10.6-3.3-20.5-0.2c-9.9,3.1-10.8,10.5-10.8,10.5s-3.8,0.7-6,6.7S236.6,437.3,239,444.3z"/>
						<path id="XMLID_96_" class="st50" d="M267.8,429.1c0.6,0.4,1.3,0.9,1.9,1.5c0.2,0.2,0.3,0.5,0.4,0.8l6.5,0.4l12.5,0.7l6.6,0.4
							c0.1,1.7,0.1,5.7-0.6,8.5c-0.7,2.7-5.5,2.3-6.3,2.2c0,0.7-0.1,1.4-0.1,2.1c0.4,0.1,0.9,0.1,1.6,0.1c2.3,0,6.1-0.5,6.9-3.8
							c1-4.1,0.6-9.9,0.6-10.2l-0.1-0.9l-8.6-0.5l-12.6-0.7L267.8,429.1z"/>
					</g>
					<path id="XMLID_93_" class="st51" d="M235.8,464.8c-4.9-2.5-11.7-6-17.8,3.8c-6,9.9-7.5,30.2-7.3,48.3
						c0.2,18.1-2.7,35.6-2.9,40.3c-0.2,4.7,3.5,11.5,22.8,18.1s37.4,0.4,37.1-2.5c-0.3-2.9-1.7-11.5-0.8-17.8
						c0.9-6.3,3.4-13.8,9.1-23.6s11.9-30.7,9.6-37s-12-11-15.5-13.2C270.1,481.2,240.7,467.4,235.8,464.8z"/>
					<path id="XMLID_92_" class="st52" d="M187,734.4L187,734.4C187,734.3,187.1,734.3,187,734.4C187.1,734.3,187.1,734.4,187,734.4
						z"/>
					<path id="XMLID_91_" class="st52" d="M155.9,728.6c5.6-2.7,6.9-2.3,12.1-7.1l6.7,4.6l12.2,8.4c-0.6,0.7-3.3,3.8-6.6,8.4
						c-1.4,2-1.4,11.3-1.5,17c-0.1,5.7,0.6,5.7,0.6,5.7s8.1,6.9,4,17.8c0,0-4.1,4.3-9.5,2.2c-0.1,0-0.1,0-0.1,0
						c-0.3-0.2-0.7-0.3-1-0.5c-5.9-3.2-20.4-11.6-20.2-12.5c0.2-0.9-0.9-38.9-0.9-38.9S150.4,731.2,155.9,728.6z"/>
					<path id="XMLID_90_" class="st53" d="M164,741.8c4.4-2.3,5-4.1,5.3-9.1c0.2-2.9,3-5.2,5.4-6.7l12.2,8.4
						c-0.6,0.7-3.3,3.8-6.6,8.4c-1.4,2-1.4,11.3-1.5,17c-0.1,5.7,0.6,5.7,0.6,5.7s8.1,6.9,4,17.8c0,0-4.1,4.3-9.5,2.2
						c-0.1,0-0.1,0-0.1,0c-2.2-1.3-3.6-4.4-5.3-9.1C165.7,768.8,160.4,743.7,164,741.8z"/>
					<path id="XMLID_89_" class="st54" d="M176.5,770.3c-0.8,0-1.5-0.7-1.5-1.5s0.7-1.5,1.5-1.5s1.5,0.7,1.5,1.5
						S177.3,770.3,176.5,770.3z"/>
					<circle id="XMLID_88_" class="st54" cx="175.6" cy="761.3" r="1.5"/>
					<path id="XMLID_87_" class="st54" d="M175.2,752.7c-0.8,0-1.5-0.7-1.5-1.5s0.7-1.5,1.5-1.5s1.5,0.7,1.5,1.5
						S176,752.7,175.2,752.7z"/>
					<path id="XMLID_86_" class="st55" d="M188.8,766.3C188.8,766.4,188.9,766.4,188.8,766.3c0.8,0.4,1.6,0.8,2.3,1.3
						c5.9,3.7,5.3,8.8,5.3,8.8s-2.7,6-13,6.9c1.2-5.6,0.6-10.7-2-15.1l0,0c-0.5-0.9-1.2-1.8-1.9-2.7
						C179.5,765.5,183.7,764.3,188.8,766.3z"/>
					<path id="XMLID_85_" class="st56" d="M181.5,768.2c4.1,2.1,9.6,8.4,10.8,5.5c1.1-2.8-2.6-6.7-3.4-7.3c0.7,0.3,1.5,0.7,2.2,1.2
						c5.9,3.7,5.3,8.8,5.3,8.8s-2.7,6-13,6.9C184.6,777.7,184,772.7,181.5,768.2z"/>
					<path id="XMLID_84_" class="st57" d="M160.2,738.4c6.1,6,7,14.5,7.5,27.6c0.5,13.2,4.3,22.3,4.3,22.3s-19.3-9-21.7-11.2
						c-2.5-2.2-2-4.9-1.1-10.8c0.8-6-0.1-8.5-1.8-15.6c-1.7-7.1-2.4-14.6,0.3-15.6C147.7,735.1,154,732.3,160.2,738.4z"/>
					<path id="XMLID_83_" class="st55" d="M196,782.3c-5.3,4.4-13.8,7.8-21.8,6.6s-8.5-12.8-8.7-22.9c-0.3-10.1-1.2-21.2-6.6-26.4
						c-5.3-5.2-11.2-4.5-11.2-4.5c0.8-1.2,3.5-3.2,4-2.9c2.7-0.6,9.4,2.1,13.4,8.3c4,6.1,4.4,20.2,5.3,30.4s1.3,13.5,9.9,12.5
						s16.1-7,16.1-7S199.1,779.7,196,782.3z"/>
					<path id="XMLID_82_" class="st55" d="M309.8,758.6c1.5,0.2,2.9,0.6,4.1,1l0,0c7.2,2.4,9.7,7.3,9.3,11.7
						c0.4,1.4,0.4,2.3,0.4,2.3s-0.1,5.4-13.9,7.5L288.6,765l-0.4-0.3C288.2,764.7,294.9,755.9,309.8,758.6z"/>
					<path id="XMLID_81_" class="st56" d="M316.7,772.3c3.3-2.8,3-9.4-2.8-12.7c7.2,2.4,9.7,7.3,9.3,11.7c0.4,1.4,0.4,2.3,0.4,2.3
						s-0.1,5.4-13.9,7.5L288.6,765C299.2,761.7,313.3,775.1,316.7,772.3z"/>
					<path id="XMLID_80_" class="st52" d="M255.1,766.2c0.8-3.4,0.6-7.8,0.7-11.5l13.1-0.4L279,754c0,0,0.7,4.3,2.3,7.4
						c1.6,3,5.2,3.4,5.2,3.4c16.9-0.8,21.6,10.2,22.8,14.6c0.3,1,0.4,1.7,0.4,1.7s-6.2,0.3-16,2.6s-12.3,5.8-21.1,5.6
						c-8.8-0.2-17.9-8.7-17.9-8.7C254.2,777.9,254.5,769.6,255.1,766.2z"/>
					<path id="XMLID_79_" class="st53" d="M255.2,766.3c0.8-3.4,0.6-7.8,0.7-11.5l10-0.4c1.5,4,0.9,7.6,0.8,11.2
						c-0.2,5.5-3.4,13.7,6.1,16.3c4.6,1.2,8.7-0.3,16.6-2.4c7.1-1.9,17.8-0.4,19.9-0.1c0.3,1,0.4,1.7,0.4,1.7s-6.2,0.3-16,2.6
						s-12.3,5.8-21.1,5.6c-8.8-0.2-17.9-8.7-17.9-8.7C254.2,777.9,254.5,769.6,255.2,766.3z"/>
					<circle id="XMLID_78_" class="st54" cx="283.3" cy="769.8" r="1.5"/>
					<circle id="XMLID_77_" class="st54" cx="298.5" cy="770.7" r="1.5"/>
					<path id="XMLID_76_" class="st54" d="M290.9,772.8c-0.8,0-1.5-0.7-1.5-1.5s0.7-1.5,1.5-1.5s1.5,0.7,1.5,1.5
						C292.4,772.2,291.7,772.8,290.9,772.8z"/>
					<path id="XMLID_75_" class="st57" d="M254.8,786.8c4.2,3.2,12.8,6.8,18.9,6.5c6.1-0.3,9.4-1.5,16.5-4.9
						c7.1-3.4,14.5-2.4,21.4-3.5c7-1.1,12.6-5.1,12.5-9c-0.1-3.9-1-3.6-1-3.6c-5.4,8.3-13.9,7.9-24.1,9.1c-10.2,1.2-13.7,6-25.6,6.4
						c-11.9,0.5-18.7-6.2-18.7-6.2S253.2,782.7,254.8,786.8z"/>
					<path id="XMLID_74_" class="st55" d="M254.8,785.8c4.2,3.2,12.8,6.8,18.9,6.5c6.1-0.3,9.4-1.5,16.5-4.9
						c7.1-3.4,14.5-2.4,21.4-3.5c7-1.1,12.6-5.1,12.5-9c-0.1-3.9-1-3.6-1-3.6c-5.4,8.3-13.9,7.9-24.1,9.1c-10.2,1.2-13.7,6-25.6,6.4
						c-11.9,0.5-18.7-6.2-18.7-6.2S253.2,781.6,254.8,785.8z"/>
					<path id="XMLID_72_" class="st32" d="M237.9,460.8c2.5-5.2,5.3-2.7,5.3-2.7s2.6,1,6.1,2.7c4.5,2.2,10.6,5.4,14,8.6
						c6.1,5.7,6.8,11.8,6.8,11.8c-7.3-2.4-11-1.6-16.3-2.5c-14.2-2.6-19.1-9.3-19.7-10.2c0.1,0.1,0,0.1,0,0
						C234.1,468.5,235.4,465.9,237.9,460.8z"/>
					<g id="XMLID_65_">
						<path id="XMLID_70_" class="st46" d="M276.9,497.4c3-1.7,5.9-1.6,9,0.2c3.9,2.3,8,7.3,12.8,15c8.5,13.7,22.4,39.9,22.4,39.9
							c2.8,0.3,10.1,1.3,18.2,4.7c13.5,5.6,17.1,1.1,23.2,0.2c6.1-0.9,11.6,8.6,15,13.7s1.5,8.8,1.5,8.8l0,0l-9.1-9.9
							c0,0-8.7,6.5-15.7,5.9c-7.1-0.6-10.5-1.2-18.7-1.6s-23.4-1.8-27.2-4.4c-4.6-3.2-20.9-29.3-27.7-39.9
							C273.9,519.4,265.8,503.7,276.9,497.4z"/>
						<path id="XMLID_69_" class="st43" d="M276.9,497.6c3-1.7,5.9-1.6,9,0.2l0,0c-5,0.1-12.3,7.6,3,31.4
							c15.3,23.8,20.6,33.8,24.2,35.5c3.7,1.7,28.9,5.8,36.8,5.5c7.9-0.3,11.7-6,16.8-4.9c5,1.1,11.9,13.9,12.3,14.6l-9.1-9.9
							c0,0-8.7,6.5-15.7,5.9c-7.1-0.6-10.5-1.2-18.7-1.6s-23.4-1.8-27.2-4.4c-4.6-3.2-20.9-29.3-27.7-39.9
							C273.9,519.4,265.8,503.7,276.9,497.6z"/>
						<path id="XMLID_66_" class="st32" d="M273.2,493.9c1.9-1.4,3.6-2.3,5.2-2.8c5.9-1.7,10.7,2,14.8,6.5
							c5.2,5.8,16.2,21.7,16.2,21.7c2.9,6.5-5.9,15.1-14.3,19.2c-4.9,2.3-9.6,3.1-11.7,1.1c0,0-8.2-12.8-11.5-21
							C268.6,510.4,264.8,500.4,273.2,493.9z"/>
					</g>
					<path id="XMLID_62_" class="st58" d="M254.7,740.4c9.8,2.6,20.1-0.4,24.2-1.8c0.9-0.3,1.8,0.4,1.8,1.3l-0.1,12.1
						c-0.2,1-1.1,1.9-2.5,2.7H278c-6,3.4-20.4,4-23.3-0.2l-1.8-12.6C252.8,740.9,253.7,740.2,254.7,740.4z"/>
					<path id="XMLID_61_" class="st59" d="M254.7,740.4c-0.8,0.5-1.6,2.2,5.2,3.4c6.7,1.1,16-1.4,18.2-2.7c2.2-1.3,2.6-0.6-1.9,2.4
						s-15.1,6.6-13.3,9.2c1.7,2.6,11.2,3.5,15.1,2c-6,3.4-20.4,4-23.3-0.2l-1.8-12.6C252.8,740.9,253.7,740.2,254.7,740.4z"/>
					<path id="XMLID_60_" class="st58" d="M195.6,721.3c-10-2-18-9.1-21-12.2c-0.6-0.6-1.7-0.4-2.1,0.4l-5.2,10.9
						c-0.3,1,0.1,2.2,1,3.5c0.1,0.1,0.1,0.1,0.1,0.1c3.9,5.6,16.6,12.4,21,9.9l7.1-10.6C197,722.5,196.5,721.4,195.6,721.3z"/>
					<path id="XMLID_59_" class="st59" d="M195.6,721.3c0.6,0.8,0.5,2.7-6.1,0.8c-6.7-1.9-13.9-8.2-15.3-10.3s-2-1.7,0.7,3
						c2.7,4.6,10.7,12.4,8,14c-2.7,1.5-11.6-1.8-14.5-4.8c3.9,5.6,16.6,12.4,21,9.9l7.1-10.6C197,722.5,196.5,721.4,195.6,721.3z"/>
					<path id="XMLID_57_" class="st45" d="M273.2,493.9c1.9-1.4,3.6-2.3,5.2-2.8c-4.2,2.1-5.9,8.6,0,20.3
						c5.4,10.8,15.1,24.8,16.7,27.1c-4.9,2.3-9.6,3.1-11.7,1.1c0,0-8.2-12.8-11.5-21C268.6,510.4,264.8,500.4,273.2,493.9z"/>
					<path id="XMLID_55_" class="st45" d="M252.9,473c1.6-2,1.3-8.5-3.5-12.2c4.5,2.2,10.6,5.4,14,8.6c6.1,5.7,6.8,11.8,6.8,11.8
						c-7.3-2.4-11-1.6-16.3-2.5c-14.3-2.5-19.1-9.3-19.7-10.1C238.9,473.9,251.3,474.9,252.9,473z"/>
					<g>
						<path id="XMLID_53_" class="st39" d="M297.6,770.6c1.3,0.8,1.9,0,1.9,0c-5.9-8.9-14.2-6.3-14.2-6.3
							C290.9,765.5,294.7,768.2,297.6,770.6z"/>
						<path id="XMLID_52_" class="st39" d="M289.7,770.8c1.3,1.9,1.6,0.4,1.6,0.4c-1.6-8.3-7.8-7.6-7.8-7.6
							C286.2,765.2,288.1,767.3,289.7,770.8z"/>
						<path id="XMLID_51_" class="st39" d="M282.7,769.6c0.2-4.7-1.9-9.5-1.9-9.5s1-0.1,2.5,2.2s0.7,7.6,0.7,7.6
							C283.9,770.5,282.7,770.4,282.7,769.6z"/>
					</g>
					<g>
						<path id="XMLID_50_" class="st39" d="M176.9,767.3c-1.7,2.1-0.8,2.3,0.3,1.7c2.5-1.5,3-4.1,2.9-5.3c-0.1-1.2-1.2-1.9-1.2-1.9
							S178.6,765,176.9,767.3z"/>
						<path id="XMLID_49_" class="st39" d="M176.2,759.5c-0.9,1-1.9,3,0,2.2s3.5-4.6,3.5-5.5s-0.7-1.5-0.7-1.5
							S177.1,758.6,176.2,759.5z"/>
						<path id="XMLID_48_" class="st39" d="M175.4,750.3c-1.5,1-1.2,1.4,0,1.5c1.2,0.1,5-2.8,5-3.6c-0.1-0.9-0.9-1.3-0.9-1.3
							S176.9,749.3,175.4,750.3z"/>
					</g>
				</g>
			</g>
			<path id="XMLID_47_" class="st53" d="M187,674.4L187,674.4C187,674.3,187.1,674.3,187,674.4C187.1,674.3,187.1,674.4,187,674.4z"
				/>
			<g class="st30">
				<g id="XMLID_174_">
					<g id="XMLID_178_">
						<path id="XMLID_181_" class="st31" d="M738.4,320.7l-0.1,57.7c0,3.8,2.7,5.4,6,3.5l67-38.6c3.3-1.9,6-6.6,6-10.4l-0.1-57.7
							c0-3.8-2.7-5.4-6-3.5l-66.9,38.6C741.1,312.2,738.4,316.9,738.4,320.7z"/>
						<polygon id="XMLID_180_" class="st31" points="826.8,277.6 815.8,271.4 815.3,285.7 						"/>
						<polygon id="XMLID_179_" class="st31" points="751.5,388.8 740.2,382.3 750.6,376.3 						"/>
					</g>
					<polygon id="XMLID_177_" class="st31" points="777.9,395.2 777.9,369.1 766.6,362.6 766.6,388.7 					"/>
					<path id="XMLID_176_" class="st27" d="M749.7,327.3V385c0,3.8,2.7,5.4,6,3.5l66.9-38.7c3.3-1.9,6-6.6,6-10.4v-57.8
						c0-3.8-2.7-5.4-6-3.5l-66.9,38.8C752.4,318.7,749.7,323.4,749.7,327.3z"/>
					<polygon id="XMLID_175_" class="st27" points="777.9,369.1 777.9,395.2 806.1,352.8 					"/>
				</g>
				<g id="XMLID_168_">
					<g>
						<path id="XMLID_71_" class="st22" d="M784.6,329.7c0,0,5-11.4,5.5-13.1c0.5-1.6,0-7.4,0-8.5s4.5-4.1,6-1
							c1.4,3.2,1.6,6.4,0.7,10.6l11-6.4c2.3-1.3,3.3,0.6,3.3,2.1c0,2.1-1.2,4-1.8,4.7c0,0,2.2-0.7,2.2,2.3c0,1.6-1,4-2.7,5.4
							c0,0,0.7,0.5,0.7,2.6c0,1.4-1.5,4.6-3.1,5.5c0,0,0.5,1,0.5,2.6c0,2-1.7,4.9-4,6.3c-2.4,1.4-18.2,10.5-18.2,10.5L784.6,329.7z"
							/>
						<polygon id="XMLID_68_" class="st22" points="774.1,362.7 782,358.2 782,330.5 774.1,335.1 						"/>
					</g>
				</g>
			</g>
		</g>
	</g>
</g>
</svg>
