<svg xmlns="http://www.w3.org/2000/svg" xmlns:xlink="http://www.w3.org/1999/xlink" width="132.3" height="101.902" viewBox="0 0 132.3 101.902">
  <defs>
    <radialGradient id="radial-gradient" cx="0.499" cy="0.498" r="1.862" gradientTransform="matrix(0.268, -0.143, 0.009, 0.226, -0.756, 21.289)" gradientUnits="objectBoundingBox">
      <stop offset="0.005"/>
      <stop offset="0.132" stop-color="#242424"/>
      <stop offset="0.565" stop-color="#989898"/>
      <stop offset="0.863" stop-color="#e2e2e2"/>
      <stop offset="1" stop-color="#fff"/>
    </radialGradient>
  </defs>
  <g id="グループ_12694" data-name="グループ 12694" transform="translate(-1024.9 -2502.607)">
    <g id="グループ_12608" data-name="グループ 12608" transform="translate(425 2436)">
      <g id="グループ_12607" data-name="グループ 12607" transform="translate(275 -153)">
        <g id="グループ_12573" data-name="グループ 12573">
          <path id="パス_19590" data-name="パス 19590" d="M408.9,262.8l-10.7,1.9L388,262.8V225.9l10.5,1.4,10.4-1.4Z" fill="#ffd200"/>
          <g id="グループ_12572" data-name="グループ 12572">
            <g id="グループ_12555" data-name="グループ 12555">
              <path id="パス_19591" data-name="パス 19591" d="M408.9,222.5v2.9c0,1.1-2.1,2.1-5.7,2.6-5.1.7-11.4.1-14-1.3-.8-.4-1.2-.9-1.2-1.3v-2.9c0,.4.4.9,1.2,1.3,2.6,1.4,8.9,2,14,1.3C406.8,224.6,408.9,223.6,408.9,222.5Z" fill="#ffbe00"/>
            </g>
            <g id="グループ_12564" data-name="グループ 12564">
              <g id="グループ_12556" data-name="グループ 12556">
                <path id="パス_19592" data-name="パス 19592" d="M397.4,221.9a.367.367,0,0,1-.3-.1c-.1,0-.1-.1,0-.1Z" fill="#ffc800"/>
              </g>
              <g id="グループ_12560" data-name="グループ 12560">
                <g id="グループ_12557" data-name="グループ 12557">
                  <path id="パス_19593" data-name="パス 19593" d="M399.7,222.9c.1,0,.1.1,0,.1a.31.31,0,0,0-.2.1l-.4-.2h.3A.188.188,0,0,1,399.7,222.9Z" fill="#ffd200"/>
                </g>
                <g id="グループ_12558" data-name="グループ 12558">
                  <path id="パス_19594" data-name="パス 19594" d="M396,220.6l.7.4c.4,0,.7-.1,1-.1a2.768,2.768,0,0,0,.9-.1h1.3l1.1.6-2.4.3a.6.6,0,0,0-.4-.1h-.5a2.035,2.035,0,0,0-.5.1c-.1,0-.1.1,0,.1s.2.1.3.1h.7a7.568,7.568,0,0,0,1.5-.1h1.4c.4,0,.8.1,1.2.1a4.649,4.649,0,0,1,.9.3c.5.2.5.5.3.7a6.044,6.044,0,0,1-1.8.6l.7.4-.8.1-.7.1-.7-.4c-.7.1-1.4.1-1.9.2a5.282,5.282,0,0,0-1.3.1l-1.2-.6,2.6-.4a.6.6,0,0,0,.4.1h.7a.367.367,0,0,0,.3-.1c.1,0,.1,0,.2-.1.1,0,.1-.1,0-.1s-.1-.1-.3-.1h-3.9c-.4,0-.8-.1-1.1-.1a6.889,6.889,0,0,1-.8-.3,1.38,1.38,0,0,1-.4-.3c-.1-.1,0-.2.1-.3a1.628,1.628,0,0,1,.6-.3,10.377,10.377,0,0,1,1.2-.3l-.7-.4.7-.1Z" fill="#ffe600"/>
                </g>
                <g id="グループ_12559" data-name="グループ 12559">
                  <path id="パス_19595" data-name="パス 19595" d="M394.2,220.1c4.6-.6,10.2-.1,12.6,1.1,2.3,1.3.5,2.8-4.1,3.5l-1.3-.7.8-.1-.7-.4a4.373,4.373,0,0,0,1.8-.6c.3-.2.2-.4-.3-.7l-.9-.3a4.121,4.121,0,0,0-1.2-.1h-1.4a7.568,7.568,0,0,0-1.5.1h-.7l-.3-.2a2.035,2.035,0,0,1,.5-.1h.5c.2,0,.3,0,.4.1l2.4-.3-1.1-.6h-1.3a3.085,3.085,0,0,0-.9.1c-.3,0-.6.1-1,.1l-.7-.4-.8.1Z" fill="#ffd200"/>
                </g>
              </g>
              <g id="グループ_12561" data-name="グループ 12561">
                <path id="パス_19596" data-name="パス 19596" d="M393.7,219.9c5.1-.7,11.4-.1,14.1,1.3,2.6,1.4.6,3.2-4.5,3.9l-.5-.3-1.3-.7,1.3.7c4.6-.6,6.4-2.2,4.1-3.5-2.4-1.3-8-1.8-12.6-1.1l1,.6-1-.6Z" fill="#ffdc00"/>
              </g>
              <g id="グループ_12562" data-name="グループ 12562">
                <path id="パス_19597" data-name="パス 19597" d="M390.2,223.6c-2.4-1.3-.5-2.8,4.1-3.5l1,.6-.7.1.7.4a10.379,10.379,0,0,0-1.2.3,1.628,1.628,0,0,0-.6.3.367.367,0,0,0-.1.3,1.381,1.381,0,0,0,.4.3,6.891,6.891,0,0,0,.8.3,3.749,3.749,0,0,0,1.1.1h3.6l.4.2a.367.367,0,0,0-.3.1c-.3,0-.5.1-.7,0-.1,0-.3-.1-.4-.1l-2.6.4,1.2.6a6.637,6.637,0,0,0,1.3-.1,17.632,17.632,0,0,0,1.9-.2l.7.4.7-.1,1.3.7C398.1,225.4,392.5,224.9,390.2,223.6Z" fill="#ffc800"/>
              </g>
              <g id="グループ_12563" data-name="グループ 12563">
                <path id="パス_19598" data-name="パス 19598" d="M393.7,219.9l.5.3c-4.6.6-6.4,2.2-4.1,3.5s8,1.8,12.6,1.1l.5.3c5.1-.7,7.2-2.5,4.5-3.9,2.6,1.4.6,3.2-4.5,3.9s-11.4.1-14-1.3C386.6,222.3,388.6,220.6,393.7,219.9Z" fill="#ffd200"/>
              </g>
            </g>
            <g id="グループ_12565" data-name="グループ 12565">
              <path id="パス_19599" data-name="パス 19599" d="M408.9,228.3v2.9c0,1.1-2.1,2.1-5.7,2.6-5.1.7-11.4.1-14-1.3-.8-.4-1.2-.9-1.2-1.3v-2.9c0,.4.4.9,1.2,1.3,2.6,1.4,8.9,2,14,1.3C406.8,230.4,408.9,229.4,408.9,228.3Z" fill="#ffbe00"/>
            </g>
            <g id="グループ_12566" data-name="グループ 12566">
              <path id="パス_19600" data-name="パス 19600" d="M408.9,234.1V237c0,1.1-2.1,2.1-5.7,2.6-5.1.7-11.4.1-14-1.3-.8-.4-1.2-.9-1.2-1.3v-2.9c0,.4.4.9,1.2,1.3,2.6,1.4,8.9,2,14,1.3C406.8,236.2,408.9,235.2,408.9,234.1Z" fill="#ffbe00"/>
            </g>
            <g id="グループ_12567" data-name="グループ 12567">
              <path id="パス_19601" data-name="パス 19601" d="M408.9,239.9v2.9c0,1.1-2.1,2.1-5.7,2.6-5.1.7-11.4.1-14-1.3-.8-.4-1.2-.9-1.2-1.3v-2.9c0,.4.4.9,1.2,1.3,2.6,1.4,8.9,2,14,1.3C406.8,242,408.9,241,408.9,239.9Z" fill="#ffbe00"/>
            </g>
            <g id="グループ_12568" data-name="グループ 12568">
              <path id="パス_19602" data-name="パス 19602" d="M408.9,245.7v2.9c0,1.1-2.1,2.1-5.7,2.6-5.1.7-11.4.1-14-1.3-.8-.4-1.2-.9-1.2-1.3v-2.9c0,.4.4.9,1.2,1.3,2.6,1.4,8.9,2,14,1.3C406.8,247.8,408.9,246.8,408.9,245.7Z" fill="#ffbe00"/>
            </g>
            <g id="グループ_12569" data-name="グループ 12569">
              <path id="パス_19603" data-name="パス 19603" d="M408.9,251.5v2.9c0,1.1-2.1,2.1-5.7,2.6-5.1.7-11.4.1-14-1.3-.8-.4-1.2-.9-1.2-1.3v-2.9c0,.4.4.9,1.2,1.3,2.6,1.4,8.9,2,14,1.3C406.8,253.6,408.9,252.6,408.9,251.5Z" fill="#ffbe00"/>
            </g>
            <g id="グループ_12570" data-name="グループ 12570">
              <path id="パス_19604" data-name="パス 19604" d="M408.9,257.3v2.9c0,1.1-2.1,2.1-5.7,2.6-5.1.7-11.4.1-14-1.3-.8-.4-1.2-.9-1.2-1.3v-2.9c0,.4.4.9,1.2,1.3,2.6,1.4,8.9,2,14,1.3C406.8,259.4,408.9,258.4,408.9,257.3Z" fill="#ffbe00"/>
            </g>
            <g id="グループ_12571" data-name="グループ 12571">
              <path id="パス_19605" data-name="パス 19605" d="M408.9,260.2v2.9c0,1.1-2.1,2.1-5.7,2.6-5.1.7-11.4.1-14-1.3-.8-.4-1.2-.9-1.2-1.3v-2.9c0,.4.4.9,1.2,1.3,2.6,1.4,8.9,2,14,1.3C406.8,262.3,408.9,261.3,408.9,260.2Z" fill="#ffd200"/>
            </g>
          </g>
        </g>
        <g id="グループ_12588" data-name="グループ 12588">
          <path id="パス_19606" data-name="パス 19606" d="M362.2,269.6l-10.8,1.9-10.1-1.9V255l10.4,1.5,10.5-1.5Z" fill="#ffd200"/>
          <g id="グループ_12574" data-name="グループ 12574">
            <path id="パス_19607" data-name="パス 19607" d="M362.2,252.6v2.9c0,1.1-2.1,2.1-5.7,2.6-5.1.7-11.4.1-14-1.3-.8-.4-1.2-.9-1.2-1.3v-2.9c0,.4.4.9,1.2,1.3,2.6,1.4,8.9,2,14,1.3C360.1,254.6,362.2,253.6,362.2,252.6Z" fill="#ffbe00"/>
          </g>
          <g id="グループ_12575" data-name="グループ 12575">
            <path id="パス_19608" data-name="パス 19608" d="M347,250c5.1-.7,11.4-.1,14.1,1.3,2.6,1.4.6,3.2-4.5,3.9s-11.4.1-14-1.3C339.8,252.4,341.9,250.7,347,250Z" fill="#ffd200"/>
          </g>
          <g id="グループ_12584" data-name="グループ 12584">
            <g id="グループ_12576" data-name="グループ 12576">
              <path id="パス_19609" data-name="パス 19609" d="M350.7,252a.367.367,0,0,1-.3-.1c-.1,0-.1-.1,0-.1Z" fill="#ffc800"/>
            </g>
            <g id="グループ_12580" data-name="グループ 12580">
              <g id="グループ_12577" data-name="グループ 12577">
                <path id="パス_19610" data-name="パス 19610" d="M352.9,253c.1,0,.1.1,0,.1a.31.31,0,0,0-.2.1l-.4-.2h.3Q352.9,252.85,352.9,253Z" fill="#ffd200"/>
              </g>
              <g id="グループ_12578" data-name="グループ 12578">
                <path id="パス_19611" data-name="パス 19611" d="M349.3,250.7l.7.4c.4,0,.7-.1,1-.1a2.768,2.768,0,0,0,.9-.1h1.3l1.1.6-2.4.3a.6.6,0,0,0-.4-.1H351a2.035,2.035,0,0,0-.5.1c-.1,0-.1.1,0,.1s.2.1.3.1h3.6c.4,0,.8.1,1.2.1a4.649,4.649,0,0,1,.9.3c.5.2.5.5.3.7a6.044,6.044,0,0,1-1.8.6l.7.4-.8.1-.7.1-.7-.4a15.405,15.405,0,0,1-1.9.2,5.282,5.282,0,0,0-1.3.1l-1.2-.6,2.6-.4a.6.6,0,0,0,.4.1h.7a.367.367,0,0,0,.3-.1c.1,0,.1,0,.2-.1.1,0,.1-.1,0-.1s-.1-.1-.3-.1h-3.9c-.4,0-.8-.1-1.1-.1a6.889,6.889,0,0,1-.8-.3,1.38,1.38,0,0,1-.4-.3c-.1-.1,0-.2.1-.3a1.628,1.628,0,0,1,.6-.3,10.377,10.377,0,0,1,1.2-.3l-.7-.4.7-.1Z" fill="#ffe600"/>
              </g>
              <g id="グループ_12579" data-name="グループ 12579">
                <path id="パス_19612" data-name="パス 19612" d="M347.5,250.2c4.6-.6,10.2-.1,12.6,1.2s.5,2.8-4.1,3.5l-1.3-.7.8-.1-.7-.4a4.373,4.373,0,0,0,1.8-.6c.3-.2.2-.4-.3-.7l-.9-.3a4.121,4.121,0,0,0-1.2-.1h-3.6l-.3-.2a2.035,2.035,0,0,1,.5-.1h.5c.2,0,.3,0,.4.1l2.4-.3-1.1-.6h-1.3a2.768,2.768,0,0,0-.9.1c-.3,0-.6.1-1,.1l-.7-.4-.8.1Z" fill="#ffd200"/>
              </g>
            </g>
            <g id="グループ_12581" data-name="グループ 12581">
              <path id="パス_19613" data-name="パス 19613" d="M347,250c5.1-.7,11.4-.1,14.1,1.3,2.6,1.4.6,3.2-4.5,3.9l-.5-.3-1.3-.7,1.3.7c4.6-.6,6.4-2.2,4.1-3.5-2.4-1.3-8-1.8-12.6-1.2l1,.6-1-.6Z" fill="#ffdc00"/>
            </g>
            <g id="グループ_12582" data-name="グループ 12582">
              <path id="パス_19614" data-name="パス 19614" d="M343.4,253.7c-2.4-1.3-.5-2.8,4.1-3.5l1,.6-.7.1.7.4a10.379,10.379,0,0,0-1.2.3,1.628,1.628,0,0,0-.6.3.367.367,0,0,0-.1.3,1.381,1.381,0,0,0,.4.3,6.891,6.891,0,0,0,.8.3,3.749,3.749,0,0,0,1.1.1h3.6l.4.2a.367.367,0,0,0-.3.1c-.3,0-.5.1-.7,0-.1,0-.3-.1-.4-.1l-2.6.4,1.2.6a6.637,6.637,0,0,0,1.3-.1,17.632,17.632,0,0,0,1.9-.2l.7.4.7-.1,1.3.7C351.4,255.5,345.8,255,343.4,253.7Z" fill="#ffc800"/>
            </g>
            <g id="グループ_12583" data-name="グループ 12583">
              <path id="パス_19615" data-name="パス 19615" d="M347,250l.5.3c-4.6.6-6.4,2.2-4.1,3.5,2.4,1.3,8,1.8,12.6,1.1l.5.3c5.1-.7,7.2-2.5,4.5-3.9,2.6,1.4.6,3.2-4.5,3.9s-11.4.1-14-1.3C339.8,252.4,341.9,250.7,347,250Z" fill="#ffd200"/>
            </g>
          </g>
          <g id="グループ_12585" data-name="グループ 12585">
            <path id="パス_19616" data-name="パス 19616" d="M362.2,258.4v2.9c0,1.1-2.1,2.1-5.7,2.6-5.1.7-11.4.1-14-1.3-.8-.4-1.2-.9-1.2-1.3v-2.9c0,.4.4.9,1.2,1.3,2.6,1.4,8.9,2,14,1.3C360.1,260.4,362.2,259.4,362.2,258.4Z" fill="#ffbe00"/>
          </g>
          <g id="グループ_12586" data-name="グループ 12586">
            <path id="パス_19617" data-name="パス 19617" d="M362.2,264.2v2.9c0,1.1-2.1,2.1-5.7,2.6-5.1.7-11.4.1-14-1.3-.8-.4-1.2-.9-1.2-1.3v-2.9c0,.4.4.9,1.2,1.3,2.6,1.4,8.9,2,14,1.3C360.1,266.2,362.2,265.2,362.2,264.2Z" fill="#ffbe00"/>
          </g>
          <g id="グループ_12587" data-name="グループ 12587">
            <path id="パス_19618" data-name="パス 19618" d="M362.2,267.1V270c0,1.1-2.1,2.1-5.7,2.6-5.1.7-11.4.1-14-1.3-.8-.4-1.2-.9-1.2-1.3v-2.9c0,.4.4.9,1.2,1.3,2.6,1.4,8.9,2,14,1.3C360.1,269.1,362.2,268.1,362.2,267.1Z" fill="#ffd200"/>
          </g>
        </g>
        <g id="グループ_12606" data-name="グループ 12606">
          <path id="パス_19619" data-name="パス 19619" d="M385.7,265l-10.8,1.9L364.8,265V239.6l10.4,1.4,10.5-1.4Z" fill="#ffd200"/>
          <g id="グループ_12605" data-name="グループ 12605">
            <g id="グループ_12589" data-name="グループ 12589">
              <path id="パス_19620" data-name="パス 19620" d="M385.7,237v2.9c0,1.1-2.1,2.1-5.7,2.6-5.1.7-11.4.1-14-1.3-.8-.4-1.2-.9-1.2-1.3V237c0,.4.4.9,1.2,1.3,2.6,1.4,8.9,2,14,1.3C383.6,239.1,385.7,238.1,385.7,237Z" fill="#ffbe00"/>
            </g>
            <g id="グループ_12590" data-name="グループ 12590">
              <path id="パス_19621" data-name="パス 19621" d="M370.5,234.4c5.1-.7,11.4-.1,14.1,1.3,2.6,1.4.6,3.2-4.5,3.9s-11.4.1-14-1.3C363.3,236.9,365.4,235.1,370.5,234.4Z" fill="#ffd200"/>
            </g>
            <g id="グループ_12599" data-name="グループ 12599">
              <g id="グループ_12591" data-name="グループ 12591">
                <path id="パス_19622" data-name="パス 19622" d="M374.2,236.4a.367.367,0,0,1-.3-.1c-.1,0-.1-.1,0-.1Z" fill="#ffc800"/>
              </g>
              <g id="グループ_12595" data-name="グループ 12595">
                <g id="グループ_12592" data-name="グループ 12592">
                  <path id="パス_19623" data-name="パス 19623" d="M376.4,237.4c.1,0,.1.1,0,.1a.31.31,0,0,0-.2.1l-.4-.2h.3Q376.4,237.25,376.4,237.4Z" fill="#ffd200"/>
                </g>
                <g id="グループ_12593" data-name="グループ 12593">
                  <path id="パス_19624" data-name="パス 19624" d="M372.8,235.1l.7.4c.4,0,.7-.1,1-.1a2.768,2.768,0,0,0,.9-.1h1.3l1.1.6-2.4.3a.6.6,0,0,0-.4-.1h-.5a2.035,2.035,0,0,0-.5.1c-.1,0-.1.1,0,.1s.2.1.3.1h3.6c.4,0,.8.1,1.2.1a4.649,4.649,0,0,1,.9.3c.5.2.5.5.3.7a6.044,6.044,0,0,1-1.8.6l.7.4-.8.1-.7.1-.7-.4c-.7.1-1.4.1-1.9.2a5.282,5.282,0,0,0-1.3.1l-1.2-.6,2.6-.4a.6.6,0,0,0,.4.1h.7a.367.367,0,0,0,.3-.1c.1,0,.1,0,.2-.1.1,0,.1-.1,0-.1s-.1-.1-.3-.1h-3.9c-.4,0-.8-.1-1.1-.1a6.889,6.889,0,0,1-.8-.3,1.38,1.38,0,0,1-.4-.3c-.1-.1,0-.2.1-.3a1.628,1.628,0,0,1,.6-.3,10.377,10.377,0,0,1,1.2-.3l-.7-.4.7-.1Z" fill="#ffe600"/>
                </g>
                <g id="グループ_12594" data-name="グループ 12594">
                  <path id="パス_19625" data-name="パス 19625" d="M371,234.6c4.6-.6,10.2-.1,12.6,1.2s.5,2.8-4.1,3.5l-1.3-.7.8-.1-.7-.4a4.373,4.373,0,0,0,1.8-.6c.3-.2.2-.4-.3-.7l-.9-.3a4.121,4.121,0,0,0-1.2-.1h-3.6l-.3-.2a2.035,2.035,0,0,1,.5-.1h.5c.2,0,.3,0,.4.1l2.4-.3-1.1-.6h-1.3a2.768,2.768,0,0,0-.9.1c-.3,0-.6.1-1,.1l-.7-.4-.8.1Z" fill="#ffd200"/>
                </g>
              </g>
              <g id="グループ_12596" data-name="グループ 12596">
                <path id="パス_19626" data-name="パス 19626" d="M370.5,234.4c5.1-.7,11.4-.1,14.1,1.3,2.6,1.4.6,3.2-4.5,3.9l-.5-.3-1.3-.7,1.3.7c4.6-.6,6.4-2.2,4.1-3.5-2.4-1.3-8-1.8-12.6-1.2l1,.6-1-.6Z" fill="#ffdc00"/>
              </g>
              <g id="グループ_12597" data-name="グループ 12597">
                <path id="パス_19627" data-name="パス 19627" d="M366.9,238.1c-2.4-1.3-.5-2.8,4.1-3.5l1,.6-.7.1.7.4a10.379,10.379,0,0,0-1.2.3,1.628,1.628,0,0,0-.6.3.367.367,0,0,0-.1.3,1.381,1.381,0,0,0,.4.3,6.891,6.891,0,0,0,.8.3,3.749,3.749,0,0,0,1.1.1H376l.4.2a.367.367,0,0,0-.3.1c-.3,0-.5.1-.7,0-.1,0-.3-.1-.4-.1l-2.6.4,1.2.6a6.637,6.637,0,0,0,1.3-.1,17.632,17.632,0,0,0,1.9-.2l.7.4.7-.1,1.3.7C374.9,239.9,369.3,239.4,366.9,238.1Z" fill="#ffc800"/>
              </g>
              <g id="グループ_12598" data-name="グループ 12598">
                <path id="パス_19628" data-name="パス 19628" d="M370.5,234.4l.5.3c-4.6.6-6.4,2.2-4.1,3.5,2.4,1.3,8,1.8,12.6,1.1l.5.3c5.1-.7,7.2-2.5,4.5-3.9,2.6,1.4.6,3.2-4.5,3.9s-11.4.1-14-1.3C363.3,236.8,365.4,235.1,370.5,234.4Z" fill="#ffd200"/>
              </g>
            </g>
            <g id="グループ_12600" data-name="グループ 12600">
              <path id="パス_19629" data-name="パス 19629" d="M385.7,242.8v2.9c0,1.1-2.1,2.1-5.7,2.6-5.1.7-11.4.1-14-1.3-.8-.4-1.2-.9-1.2-1.3v-2.9c0,.4.4.9,1.2,1.3,2.6,1.4,8.9,2,14,1.3C383.6,244.9,385.7,243.9,385.7,242.8Z" fill="#ffbe00"/>
            </g>
            <g id="グループ_12601" data-name="グループ 12601">
              <path id="パス_19630" data-name="パス 19630" d="M385.7,248.6v2.9c0,1.1-2.1,2.1-5.7,2.6-5.1.7-11.4.1-14-1.3-.8-.4-1.2-.9-1.2-1.3v-2.9c0,.4.4.9,1.2,1.3,2.6,1.4,8.9,2,14,1.3C383.6,250.7,385.7,249.7,385.7,248.6Z" fill="#ffbe00"/>
            </g>
            <g id="グループ_12602" data-name="グループ 12602">
              <path id="パス_19631" data-name="パス 19631" d="M385.7,254.4v2.9c0,1.1-2.1,2.1-5.7,2.6-5.1.7-11.4.1-14-1.3-.8-.4-1.2-.9-1.2-1.3v-2.9c0,.4.4.9,1.2,1.3,2.6,1.4,8.9,2,14,1.3C383.6,256.5,385.7,255.5,385.7,254.4Z" fill="#ffbe00"/>
            </g>
            <g id="グループ_12603" data-name="グループ 12603">
              <path id="パス_19632" data-name="パス 19632" d="M385.7,260.2v2.9c0,1.1-2.1,2.1-5.7,2.6-5.1.7-11.4.1-14-1.3-.8-.4-1.2-.9-1.2-1.3v-2.9c0,.4.4.9,1.2,1.3,2.6,1.4,8.9,2,14,1.3C383.6,262.3,385.7,261.3,385.7,260.2Z" fill="#ffbe00"/>
            </g>
            <g id="グループ_12604" data-name="グループ 12604">
              <path id="パス_19633" data-name="パス 19633" d="M385.7,263.1V266c0,1.1-2.1,2.1-5.7,2.6-5.1.7-11.4.1-14-1.3-.8-.4-1.2-.9-1.2-1.3v-2.9c0,.4.4.9,1.2,1.3,2.6,1.4,8.9,2,14,1.3C383.6,265.2,385.7,264.2,385.7,263.1Z" fill="#ffd200"/>
            </g>
          </g>
        </g>
      </g>
    </g>
    <g id="グループ_12620" data-name="グループ 12620" transform="translate(425 2436)">
      <g id="グループ_12619" data-name="グループ 12619" transform="translate(495 -136)">
        <path id="パス_19635" data-name="パス 19635" d="M149.1,241c.1,0,.1,0,.2.1a7.932,7.932,0,0,1,.9.4l.6.3-9.8-5.3c-.2-.1-.3-.2-.5-.3h-.1c-.3-.1-.6-.3-.9-.4-.1,0-.1,0-.2-.1l-.9-.3c-.1,0-.1,0-.2-.1-.2,0-.3-.1-.5-.1a.846.846,0,0,0-.7,0l9.8,5.3h.7a2.544,2.544,0,0,1,.7.2Z" fill="#d2c864"/>
        <path id="パス_19636" data-name="パス 19636" d="M145.9,241.2c0-.1.1-.2.2-.3h0l.3-.3h0a.6.6,0,0,1,.4-.1l-9.8-5.3c-.1,0-.2.1-.3.1h-.1l-.1.1-.1.1-.1.1h0c0,.1-.1.1-.1.2v.1c0,.1-.1.1-.1.2v.1c0,.1,0,.1-.1.2,0,.1-.1.2-.1.3a.349.349,0,0,1-.1.2c0,.1-.1.2-.1.3h0l-.3.3h0c-.1.1-.2.1-.4.1h-.4a.367.367,0,0,1-.3-.1h-.2c-.1,0-.3-.1-.4-.1s-.3-.1-.4-.1a.6.6,0,0,1-.4-.1h-1.4a1.422,1.422,0,0,0-.6.2h0c-.1,0-.2.1-.3.1s-.1.1-.2.1h0a.1.1,0,0,0-.1.1c-.1.1-.1.1-.1.2h0c-.1.1-.1.2-.2.3-.1.2-.2.3-.3.5h0l-.3.3h0a2.345,2.345,0,0,1-1,.5h-.9a.6.6,0,0,1-.4-.1H127c-.2-.1-.4-.1-.6-.2-.1,0-.2-.1-.3-.1l9.8,5.3c.1,0,.1.1.2.1h.1a1.421,1.421,0,0,0,.6.2h.1a.6.6,0,0,1,.4.1h.9a1.422,1.422,0,0,0,.6-.2.349.349,0,0,0,.2-.1c.1,0,.1-.1.2-.1h0l.1-.1h0l.2-.2h0c.1-.1.1-.2.2-.2a2.186,2.186,0,0,1,.3-.5h0l.3-.3h0c.1-.1.3-.2.4-.3h0c.2-.1.4-.1.6-.2h1.4a.6.6,0,0,1,.4.1c.1,0,.2.1.4.1s.4.1.6.1h.6a.367.367,0,0,0,.3-.1.1.1,0,0,0,.1-.1h0a.1.1,0,0,0,.1-.1l.1-.1.1-.1h0l.1-.1a.1.1,0,0,1,.1-.1.349.349,0,0,1,.1-.2h0c0-.1.1-.1.1-.2s.1-.2.1-.3A.188.188,0,0,1,145.9,241.2Z" fill="#b4aa46"/>
        <path id="パス_19637" data-name="パス 19637" d="M121.8,300.8c-.3-.3-.7-.5-1-.8-.2-.1-.3-.3-.5-.4a6.47,6.47,0,0,1-.8-.9c-.1-.2-.3-.3-.4-.5a7.632,7.632,0,0,1-.8-1.1c-.1-.1-.1-.2-.2-.3l-.9-1.5c-.1-.1-.1-.3-.2-.4a6.117,6.117,0,0,1-.5-1.2,1.421,1.421,0,0,1-.2-.6c-.1-.4-.3-.8-.4-1.2-.1-.2-.1-.4-.2-.6-.1-.4-.2-.9-.3-1.3a4.331,4.331,0,0,0-.1-.5c-.1-.6-.2-1.3-.3-1.9v-.3a9.15,9.15,0,0,1-.1-1.7v-2.8c0-.5.1-.9.1-1.4a1.952,1.952,0,0,1,.1-.7c.1-.6.1-1.2.2-1.8v-.3c.1-.7.3-1.4.4-2a1.421,1.421,0,0,1,.2-.6,7.366,7.366,0,0,1,.4-1.4c.1-.2.1-.5.2-.7.1-.4.3-.9.4-1.3a1.854,1.854,0,0,0,.2-.7c.3-.7.6-1.5.9-2.2a.349.349,0,0,1,.1-.2c.3-.6.6-1.3.9-1.9a5.736,5.736,0,0,1,.4-.7c.2-.3.4-.7.6-1,.1-.2.3-.5.4-.7a8.794,8.794,0,0,0,.6-1c.2-.2.3-.5.5-.7s.3-.5.5-.7c.2-.3.4-.5.6-.8a2.651,2.651,0,0,0,.5-.6,4.351,4.351,0,0,1,.6-.7c.2-.2.3-.4.5-.5l.7-.7c.2-.2.4-.3.5-.5a4.62,4.62,0,0,0,.7-.7c.2-.2.4-.3.6-.5.3-.2.5-.4.8-.6.2-.2.4-.3.6-.5l.9-.6c.1-.1.3-.2.4-.3.5-.3,1-.6,1.4-.8l-9.8-5.3c-.5.3-1,.5-1.4.8-.2.1-.3.2-.5.3a4.347,4.347,0,0,1-.7.4c-.1.1-.2.1-.2.2-.2.2-.4.3-.6.5-.3.2-.5.4-.8.6-.2.2-.4.3-.6.5-.1.1-.3.2-.4.3l-.3.3a2.652,2.652,0,0,1-.6.5l-.7.7c-.2.2-.3.4-.5.6-.1.1-.2.2-.2.3-.1.2-.3.3-.4.5a4.349,4.349,0,0,0-.6.7,5.548,5.548,0,0,0-.6.8c-.2.2-.3.5-.5.7l-.2.2a2.186,2.186,0,0,0-.3.5,8.794,8.794,0,0,0-.6,1c-.1.2-.3.5-.4.7-.2.3-.4.7-.6,1-.1.1-.1.2-.2.4,0,.1-.1.2-.1.3-.3.6-.6,1.3-.9,1.9a.349.349,0,0,1-.1.2c-.3.7-.6,1.4-.9,2.2a.349.349,0,0,1-.1.2.6.6,0,0,0-.1.4,6.468,6.468,0,0,0-.4,1.3c-.1.2-.1.5-.2.7-.1.5-.3.9-.4,1.4-.1.2-.1.4-.2.6a17.659,17.659,0,0,0-.4,2v.3a11.019,11.019,0,0,0-.2,1.8,1.952,1.952,0,0,1-.1.7c0,.5-.1.9-.1,1.4v2.8c0,.6.1,1.1.1,1.7v.3c.1.6.2,1.3.3,1.9a4.331,4.331,0,0,0,.1.5c.1.4.2.9.3,1.3.1.2.1.4.2.6a5.638,5.638,0,0,0,.4,1.2c.1.2.1.4.2.6a6.117,6.117,0,0,1,.5,1.2c.1.1.1.3.2.4l.9,1.5c.1.1.1.2.2.3a10.477,10.477,0,0,0,.8,1.1c.1.2.3.3.4.5.3.3.5.6.8.9.2.1.3.3.5.4a8.745,8.745,0,0,0,1,.8c.2.1.3.2.5.3.5.3,1,.7,1.6,1,3.3,1.8,6.6,3.6,9.8,5.3a14,14,0,0,1-1.6-1C122.1,301,121.9,300.9,121.8,300.8Z" fill="#b4aa46"/>
        <path id="パス_19638" data-name="パス 19638" d="M124.7,246.8l-9.8-5.3c1.5,4.3,3.6,6.6,5.8,7.9l9.8,5.3C128.2,253.5,126.2,251.1,124.7,246.8Z" fill="#847d3b"/>
        <path id="パス_19639" data-name="パス 19639" d="M126.9,246h0a.31.31,0,0,1,.2-.1c.2-.1.3-.2.5-.3.1,0,.1-.1.2-.1l.6-.3a.1.1,0,0,0,.1-.1c.2-.1.5-.3.7-.4h.1c.2-.1.4-.3.6-.4a.31.31,0,0,1,.2-.1c.2-.1.3-.2.5-.3a.758.758,0,0,1,.4-.2c.1,0,.1-.1.2-.1l.6-.3h0c.2-.1.3-.2.5-.2a.1.1,0,0,0,.1-.1c.1-.1.3-.1.4-.2a.1.1,0,0,0,.1-.1.9.9,0,0,1,.5-.1l-9.8-5.3a4.331,4.331,0,0,1-.5.1.1.1,0,0,0-.1.1.758.758,0,0,0-.4.2h-.2c-.1.1-.3.1-.4.2h-.1a2.186,2.186,0,0,0-.5.3.349.349,0,0,0-.2.1c-.1.1-.2.1-.4.2-.1.1-.2.1-.4.2-.1.1-.3.2-.4.3-.2.1-.3.2-.5.3-.1,0-.1.1-.2.1a4.347,4.347,0,0,1-.7.4c-.1,0-.1.1-.2.1-.2.1-.3.2-.5.3-.1,0-.2.1-.3.1-.2.1-.3.2-.5.2a.349.349,0,0,0-.2.1,10.371,10.371,0,0,1-1,.4c-.1,0-.1,0-.2.1-.3.1-.7.2-1.1.3l9.8,5.3c.4-.1.7-.2,1.1-.3.1,0,.1,0,.2-.1A1.922,1.922,0,0,0,126.9,246Z" fill="#b4aa46"/>
        <g id="グループ_12609" data-name="グループ 12609">
          <path id="パス_19640" data-name="パス 19640" d="M146.8,240.5h.7a12.528,12.528,0,0,1,4.9,2.3,17.9,17.9,0,0,1-7.3,10.3c20.6,5.1,24.4,46.5-7.2,50.9-31.7,4.5-27.6-38.3-6.8-49.1-2.5-1.1-4.8-3.5-6.4-8.2,3.7-.9,6.9-4,8.8-4.3.1.1,2,2.8,4.5,2.4,1.9-.3,1.3-2.2,3.2-2.5a7.259,7.259,0,0,1,2.7.3,1.952,1.952,0,0,0,.7.1c.6-.1.8-.6,1-1.2C145.9,241.2,146.1,240.6,146.8,240.5Z" fill="#afa64f"/>
        </g>
        <g id="グループ_12618" data-name="グループ 12618">
          <g id="グループ_12610" data-name="グループ 12610">
            <path id="パス_19641" data-name="パス 19641" d="M139.2,283.4a1.135,1.135,0,0,1-.3.8,1.884,1.884,0,0,1-.9.4v-2.2c.5.2.8.3,1,.4A.846.846,0,0,1,139.2,283.4Z" fill="#dcd264"/>
          </g>
          <g id="グループ_12611" data-name="グループ 12611">
            <path id="パス_19642" data-name="パス 19642" d="M140.1,265.7v2.9a6.694,6.694,0,0,1,2,0,7.772,7.772,0,0,1,1.6.2c.5.1.9.2,1.3.3a3,3,0,0,1,1,.4v4.6l-5,.7a1.053,1.053,0,0,0-.4-1,1.337,1.337,0,0,0-.9-.1,2.3,2.3,0,0,0-1.1.4.984.984,0,0,0-.3.8.548.548,0,0,0,.4.6,5.3,5.3,0,0,0,1.1.3,19.733,19.733,0,0,1,2.6.7,6.809,6.809,0,0,1,2.1,1,4.978,4.978,0,0,1,1.5,1.7,5.439,5.439,0,0,1,.5,2.7,6.8,6.8,0,0,1-1.6,4.8,8.928,8.928,0,0,1-4.7,2.6v3.1l-2.1.3-1,.1v-3.1a13.511,13.511,0,0,1-3.6-.1,11.383,11.383,0,0,1-2.3-.5V284l5.2-.7a1.609,1.609,0,0,0,.3,1.1,1.376,1.376,0,0,0,1.2.2h.2a1.885,1.885,0,0,0,.9-.4,1.136,1.136,0,0,0,.3-.8.864.864,0,0,0-.3-.6,3.362,3.362,0,0,0-1-.4h-.1c-1.2-.3-2.2-.6-3.1-.9a9.019,9.019,0,0,1-2.2-1.1,3.708,3.708,0,0,1-1.3-1.7,6.249,6.249,0,0,1-.4-2.5,8.524,8.524,0,0,1,.3-2.3,7.5,7.5,0,0,1,1-2,5.755,5.755,0,0,1,1.9-1.5,13.579,13.579,0,0,1,2.9-1.1v-2.9l1-.1Z" fill="#786450"/>
          </g>
          <g id="グループ_12616" data-name="グループ 12616">
            <g id="グループ_12612" data-name="グループ 12612">
              <path id="パス_19643" data-name="パス 19643" d="M145,253.1c9.5,2.5,15.1,13.1,15.1,23.7a26.42,26.42,0,0,1-5.2,16c-3.9,4.9-9.8,8.1-17,9.1v-9.4l2.1-.3v-3.1a8.928,8.928,0,0,0,4.7-2.6,7.836,7.836,0,0,0,1.1-7.5,4.125,4.125,0,0,0-1.5-1.7,6.809,6.809,0,0,0-2.1-1c-.8-.2-1.7-.5-2.6-.7a5.309,5.309,0,0,1-1.1-.3.675.675,0,0,1-.4-.6.984.984,0,0,1,.3-.8,2.3,2.3,0,0,1,1.1-.4,1.254,1.254,0,0,1,.9.1c.3.1.4.5.4,1l5-.7v-4.6a10.376,10.376,0,0,0-1-.4c-.4-.1-.8-.2-1.3-.3s-1-.1-1.6-.2h-2v-2.9l-1.9.5V255.7A15.759,15.759,0,0,0,145,253.1Z" fill="#dcd264"/>
            </g>
            <g id="グループ_12613" data-name="グループ 12613">
              <path id="パス_19644" data-name="パス 19644" d="M146.8,240.5h.7a12.528,12.528,0,0,1,4.9,2.3,17.9,17.9,0,0,1-7.3,10.3H145a17.534,17.534,0,0,1-7.1,2.6V244.9h.2a1.422,1.422,0,0,0,.6-.2c1-.6.9-1.9,2.3-2.2h1.5c.2,0,.5.1.8.1h.1a4.331,4.331,0,0,1,.5.1h.1q.45.15.6,0c.6-.1.8-.6,1-1.2C145.9,241.2,146.1,240.6,146.8,240.5Z" fill="#dcd264"/>
            </g>
            <g id="グループ_12614" data-name="グループ 12614">
              <path id="パス_19645" data-name="パス 19645" d="M138,252.8v13.3l-1,.1v2.9a10.956,10.956,0,0,0-2.9,1.1,7.417,7.417,0,0,0-1.9,1.5,4.725,4.725,0,0,0-1,2,8.524,8.524,0,0,0-.3,2.3,6.25,6.25,0,0,0,.4,2.5,4.31,4.31,0,0,0,1.3,1.7,6.482,6.482,0,0,0,2.2,1.1c.9.3,1.9.6,3.1.9l.1,2.3h-.2a1.376,1.376,0,0,1-1.2-.2,1.609,1.609,0,0,1-.3-1.1l-5.2.7V289c.6.2,1.4.3,2.3.5a19.7,19.7,0,0,0,3.6.1v3.1l1-.1V302c7.2-1,13.1-4.2,17-9.1a25.789,25.789,0,0,0,5.2-16,26.42,26.42,0,0,1-5.2,16c-3.9,4.9-9.8,8.1-17,9.1-16.4,2.3-22.2-8.2-22.1-18.9,0-13,8.4-28.2,21.9-30.3Z" fill="#d2c864"/>
            </g>
            <g id="グループ_12615" data-name="グループ 12615">
              <path id="パス_19646" data-name="パス 19646" d="M133.5,242.5c.1.1,2,2.8,4.5,2.4v7.8a19.946,19.946,0,0,0-6.9,2.2c-2.5-1.1-4.8-3.5-6.4-8.2C128.4,245.9,131.6,242.8,133.5,242.5Z" fill="#d2c864"/>
            </g>
          </g>
          <g id="グループ_12617" data-name="グループ 12617">
            <path id="パス_19647" data-name="パス 19647" d="M138,252.8h-.3c-13.5,2.1-21.9,17.3-21.9,30.3,0,10.6,5.8,21.2,22.1,18.9,7.2-1,13.1-4.2,17-9.1a25.789,25.789,0,0,0,5.2-16c0-10.7-5.6-21.2-15.1-23.7,20.6,5.1,24.4,46.5-7.1,50.9-31.7,4.5-27.6-38.3-6.8-49A18.17,18.17,0,0,1,138,252.8Z" fill="#c8be5a"/>
          </g>
        </g>
      </g>
    </g>
    <g id="グループ_12648" data-name="グループ 12648" transform="translate(799 2247)">
      <path id="パス_19648" data-name="パス 19648" d="M357,344.7c.6,3.9-12.8,9-29.8,11.5s-31.3,1.3-31.8-2.6c-.6-3.9,12.8-9,29.8-11.5C342.1,339.6,356.4,340.8,357,344.7Z" opacity="0.3" fill="url(#radial-gradient)"/>
      <g id="グループ_12647" data-name="グループ 12647">
        <g id="グループ_12636" data-name="グループ 12636">
          <path id="パス_19649" data-name="パス 19649" d="M342.5,342.7l-10-5.5a23.71,23.71,0,0,1,1.2,6.4l10,5.5A35.311,35.311,0,0,0,342.5,342.7Z" fill="#b45064"/>
          <path id="パス_19650" data-name="パス 19650" d="M313.9,343.2l-10-5.5a40.822,40.822,0,0,1,2.2,9.9l10,5.5A38.922,38.922,0,0,0,313.9,343.2Z" fill="#b45064"/>
          <path id="パス_19651" data-name="パス 19651" d="M337.7,297.7H339a1.7,1.7,0,0,1,.7.1c.4,0,.8.1,1.2.1.2,0,.5.1.7.1a5.019,5.019,0,0,0,1.2.2c.2,0,.4.1.6.1l1.8.6c.1,0,.2.1.3.1.5.2,1,.4,1.4.6.3.2.7.3,1,.5l-10-5.5c-.2-.1-.5-.3-.7-.4a.349.349,0,0,1-.2-.1l-1.5-.6c-.1,0-.2-.1-.3-.1l-1.8-.6h-.2c-.1,0-.3-.1-.4-.1a5.159,5.159,0,0,0-1.1-.2c-.2,0-.5-.1-.7-.1a4.484,4.484,0,0,0-1.1-.1,1.7,1.7,0,0,1-.7-.1h-1.9a12.1,12.1,0,0,0-1.9.1c-.4,0-.8.1-1.2.1l10,5.5a4.868,4.868,0,0,1,1.2-.1,12.1,12.1,0,0,1,1.9-.1Z" fill="#9e6369"/>
          <path id="パス_19652" data-name="パス 19652" d="M305.7,335.4l-10-5.5c.1.2,1.8,4.3,7.5,7.4,3.3,1.8,6.7,3.6,10,5.5C307.5,339.7,305.8,335.6,305.7,335.4Z" fill="#b45064"/>
          <path id="パス_19653" data-name="パス 19653" d="M320.2,304.3c.1,0,.1-.1.2-.1.5-.4,1.1-.8,1.6-1.2.1,0,.1-.1.2-.1.7-.5,1.4-.9,2.2-1.4a.1.1,0,0,0,.1-.1c.7-.4,1.5-.8,2.2-1.2.1,0,.2-.1.3-.1.5-.2,1-.5,1.5-.7.1,0,.1,0,.2-.1a8.8,8.8,0,0,1,1.5-.5c.1,0,.2-.1.3-.1a7.491,7.491,0,0,1,1.6-.4.367.367,0,0,0,.3-.1c.5-.1,1.1-.2,1.6-.3l-10-5.5c-.5.1-1.1.2-1.6.3a.367.367,0,0,0-.3.1c-.5.1-1,.3-1.6.4-.1,0-.2.1-.3.1-.5.2-1,.3-1.5.5-.1,0-.1,0-.2.1a10.092,10.092,0,0,0-1.5.7c-.1,0-.1,0-.2.1a.1.1,0,0,0-.1.1c-.8.4-1.5.8-2.2,1.2a.1.1,0,0,0-.1.1,16.444,16.444,0,0,0-2.2,1.4h-.1l-.1.1c-.6.4-1.1.8-1.6,1.2-.1,0-.1.1-.2.1-.5.4-1,.9-1.5,1.3h0l-.6.6,10,5.5a4.349,4.349,0,0,1,.7-.6A6.2,6.2,0,0,1,320.2,304.3Z" fill="#a86a70"/>
          <path id="パス_19654" data-name="パス 19654" d="M309.1,320.5c.2-.4.5-.8.7-1.2h0c.2-.4.4-.8.6-1.3,0-.1.1-.1.1-.2.2-.4.4-.8.6-1.3,0-.1.1-.2.1-.3l.3-.6c.1-.1.1-.2.2-.4a.349.349,0,0,1,.1-.2c.2-.4.4-.9.6-1.3l-10-5.5c-.2.4-.4.9-.6,1.3,0,.1-.1.1-.1.2-.2.5-.4.9-.6,1.4l-.6,1.2c0,.1-.1.1-.1.2-.2.4-.4.8-.6,1.3h0a7.46,7.46,0,0,1-.7,1.2c0,.1-.1.1-.1.2-.2.4-.5.7-.7,1.1-.1.1-.1.2-.2.3a1.756,1.756,0,0,1-.4.5l-.3.3c-.1.2-.3.3-.4.5l-.3.3-.4.4-.3.3-.4.4-.3.3c-.3.3-.6.5-.9.8l10,5.5c.3-.2.6-.5.9-.7a.1.1,0,0,0,.1-.1l.3-.3.4-.4.3-.3c.1-.1.2-.3.4-.4l.1-.1.2-.2c.1-.2.3-.3.4-.5.1-.1.2-.2.2-.3a1.756,1.756,0,0,1,.4-.5c0-.1.1-.1.1-.2a.1.1,0,0,1,.1-.1,6.728,6.728,0,0,0,.7-1.1A.31.31,0,0,0,309.1,320.5Z" fill="#e67d87"/>
          <g id="グループ_12621" data-name="グループ 12621">
            <path id="パス_19655" data-name="パス 19655" d="M300.5,326.4l-10-5.4,3.9-.6,10.1,5.5Z" fill="#fa919b"/>
          </g>
          <path id="パス_19656" data-name="パス 19656" d="M290.5,321v9.7l10,5.4v-9.7Z" fill="#e67d87"/>
          <g id="グループ_12622" data-name="グループ 12622">
            <path id="パス_19657" data-name="パス 19657" d="M334,297.9a4.868,4.868,0,0,1,1.2-.1c12.8-1.2,23,7.8,23,20.5a27.053,27.053,0,0,1-7.3,18,36.353,36.353,0,0,0-1.3,12.1l-5.9.8a23.04,23.04,0,0,0-1.2-6.4,26.14,26.14,0,0,1-8.6,2.7,47.315,47.315,0,0,1-9.7.4,16.833,16.833,0,0,0-2.2,6.4l-5.9.8a38.922,38.922,0,0,0-2.2-9.9c-6.2-3.1-8.1-7.5-8.2-7.7l-5.2.7v-9.7l4-.6c4.4-3.5,6-7.9,8-12.1l-6.6-7.4a8.643,8.643,0,0,1,5.2-2.6,7.958,7.958,0,0,1,7.1,2.4C322.2,302.3,328,298.8,334,297.9Z" fill="#df8c94"/>
          </g>
          <g id="グループ_12623" data-name="グループ 12623">
            <path id="パス_19658" data-name="パス 19658" d="M312.5,313.8l-10.1-5.5-6.6-7.3,10,5.4Z" fill="#b45064"/>
          </g>
          <path id="パス_19659" data-name="パス 19659" d="M337.8,294.8c-.2-.1-.5-.3-.7-.4a.349.349,0,0,1-.2-.1l-1.5-.6c-.1,0-.2-.1-.3-.1l-1.8-.6h-.2c-.1,0-.3-.1-.4-.1a5.159,5.159,0,0,0-1.1-.2c-.2,0-.5-.1-.7-.1a4.484,4.484,0,0,0-1.1-.1,1.7,1.7,0,0,1-.7-.1h-1.9a12.1,12.1,0,0,0-1.9.1c-.4,0-.8.1-1.2.1-.5.1-1.1.2-1.6.3a.367.367,0,0,0-.3.1c-.5.1-1,.3-1.6.4-.1,0-.2.1-.3.1-.5.2-1,.3-1.5.5-.1,0-.1,0-.2.1a10.092,10.092,0,0,0-1.5.7c-.1,0-.1,0-.2.1a.1.1,0,0,0-.1.1c-.8.4-1.5.8-2.2,1.2a.1.1,0,0,0-.1.1,16.444,16.444,0,0,0-2.2,1.4h-.1l-.1.1c-.6.4-1.1.8-1.6,1.2-.1,0-.1.1-.2.1-.5.4-1,.9-1.5,1.3h0l-.6.6,10,5.5a4.349,4.349,0,0,1,.7-.6,17.382,17.382,0,0,0,1.5-1.3c.1,0,.1-.1.2-.1.5-.4,1.1-.8,1.6-1.2.1,0,.1-.1.2-.1.7-.5,1.4-.9,2.2-1.4a.1.1,0,0,0,.1-.1c.7-.4,1.5-.8,2.2-1.2.1,0,.2-.1.3-.1.5-.2,1-.5,1.5-.7.1,0,.1,0,.2-.1a8.8,8.8,0,0,1,1.5-.5c.1,0,.2-.1.3-.1a7.491,7.491,0,0,1,1.6-.4.367.367,0,0,0,.3-.1c.5-.1,1.1-.2,1.6-.3a4.868,4.868,0,0,1,1.2-.1,12.1,12.1,0,0,1,1.9-.1h1.9a1.7,1.7,0,0,1,.7.1c.4,0,.8.1,1.2.1.2,0,.5.1.7.1a5.019,5.019,0,0,0,1.2.2c.2,0,.4.1.6.1l1.8.6c.1,0,.2.1.3.1.5.2,1,.4,1.4.6.3.2.7.3,1,.5Z" fill="#e67d87"/>
          <g id="グループ_12635" data-name="グループ 12635">
            <g id="グループ_12624" data-name="グループ 12624">
              <path id="パス_19660" data-name="パス 19660" d="M318.1,306.2c4.1-3.9,10-7.4,15.9-8.2-5.9.8-11.8,4.4-15.8,8.4A.31.31,0,0,1,318.1,306.2Z" fill="#fa919b"/>
            </g>
            <g id="グループ_12625" data-name="グループ 12625">
              <path id="パス_19661" data-name="パス 19661" d="M304.9,325.7l-.2.2h-.2c4.4-3.5,6-7.9,8-12.1l.3.3a6.116,6.116,0,0,0-.5,1.2C310.5,318.9,308.8,322.6,304.9,325.7Z" fill="#fa919b"/>
            </g>
            <g id="グループ_12626" data-name="グループ 12626">
              <path id="パス_19662" data-name="パス 19662" d="M311,303.8a7.958,7.958,0,0,1,7.1,2.4l.1.1a6.359,6.359,0,0,1,1.4,4.1l-3.8,7-3-3.3-.3-.3-6.6-7.4A8.142,8.142,0,0,1,311,303.8Z" fill="#fa919b"/>
            </g>
            <g id="グループ_12627" data-name="グループ 12627">
              <path id="パス_19663" data-name="パス 19663" d="M312,322.7c.7-.1,1.3.6,1.3,1.5a1.9,1.9,0,0,1-1.3,1.9c-.7.1-1.3-.6-1.3-1.5A1.641,1.641,0,0,1,312,322.7Z" fill="#b45064"/>
            </g>
            <g id="グループ_12634" data-name="グループ 12634">
              <g id="グループ_12628" data-name="グループ 12628">
                <path id="パス_19664" data-name="パス 19664" d="M312.6,340.3c.8.1,16.7,1.9,13.4,3.7a5.463,5.463,0,0,0-1.9,1.8,16.833,16.833,0,0,0-2.2,6.4l-5.9.8a40.821,40.821,0,0,0-2.2-9.9A12.893,12.893,0,0,0,312.6,340.3Z" fill="#ffa0aa"/>
              </g>
              <g id="グループ_12629" data-name="グループ 12629">
                <path id="パス_19665" data-name="パス 19665" d="M352.9,331.3c.3-.5.3-.7,0-.7-1.7.2-11.5,7.9-12.1,8.3a10,10,0,0,1,1.1,2.1,27.609,27.609,0,0,1-8,2.5,56.306,56.306,0,0,1-7.8.5c3.3-1.8-12.6-3.6-13.4-3.7a16.443,16.443,0,0,1-6.1-6.3l-.2-.5-5.8.8v-7.8l4-.6h.2l.2-.2c3.9-3,5.6-6.8,7.3-10.4a6.116,6.116,0,0,0,.5-1.2l3,3.3,3.8-7a5.984,5.984,0,0,0-1.4-4.1c4-3.9,9.9-7.5,15.8-8.4h.3c12.7-1.6,23,7.1,23,19.6A26.219,26.219,0,0,1,352.9,331.3ZM312,326a1.814,1.814,0,0,0,1.3-1.9c0-.9-.6-1.6-1.3-1.5s-1.3,1-1.4,1.9c0,1,.6,1.7,1.4,1.5Z" fill="#ffa0aa"/>
              </g>
              <g id="グループ_12630" data-name="グループ 12630">
                <path id="パス_19666" data-name="パス 19666" d="M352.9,330.6c.3,0,.3.1.1.6a22.818,22.818,0,0,0-2.1,5.1,35.974,35.974,0,0,0-1.3,12l-5.9.8a23.04,23.04,0,0,0-1.2-6.4c-.2-.6-.4-1.1-.6-1.7a6.82,6.82,0,0,0-1.1-2.1C341.3,338.6,351.1,330.9,352.9,330.6Z" fill="#ffa0aa"/>
              </g>
              <g id="グループ_12631" data-name="グループ 12631">
                <path id="パス_19667" data-name="パス 19667" d="M333.9,343.6a27.609,27.609,0,0,0,8-2.5c.2.5.4,1.1.6,1.7a26.14,26.14,0,0,1-8.6,2.7,47.315,47.315,0,0,1-9.7.4,4.689,4.689,0,0,1,1.9-1.8A56.311,56.311,0,0,0,333.9,343.6Z" fill="#fa919b"/>
              </g>
              <g id="グループ_12632" data-name="グループ 12632">
                <path id="パス_19668" data-name="パス 19668" d="M334.2,297.9c13.2-1.7,23.9,7.4,23.9,20.4a26.857,26.857,0,0,1-7.3,18,22.052,22.052,0,0,1,2.1-5,26.219,26.219,0,0,0,4.4-13.8C357.3,305,347,296.3,334.2,297.9Z" fill="#fa919b"/>
              </g>
              <g id="グループ_12633" data-name="グループ 12633">
                <path id="パス_19669" data-name="パス 19669" d="M306.5,334c0,.1,1.6,3.5,6.1,6.3a19.249,19.249,0,0,1,1.3,2.8c-6.2-3.1-8.1-7.5-8.2-7.7l-5.2.7v-1.9l5.8-.8Z" fill="#fa919b"/>
              </g>
            </g>
          </g>
          <path id="パス_19670" data-name="パス 19670" d="M307.7,304.9l.6-.3a3.553,3.553,0,0,0,.9-.4c.1-.1.3-.1.4-.2.4-.1.9-.2,1.4-.3a4.868,4.868,0,0,1,1.2-.1h.3a4.869,4.869,0,0,1,1.2.1h.2c.4.1.7.2,1,.3.1,0,.1,0,.2.1a3.7,3.7,0,0,1,1.1.5l-10-5.5c-.1,0-.2-.1-.3-.1a3.553,3.553,0,0,1-.9-.4c-.1,0-.1,0-.2-.1-.1,0-.3-.1-.4-.1-.2,0-.4-.1-.6-.1h-.2a4.868,4.868,0,0,0-1.2-.1h-.3a4.869,4.869,0,0,0-1.2.1c-.5.1-.9.2-1.3.3a.758.758,0,0,0-.4.2c-.3.1-.5.2-.8.3h-.1l-.6.3-.6.3a.1.1,0,0,0-.1.1c-.1.1-.2.1-.2.2a2.651,2.651,0,0,0-.6.5l-.4.4,10,5.5c.3-.3.7-.6,1-.9.1-.1.2-.1.2-.2A1.611,1.611,0,0,0,307.7,304.9Z" fill="#ffa0aa"/>
        </g>
        <g id="グループ_12646" data-name="グループ 12646">
          <path id="パス_19671" data-name="パス 19671" d="M334.3,279.5a.1.1,0,0,1,.1.1l-1.5-.8c-.1,0-.2-.1-.3-.1-.2-.1-.5-.2-.7-.3h-.1a.9.9,0,0,0-.5-.1c-.1,0-.3-.1-.4-.1h-.2a3.4,3.4,0,0,0-1-.1h-.2a4.1,4.1,0,0,0-1.1.1c-.4.1-.8.1-1.1.2-.1,0-.2.1-.3.1a4.18,4.18,0,0,0-1,.4h-.1c-.1,0-.1.1-.2.1l-.6.3c-.1.1-.2.1-.3.2s-.2.1-.4.2l-.1.1c-.3.2-.6.5-.9.7h-.1l-.1.1-.6.6-.1.1-.1.1c-.2.2-.4.5-.6.7l-.1.1h0a8.794,8.794,0,0,0-.6,1,497612531920.864,497612531920.864,0,0,0-.2.2c-.2.4-.4.8-.6,1.3h0c-.1.2-.1.3-.2.5,0,.1-.1.2-.1.4a4.331,4.331,0,0,1-.1.5c0,.1-.1.2-.1.4s-.1.4-.1.6v1.2a7.879,7.879,0,0,0,3.9,7.1l1.5.8a.1.1,0,0,1-.1-.1,7.085,7.085,0,0,0,4.6.8c4.7-.7,8.4-5.3,8.5-10.3A7.293,7.293,0,0,0,334.3,279.5Zm-3.3-.7h0Zm1.3.1Zm1.2.3h.1c-.1,0-.1-.1-.2-.1A.1.1,0,0,0,333.5,279.2Zm-11.9,11v0Zm.1,1c0,.1.1.2.1.3A.775.775,0,0,0,321.7,291.2Zm.3,1.1c0,.1,0,.1.1.2C322.1,292.4,322.1,292.4,322,292.3Zm1.7,2.6.2.2A.215.215,0,0,1,323.7,294.9Zm-1.2-1.5c0,.1.1.1.1.2C322.6,293.5,322.6,293.5,322.5,293.4Zm.6.8c.1.1.1.2.2.2C323.2,294.3,323.1,294.3,323.1,294.2Zm1.5,1.5Z" fill="#dfb700"/>
          <g id="グループ_12645" data-name="グループ 12645">
            <g id="グループ_12637" data-name="グループ 12637">
              <path id="パス_19672" data-name="パス 19672" d="M329.8,285.7a.52.52,0,0,1,.2-.4h0v.6C329.8,285.9,329.8,285.8,329.8,285.7Z" fill="#ffc800"/>
            </g>
            <g id="グループ_12642" data-name="グループ 12642">
              <g id="グループ_12638" data-name="グループ 12638">
                <path id="パス_19673" data-name="パス 19673" d="M330.3,289.5a.52.52,0,0,1-.2.4.349.349,0,0,1-.2.1v-.8a.349.349,0,0,1,.2.1A.215.215,0,0,1,330.3,289.5Z" fill="#ffd200"/>
              </g>
              <g id="グループ_12639" data-name="グループ 12639">
                <path id="パス_19674" data-name="パス 19674" d="M329.9,279.8c4.2-.6,7.6,2.6,7.5,7.1,0,4.5-3.4,8.6-7.6,9.2v-2.5l.7-.1v-1.4a3.668,3.668,0,0,0,2.1-1.2,2.971,2.971,0,0,0,.7-2.1,3.73,3.73,0,0,0-.2-1.2,2.7,2.7,0,0,0-.7-.8c-.3-.2-.6-.3-.9-.5l-1.2-.3a4.331,4.331,0,0,1-.5-.1v-.6c.1-.1.3-.1.5-.2.2,0,.3,0,.4.1a.52.52,0,0,1,.2.4l2.2-.3v-2c-.1-.1-.3-.1-.4-.2a1.268,1.268,0,0,0-.6-.1c-.2,0-.4-.1-.7-.1h-.9v-1.3l-.7.1Z" fill="#ffd200"/>
              </g>
              <g id="グループ_12640" data-name="グループ 12640">
                <path id="パス_19675" data-name="パス 19675" d="M322.4,289c0-4.5,3.4-8.6,7.6-9.2v2l-.7.1v1.3a5.023,5.023,0,0,0-1.3.5,2.7,2.7,0,0,0-.8.7,4.053,4.053,0,0,0-.5.9,3.4,3.4,0,0,0-.1,1,3.087,3.087,0,0,0,.2,1.1,1.344,1.344,0,0,0,.6.7,3.128,3.128,0,0,0,1,.5,12.745,12.745,0,0,0,1.4.4c.1,0,.2.1.3.1v.8c-.1,0-.2.1-.3.1-.3,0-.4,0-.5-.1a.749.749,0,0,1-.1-.5l-2.3.3V292c.3.1.6.1,1,.2a4.221,4.221,0,0,0,1.6,0v1.4l.7-.1V296C325.7,296.7,322.4,293.5,322.4,289Z" fill="#ffc800"/>
              </g>
              <g id="グループ_12641" data-name="グループ 12641">
                <path id="パス_19676" data-name="パス 19676" d="M330.6,281.7V283h.9a1.483,1.483,0,0,1,.7.1c.2,0,.4.1.6.1a.52.52,0,0,1,.4.2v2l-2.2.3c0-.2-.1-.4-.2-.4-.1-.1-.2-.1-.4-.1a.764.764,0,0,0-.5.2.52.52,0,0,0-.2.4c0,.1.1.2.2.3a.749.749,0,0,0,.5.1l1.2.3a1.933,1.933,0,0,1,.9.5,2.7,2.7,0,0,1,.7.8,2.165,2.165,0,0,1,.2,1.2,2.817,2.817,0,0,1-.7,2.1,4.32,4.32,0,0,1-2.1,1.2v1.4l-.7.1-.7.1v-1.4h-1.6c-.4-.1-.7-.1-1-.2V290l2.3-.3a.46.46,0,0,0,.6.6.367.367,0,0,0,.3-.1c.1,0,.1-.1.2-.1a.52.52,0,0,0,.2-.4.367.367,0,0,0-.1-.3.349.349,0,0,0-.2-.1c-.1,0-.2-.1-.3-.1-.5-.1-1-.3-1.4-.4a3.128,3.128,0,0,1-1-.5c-.3-.2-.4-.5-.6-.7a3.6,3.6,0,0,1-.2-1.1,3.083,3.083,0,0,1,.1-1,2.044,2.044,0,0,1,.5-.9,2.7,2.7,0,0,1,.8-.7,3.921,3.921,0,0,1,1.3-.5v-1.3l.7-.1Z" fill="#ffe600"/>
              </g>
            </g>
            <g id="グループ_12643" data-name="グループ 12643">
              <path id="パス_19677" data-name="パス 19677" d="M329.9,278.8c4.7-.7,8.4,2.9,8.4,7.9s-3.8,9.6-8.5,10.3v-1c4.2-.6,7.6-4.7,7.6-9.2s-3.4-7.7-7.5-7.1v-.9Z" fill="#ffdc00"/>
            </g>
            <g id="グループ_12644" data-name="グループ 12644">
              <path id="パス_19678" data-name="パス 19678" d="M329.9,278.8v1c-4.2.6-7.6,4.7-7.6,9.2s3.4,7.7,7.5,7.1v1c4.7-.7,8.4-5.3,8.5-10.3,0,5-3.8,9.6-8.5,10.3s-8.4-2.9-8.4-7.9C321.5,284.1,325.3,279.5,329.9,278.8Z" fill="#ffd200"/>
            </g>
          </g>
        </g>
      </g>
    </g>
  </g>
</svg>
