<?xml version="1.0" encoding="utf-8"?>
<!-- Generator: Adobe Illustrator 24.3.0, SVG Export Plug-In . SVG Version: 6.00 Build 0)  -->
<svg version="1.1" xmlns="http://www.w3.org/2000/svg" xmlns:xlink="http://www.w3.org/1999/xlink" x="0px" y="0px"
	 viewBox="0 0 532 451" style="enable-background:new 0 0 532 451;" xml:space="preserve">
<style type="text/css">
	.st0{fill:#F7F7F7;}
</style>
<g id="レイヤー_2">
	<rect x="-339.3" y="-286.8" class="st0" width="2682" height="815.1"/>
</g>
<g id="レイヤー_1" focusable="false">
	<g>
		<image style="overflow:visible;" width="532" height="451" xlink:href="5A58C7156BD83568.png" >
		</image>
		<path class="st0" d="M437.3,138.1c0.3,3.8,0.3,7.7,0.3,11.5c0,116.8-88.9,251.3-251.3,251.3c-50,0-96.5-14.5-135.6-39.6
			c7.1,0.8,13.9,1.1,21.3,1.1c41.3,0,79.3-13.9,109.6-37.7c-38.8-0.8-71.4-26.3-82.6-61.3c5.5,0.8,10.9,1.4,16.7,1.4
			c7.9,0,15.9-1.1,23.2-3c-40.5-8.2-70.8-43.8-70.8-86.7v-1.1c11.8,6.6,25.4,10.7,39.9,11.2c-23.8-15.9-39.4-42.9-39.4-73.6
			c0-16.4,4.4-31.4,12-44.6c43.5,53.6,108.8,88.6,182.1,92.4c-1.4-6.6-2.2-13.4-2.2-20.2c0-48.7,39.4-88.3,88.3-88.3
			c25.4,0,48.4,10.7,64.5,27.9c20-3.8,39.1-11.2,56.1-21.3c-6.6,20.5-20.5,37.7-38.8,48.7c17.8-1.9,35-6.8,50.9-13.7
			C469.5,109.9,454.5,125.5,437.3,138.1L437.3,138.1z"/>
	</g>
</g>
<g id="レイヤー_3">
</g>
</svg>
