<?xml version="1.0" standalone="no"?>
<!DOCTYPE svg PUBLIC "-//W3C//DTD SVG 20010904//EN"
 "http://www.w3.org/TR/2001/REC-SVG-20010904/DTD/svg10.dtd">
<svg version="1.0" xmlns="http://www.w3.org/2000/svg"
 width="700.000000pt" height="700.000000pt" viewBox="0 0 700.000000 700.000000"
 preserveAspectRatio="xMidYMid meet">
<metadata>
Created by potrace 1.11, written by Peter Selinger 2001-2013
</metadata>
<g transform="translate(0.000000,700.000000) scale(0.100000,-0.100000)"
fill="#000000" stroke="none">
<path d="M135 6976 c-60 -28 -87 -56 -114 -116 l-21 -45 0 -3305 c0 -2388 3
-3316 11 -3345 15 -54 42 -89 97 -127 l47 -33 3328 -3 3328 -2 50 21 c60 26
112 84 128 142 9 31 11 882 9 3357 -3 3214 -4 3316 -22 3350 -26 49 -55 79
-101 103 l-40 22 -3325 2 -3325 3 -50 -24z"/>
</g>
</svg>
