<?xml version="1.0" encoding="utf-8"?>
<!-- Generator: Adobe Illustrator 25.0.1, SVG Export Plug-In . SVG Version: 6.00 Build 0)  -->
<svg version="1.1" id="レイヤー_1" xmlns="http://www.w3.org/2000/svg" xmlns:xlink="http://www.w3.org/1999/xlink" x="0px"
	 y="0px" viewBox="0 0 18 18" style="enable-background:new 0 0 18 18;" xml:space="preserve">
<style type="text/css">
	.st0{fill:none;}
	.st1{fill:#31344B;}
</style>
<g>
	<rect class="st0" width="18" height="18"/>
</g>
<g>
	<path class="st1" d="M9,1.5C4.9,1.5,1.5,4.9,1.5,9s3.4,7.5,7.5,7.5s7.5-3.4,7.5-7.5S13.1,1.5,9,1.5z M9.6,13.3v0.3
		c0,0.3-0.3,0.6-0.6,0.6l0,0c-0.3,0-0.6-0.3-0.6-0.6v-0.3c-1.2-0.3-1.7-1-2-1.6c-0.2-0.3,0-0.7,0.3-0.9l0.1,0c0.3-0.1,0.7,0,0.8,0.3
		c0.2,0.5,0.7,1,1.6,1c0.7,0,1.5-0.4,1.5-1.2c0-0.7-0.5-1.1-1.7-1.5C7.8,9,6.4,8.5,6.4,6.9c0-1.4,1.1-2.1,2-2.2V4.4
		C8.4,4,8.7,3.8,9,3.8l0,0c0.3,0,0.6,0.3,0.6,0.6v0.3c0.8,0.1,1.3,0.6,1.6,1c0.3,0.3,0.1,0.8-0.3,1l0,0c-0.3,0.1-0.6,0-0.8-0.2
		C10,6.1,9.7,5.8,9,5.8c-0.5,0-1.4,0.3-1.4,1c0,0.8,1,1.1,2,1.4c1.4,0.5,2.3,1.2,2.3,2.6C11.9,13.1,9.7,13.3,9.6,13.3z"/>
</g>
</svg>
