<?xml version="1.0" encoding="utf-8"?>
<!-- Generator: Adobe Illustrator 25.0.0, SVG Export Plug-In . SVG Version: 6.00 Build 0)  -->
<svg version="1.1" id="レイヤー_1" xmlns="http://www.w3.org/2000/svg" xmlns:xlink="http://www.w3.org/1999/xlink" x="0px"
	 y="0px" viewBox="0 0 165.3 144" style="enable-background:new 0 0 165.3 144;" xml:space="preserve">
<style type="text/css">
	.st0{fill:#25263A;}
</style>
<g id="グループ_7948" transform="translate(-2893.678 8776.9)">
	<g id="グループ_7945" transform="translate(-3282 -532)">
		<g id="グループ_7944" transform="translate(6175.678 -8244.9)">
			<g id="無料のセミナーアイコン" transform="translate(0 0)">
				<path id="パス_14522" class="st0" d="M26.3,27.1c7.5,0,13.6-6.1,13.6-13.6C39.8,6.1,33.8,0,26.3,0c-7.5,0-13.6,6.1-13.6,13.6
					c0,0,0,0,0,0C12.7,21.1,18.8,27.1,26.3,27.1C26.3,27.1,26.3,27.1,26.3,27.1z"/>
				<path id="パス_14523" class="st0" d="M72.4,68.5c0-0.3,0-0.5-0.1-0.8L92.5,53c1.3-0.9,1.6-2.7,0.6-4c-0.9-1.3-2.7-1.6-4-0.6
					l0,0L68.9,63.1c-0.8-0.4-1.6-0.5-2.5-0.6h-11l-2.7-15.2c-1.5-7.7-4.6-13.7-11.1-13.7H13.7C6.5,34.2,0.7,40,0,47.3v45.6
					c0,3.3,2.7,5.9,5.9,6c0,0,0,0,0,0h4.2l2.3,38.9c0,3.5,2.8,6.3,6.3,6.3h12.7c3.5,0,6.3-2.8,6.3-6.3l3-77h0.1l1.7,7.5
					c0.6,3.6,3.6,6.2,7.3,6.2h16.6C69.7,74.4,72.3,71.8,72.4,68.5C72.4,68.5,72.4,68.5,72.4,68.5z"/>
				<path id="パス_14524" class="st0" d="M61.4,4.7v49.5h7.8V12.5h88.3v74.4H69.2v-9.4h-7.8v17.2h103.8v-90H61.4z"/>
			</g>
		</g>
		<g id="無料の音符アイコン素材_その3" transform="translate(6161.421 -8237)">
			<path id="パス_14527" class="st0" d="M141.1,34.1c-5.8-7.3-8.3-10.2-8.3-10.2c-0.2-0.2-0.4-0.2-0.4,0.1l-0.7,2.8l-1.3,5.3
				l-3.6,15.3c-1.3-1.2-3.1-1.8-4.9-1.8c-3.3-0.2-6.2,2.3-6.4,5.6c0.3,3.3,3.2,5.7,6.6,5.5c2.6,0.1,5-1.4,6.1-3.7l0,0l0-0.1
				c0.1-0.4,0.2-0.8,0.3-1.2l4.4-18.4c2.9,1.1,5.4,3.1,7.1,5.8c2,3-0.6,7.7-1.8,9.6c-0.3,0.5,0,0.5,0.3,0.3
				c4.7-2.8,6.3-8.9,3.5-13.6C141.6,34.8,141.3,34.4,141.1,34.1z"/>
		</g>
	</g>
</g>
</svg>
