<?xml version="1.0" encoding="utf-8"?>
<!-- Generator: Adobe Illustrator 25.0.1, SVG Export Plug-In . SVG Version: 6.00 Build 0)  -->
<svg version="1.1" id="レイヤー_1" xmlns="http://www.w3.org/2000/svg" xmlns:xlink="http://www.w3.org/1999/xlink" x="0px"
	 y="0px" viewBox="0 0 18 18" style="enable-background:new 0 0 18 18;" xml:space="preserve">
<style type="text/css">
	.st0{fill:none;}
	.st1{fill:#31344B;}
	.st2{fill:#FFFFFF;stroke:#31344B;stroke-miterlimit:10;}
</style>
<g>
	<rect x="-3" y="-3" class="st0" width="24" height="24"/>
</g>
<g>
	<path class="st1" d="M16,0H2C0.9,0,0,0.9,0,2v14c0,1.1,0.9,2,2,2h14c1.1,0,2-0.9,2-2V2C18,0.9,17.1,0,16,0z M3.6,13.2l2-2.7
		c0.2-0.3,0.6-0.3,0.8,0L8.2,13l2.6-3.5c0.2-0.3,0.6-0.3,0.8,0l2.8,3.7c0.2,0.3,0,0.8-0.4,0.8H4C3.6,14,3.3,13.5,3.6,13.2z"/>
</g>
<rect x="-21.1" y="7.9" class="st2" width="8" height="8.7"/>
</svg>
