<?xml version="1.0" encoding="utf-8"?>
<!-- Generator: Adobe Illustrator 25.0.0, SVG Export Plug-In . SVG Version: 6.00 Build 0)  -->
<svg version="1.1" id="レイヤー_1" xmlns="http://www.w3.org/2000/svg" xmlns:xlink="http://www.w3.org/1999/xlink" x="0px"
	 y="0px" viewBox="0 0 142.9 144" style="enable-background:new 0 0 142.9 144;" xml:space="preserve">
<style type="text/css">
	.st0{fill:#8E354A;}
	.st1{font-family:'Nunito-Bold';}
	.st2{font-size:63.9977px;}
</style>
<g id="グループ_12650" transform="translate(-287 -1159)">
	<g id="ふきだしのアイコン" transform="translate(285.031 1159)">
		<path id="パス_18746" class="st0" d="M73.4,0C34,0,2,32,2,71.4c0,14.1,4.1,27.9,12,39.6l-4,18.9c-1.3,6.3,2.7,12.5,9,13.8
			c2.3,0.5,4.6,0.3,6.8-0.6l17.3-7c35.7,16.7,78.3,1.3,95-34.4s1.3-78.3-34.4-95C94.2,2.3,83.9,0,73.4,0z M73.4,131.2
			c-10.4,0-20.7-2.7-29.7-7.9l-22.3,9l5-24C6,82.4,10.6,44.8,36.5,24.4s63.5-15.8,83.9,10.1s15.8,63.5-10.1,83.9
			C99.8,126.7,86.8,131.2,73.4,131.2L73.4,131.2z"/>
	</g>
	<text transform="matrix(1 0 0 1 334.9975 1250.9974)" class="st0 st1 st2">A</text>
</g>
</svg>
