<?xml version="1.0" encoding="utf-8"?>
<!-- Generator: Adobe Illustrator 25.0.1, SVG Export Plug-In . SVG Version: 6.00 Build 0)  -->
<svg version="1.1" id="_x32_" xmlns="http://www.w3.org/2000/svg" xmlns:xlink="http://www.w3.org/1999/xlink" x="0px" y="0px"
	 viewBox="0 0 512 512" style="enable-background:new 0 0 512 512;" xml:space="preserve">
<style type="text/css">
	.st0{fill:#31344B;}
</style>
<g>
	<path class="st0" d="M256,0C115.9,0,2,114,2,254c0,50.8,14.6,99,42.5,140.7l-14.1,67.4c-3.2,15,2.2,30.5,14,40.3
		c7.6,6.3,17,9.7,26.6,9.7c5.2,0,10.5-1,15.6-3l61.6-25c33.6,15.8,70.5,24,107.8,24c140.1,0,254-114,254-254C510,114,396.1,0,256,0z
		 M256,466.6c-38.5,0-74.6-10.3-105.7-28.2L71,470.5l17.9-85.3C60.4,349.1,43.4,303.6,43.4,254c0-117.4,95.2-212.6,212.6-212.6
		S468.6,136.6,468.6,254S373.4,466.6,256,466.6z"/>
</g>
</svg>
