<?xml version="1.0" encoding="utf-8"?>
<!-- Generator: Adobe Illustrator 25.0.0, SVG Export Plug-In . SVG Version: 6.00 Build 0)  -->
<svg version="1.1" id="レイヤー_1" xmlns="http://www.w3.org/2000/svg" xmlns:xlink="http://www.w3.org/1999/xlink" x="0px"
	 y="0px" viewBox="0 0 86.8 144" style="enable-background:new 0 0 86.8 144;" xml:space="preserve">
<style type="text/css">
	.st0{fill:#25263A;}
</style>
<g id="グループ_7949" transform="translate(-3006 8778.388)">
	<g id="グループ_7946" transform="translate(715 -3019.388)">
		<g id="グループ_6166" transform="translate(2291 -5759)">
			<g id="グループ_10" transform="translate(0 0)">
				<g id="クエスチョンマーク" transform="translate(0 0)">
					<g id="グループ_560" transform="translate(0 0)">
						<path id="パス_1130" class="st0" d="M82.8,21.7c-4-6.6-9.8-12-16.7-15.5C58.3,2.1,49.6,0,40.8,0C31-0.2,21.2,2.1,12.3,6.5
							c-4,1.9-7.6,4.7-10.5,8.1c-2.1,1.5-2.5,4.4-1,6.5c0.3,0.4,0.7,0.8,1.1,1.1l10.1,7.3c2.1,1.5,4.9,1.4,7-0.1
							c1.3-1.8,3.1-3.1,5.1-4c5.1-2.5,10.8-3.8,16.6-3.6c5.9-0.1,11.6,1.8,16.3,5.3c1.7,1.3,3.2,2.9,4.3,4.7c0.7,1.2,1.2,2.5,1.2,4
							c0.1,2.7-0.6,5.4-1.9,7.7c-0.9,1.5-2,2.9-3.3,4c-2.4,2.1-5.2,3.8-8.1,5.2c-3.2,1.6-6.6,3-10,4.7c-4.4,2.1-8.2,5.2-11.2,9
							c-1.6,2.1-2.7,4.5-3.5,7c-0.8,2.6-1.1,5.2-1.1,7.9v5.3c0.1,2.9,2.6,5.1,5.5,4.9c0,0,0,0,0,0h13.2c2.9,0.1,5.3-2.1,5.5-4.9
							c0,0,0,0,0,0v-5.3c0-0.7,0.1-1.4,0.3-2.1c0.1-0.5,0.4-0.9,0.7-1.2c0.7-0.7,1.6-1.2,2.4-1.6c2-1,5.1-2.4,8.7-4.1
							c6.5-3,12.4-7.1,17.4-12.2c2.9-3.1,5.2-6.7,6.8-10.7c1.8-4.4,2.6-9,2.6-13.7C86.7,30.7,85.3,25.9,82.8,21.7z"/>
						<path id="パス_1131" class="st0" d="M36.7,107.5c-10.1,0-18.3,8.2-18.3,18.3c0,10.1,8.2,18.3,18.3,18.3s18.3-8.2,18.3-18.3
							c0,0,0,0,0,0C54.9,115.6,46.7,107.5,36.7,107.5z"/>
					</g>
				</g>
			</g>
		</g>
	</g>
</g>
</svg>
