<?xml version="1.0" encoding="utf-8"?>
<!-- Generator: Adobe Illustrator 25.0.0, SVG Export Plug-In . SVG Version: 6.00 Build 0)  -->
<svg version="1.1" id="レイヤー_1" xmlns="http://www.w3.org/2000/svg" xmlns:xlink="http://www.w3.org/1999/xlink" x="0px"
	 y="0px" viewBox="0 0 116.1 144" style="enable-background:new 0 0 116.1 144;" xml:space="preserve">
<style type="text/css">
	.st0{fill:#25263A;}
</style>
<g id="グループ_7952" transform="translate(-3331 8776.89)">
	<g id="グループ_7947" transform="translate(-85 19.11)">
		<path id="パス_1136" class="st0" d="M3525-8755.3h-5.8v35.9h5.8c3.9,0,7.1-3.2,7.1-7.1c0,0,0,0,0,0v-21.7
			C3532.1-8752.1,3528.9-8755.3,3525-8755.3L3525-8755.3z"/>
		<path id="パス_1137" class="st0" d="M3527.1-8688.9c0-8.6-6.9-15.5-15.5-15.5s-15.5,6.9-15.5,15.5v5.5h-5v21.5
			c0,5.5,4.4,9.9,9.9,9.9c0,0,0,0,0,0h21.2c5.5,0,9.9-4.4,9.9-9.9c0,0,0,0,0,0v-21.5h-5V-8688.9L3527.1-8688.9z M3503.7-8688.9
			c0-1.1,0.2-2.1,0.6-3.1c0.6-1.4,1.6-2.6,2.9-3.5c2.2-1.5,5.1-1.8,7.6-0.7c1.4,0.6,2.6,1.6,3.5,2.9c0.9,1.3,1.4,2.9,1.4,4.5v5.5
			h-16L3503.7-8688.9z M3511.6-8664.2c-2.8,0-5.1-2.3-5.1-5.1s2.3-5.1,5.1-5.1s5.1,2.3,5.1,5.1
			C3516.8-8666.5,3514.5-8664.2,3511.6-8664.2L3511.6-8664.2L3511.6-8664.2z"/>
		<path id="パス_1138" class="st0" d="M3521.9-8796h-95.8c-5.6,0-10.2,4.6-10.2,10.2v113.7c0,5.6,4.6,10.2,10.2,10.2h59.2v-27.2
			h4.9l0.2-1.7c0.1-1.2,0.3-2.3,0.6-3.4c-8.6,1.5-17.4,2.2-26.2,2.1c-19,0-32.1-2.5-32.3-4.8c-0.8-9.9,12-15.2,17.2-17
			c2.5-0.9,6.8-4.1,6.8-6v-5c-2-2.8-3.2-6.1-3.6-9.5c-1.7-0.6-2.7-1.6-3.9-5.8c-1.2-4.3,1.7-4.4,1.9-4.4c-0.8-3.6-0.6-7.4,0.5-11
			c-0.6-1.3-1-2.7-1-4.2c4.2,0.6,17.4-7.9,21.4-1c5.7-0.6,9.2,7.5,6.6,16.1c0,0,3.2-0.2,1.9,4.4c-1.2,4.2-2.2,5.2-3.9,5.8
			c-0.4,3.4-1.6,6.7-3.5,9.5v5c0,1.9,4,4.9,6.8,6c4,1.5,12.6,4.9,15.9,11c0.2-0.3,0.5-0.6,0.8-0.8c4-4,9.4-6.2,15-6.2
			c0.9,0,1.7,0.1,2.6,0.2v-50.2h10.8c3.9,0,7.1-3.2,7.1-7.1v-18.6C3532.1-8791.4,3527.6-8796,3521.9-8796z"/>
	</g>
</g>
</svg>
