<svg xmlns="http://www.w3.org/2000/svg" width="33.941" height="33.941" viewBox="0 0 33.941 33.941">
  <g id="round-link" transform="translate(0 16.971) rotate(-45)">
    <path id="パス_19734" data-name="パス 19734" d="M0,0H24V24H0Z" fill="none"/>
    <path id="パス_19735" data-name="パス 19735" d="M17,7H14a1,1,0,0,0,0,2h3a3,3,0,0,1,0,6H14a1,1,0,0,0,0,2h3A5,5,0,0,0,17,7ZM8,12a1,1,0,0,0,1,1h6a1,1,0,0,0,0-2H9A1,1,0,0,0,8,12Zm2,3H7A3,3,0,0,1,7,9h3a1,1,0,0,0,0-2H7A5,5,0,0,0,7,17h3a1,1,0,0,0,0-2Z"/>
  </g>
</svg>
