<?xml version="1.0" encoding="utf-8"?>
<!-- Generator: Adobe Illustrator 25.0.1, SVG Export Plug-In . SVG Version: 6.00 Build 0)  -->
<svg version="1.1" id="レイヤー_1" xmlns="http://www.w3.org/2000/svg" xmlns:xlink="http://www.w3.org/1999/xlink" x="0px"
	 y="0px" viewBox="0 0 33.9 33.9" style="enable-background:new 0 0 33.9 33.9;" xml:space="preserve">
<style type="text/css">
	.st0{fill:none;}
	.st1{fill:#31344B;}
</style>
<g id="round-link" transform="translate(0 16.971) rotate(-45)">
	<path id="パス_19734" class="st0" d="M0,0h24v24H0V0z"/>
	<path id="パス_19735" class="st1" d="M17,7h-3c-0.6,0-1,0.4-1,1s0.4,1,1,1h3c1.7,0,3,1.3,3,3s-1.3,3-3,3h-3c-0.6,0-1,0.4-1,1
		c0,0.6,0.4,1,1,1h3c2.8,0,5-2.2,5-5S19.8,7,17,7z M8,12c0,0.6,0.4,1,1,1h6c0.6,0,1-0.4,1-1c0-0.6-0.4-1-1-1H9C8.4,11,8,11.4,8,12z
		 M10,15H7c-1.7,0-3-1.3-3-3s1.3-3,3-3h3c0.6,0,1-0.4,1-1s-0.4-1-1-1H7c-2.8,0-5,2.2-5,5s2.2,5,5,5h3c0.6,0,1-0.4,1-1
		C11,15.4,10.6,15,10,15z"/>
</g>
</svg>
