<?xml version="1.0" encoding="utf-8"?>
<!-- Generator: Adobe Illustrator 25.0.1, SVG Export Plug-In . SVG Version: 6.00 Build 0)  -->
<svg version="1.1" id="レイヤー_1" xmlns="http://www.w3.org/2000/svg" xmlns:xlink="http://www.w3.org/1999/xlink" x="0px"
	 y="0px" viewBox="0 0 1920 1080" style="enable-background:new 0 0 1920 1080;" xml:space="preserve">
<style type="text/css">
	.st0{fill:#E7E7E7;}
	.st1{fill:#282828;}
	.st2{fill:#25263A;}
	.st3{font-family:'Nunito-Bold';}
	.st4{font-size:140px;}
	.st5{fill:none;stroke:#282828;stroke-width:14;stroke-miterlimit:10;}
</style>
<g>
	<path class="st0" d="M1411.5,735.7c0-80.1,0-159.7,0-239.3c-320,0-639.5,0-959.1,0c0,79.9,0,159.5,0,239.3
		C772.2,735.7,1091.6,735.7,1411.5,735.7z"/>
	<path class="st0" d="M1291.5,788.1c0-4.7,0-9.2,0-13.9c-239.8,0-479.5,0-719.1,0c0,4.9,0,9.3,0,13.9
		C812.3,788.1,1051.7,788.1,1291.5,788.1z"/>
	<path class="st0" d="M841.5,465.7c0-5,0-9.6,0-14.2c-90,0-179.5,0-269.1,0c0,4.9,0,9.5,0,14.2C662.3,465.7,751.8,465.7,841.5,465.7
		z"/>
	<path class="st0" d="M1022.3,465.5c90.1,0,179.8,0,269.2,0c0-5,0-9.6,0-14.1c-89.9,0-179.5,0-269.2,0
		C1022.3,456.2,1022.3,460.7,1022.3,465.5z"/>
	<path class="st0" d="M943.2,369.5c-1.2,1.5-2.3,3-3.5,4.3c-19.8,19.8-39.5,39.6-59.4,59.3c-3.1,3.1-5.1,6.3-5.8,10.6
		c-1.3,8-3,15.8-4.8,24.7c9.2-1.9,17.4-3.3,25.6-5.3c3-0.7,6.3-2.3,8.5-4.4c20.5-20.2,40.8-40.6,61.2-61c1.1-1.1,2.2-2.4,3-3.3
		C959.8,386,951.9,378.2,943.2,369.5z"/>
	<path class="st0" d="M976.2,387.7c5.4-5.7,10.6-11.3,15.8-16.9c3.1-3.3,3.3-6.8,0-10.1c-4.8-4.8-9.6-9.7-14.4-14.4
		c-3.2-3.2-6.8-3.5-10.2-0.3c-5.7,5.3-11.2,10.8-16.6,15.9C959.4,370.5,967.3,378.6,976.2,387.7z"/>
	<path class="st0" d="M961.7,344.9c-0.2-0.4-0.4-0.8-0.5-1.2c-4.8,0-9.6,0.2-14.4-0.1c-3.4-0.2-5.9,0.9-8.3,3.4
		c-7.9,8.1-15.9,16.1-24,24c-2,1.9-4.7,3.4-7.4,4.5c-4.1,1.8-6.7,5.7-6,10.3c0.7,4.4,3.4,7.1,8,7.5c4.9,0.4,8.5-2.1,9.9-6.5
		c0.7-1.9,1.6-4,2.9-5.5c7.2-7.6,14.6-15,22-22.4c0.9-0.9,1.9-2.4,3-2.6C954.3,355.5,956.6,348.5,961.7,344.9z"/>
	<path class="st1" d="M1291.5,788.1c-239.8,0-479.3,0-719.1,0c0-4.6,0-9,0-13.9c239.6,0,479.2,0,719.1,0
		C1291.5,778.9,1291.5,783.4,1291.5,788.1z"/>
	<path class="st1" d="M841.5,465.7c-89.7,0-179.2,0-269.1,0c0-4.7,0-9.3,0-14.2c89.6,0,179.1,0,269.1,0
		C841.5,456,841.5,460.7,841.5,465.7z"/>
	<path class="st1" d="M1022.3,465.5c0-4.8,0-9.3,0-14.1c89.7,0,179.3,0,269.2,0c0,4.5,0,9.1,0,14.1
		C1202,465.5,1112.4,465.5,1022.3,465.5z"/>
	<path class="st1" d="M943.2,369.5c8.7,8.7,16.6,16.6,24.8,24.8c-0.9,1-1.9,2.2-3,3.3c-20.4,20.4-40.7,40.8-61.2,61
		c-2.2,2.1-5.4,3.7-8.5,4.4c-8.1,2-16.4,3.5-25.6,5.3c1.7-8.8,3.5-16.7,4.8-24.7c0.7-4.4,2.7-7.5,5.8-10.6
		c19.9-19.7,39.6-39.5,59.4-59.3C941,372.5,942,370.9,943.2,369.5z M886.2,451.9c9.2,1,12.9-5.8,17.3-10.2c-2.4-2.7-4.5-5.1-6.8-7.6
		C891.8,439.1,884.9,442.9,886.2,451.9z"/>
	<path class="st1" d="M976.2,387.7c-8.9-9.1-16.8-17.1-25.4-25.9c5.3-5.1,10.9-10.6,16.6-15.9c3.4-3.1,6.9-2.8,10.2,0.3
		c4.9,4.8,9.6,9.6,14.4,14.4c3.3,3.3,3.1,6.8,0,10.1C986.8,376.4,981.6,381.9,976.2,387.7z"/>
	<path class="st1" d="M961.7,344.9c-5.1,3.5-7.3,10.5-14.8,11.4c-1.1,0.1-2,1.6-3,2.6c-7.4,7.4-14.8,14.8-22,22.4
		c-1.4,1.5-2.3,3.5-2.9,5.5c-1.5,4.4-5.1,6.9-9.9,6.5c-4.6-0.4-7.3-3.1-8-7.5c-0.8-4.6,1.9-8.6,6-10.3c2.6-1.1,5.3-2.5,7.4-4.5
		c8.2-7.8,16.1-15.8,24-24c2.4-2.5,4.9-3.5,8.3-3.4c4.8,0.3,9.6,0.1,14.4,0.1C961.3,344.1,961.5,344.5,961.7,344.9z"/>
	<path class="st0" d="M886.2,451.9c-1.4-9,5.6-12.8,10.5-17.9c2.3,2.5,4.4,4.9,6.8,7.6C899.1,446.1,895.4,452.9,886.2,451.9z"/>
	<text transform="matrix(1.24 0 0 1 591.9422 675.8828)" class="st2 st3 st4">Soundar</text>
	<path class="st5" d="M1403,736H460c-4.4,0-8-3.6-8-8V504c0-4.4,3.6-8,8-8h943c4.4,0,8,3.6,8,8v224C1411,732.4,1407.4,736,1403,736z
		"/>
	<g>
		<path class="st2" d="M728.1,344v83.6c-5.9-2.7-13.3-3.8-21.2-2.7c-19.7,2.6-35.6,17.4-35.6,32.9c0.1,15.5,16.1,26,35.8,23.4
			c19.7-2.6,35.6-17.4,35.6-32.9V344H728.1z"/>
	</g>
	<g>
		<path class="st2" d="M1178,344v83.6c-5.9-2.7-13.3-3.8-21.2-2.7c-19.7,2.6-35.6,17.4-35.6,32.9c0.1,15.5,16.1,26,35.8,23.4
			c19.7-2.6,35.6-17.4,35.6-32.9V344H1178z"/>
	</g>
</g>
</svg>
