<?xml version="1.0" encoding="utf-8"?>
<!-- Generator: Adobe Illustrator 25.0.0, SVG Export Plug-In . SVG Version: 6.00 Build 0)  -->
<svg version="1.1" id="レイヤー_1" xmlns="http://www.w3.org/2000/svg" xmlns:xlink="http://www.w3.org/1999/xlink" x="0px"
	 y="0px" viewBox="0 0 152.2 144" style="enable-background:new 0 0 152.2 144;" xml:space="preserve">
<style type="text/css">
	.st0{fill:#25263A;}
</style>
<g id="グループ_7951" transform="translate(-3229 8778.485)">
	<path id="パス_1133" class="st0" d="M3379.1-8736.6l-4.7-4.6c-2.8-2.8-7.4-2.8-10.2,0c0,0,0,0,0,0l-4.3,4.4l14.9,14.9l4.3-4.3
		C3381.9-8729.2,3381.9-8733.7,3379.1-8736.6z"/>
	<path id="パス_1134" class="st0" d="M3319.1-8696.1v14.9h14.9l36.7-36.7l-14.9-14.9L3319.1-8696.1z"/>
	<rect id="長方形_35" x="3259.3" y="-8748.2" class="st0" width="59.4" height="9.9"/>
	<rect id="長方形_36" x="3259.3" y="-8711.9" class="st0" width="59.4" height="9.9"/>
	<rect id="長方形_37" x="3259.3" y="-8675.6" class="st0" width="36.3" height="9.9"/>
	<path id="パス_1135" class="st0" d="M3339.1-8647.8c0,1.3-1,2.3-2.3,2.3h-94.5c-1.3,0-2.3-1-2.3-2.3v-117.4c0-1.3,1-2.3,2.3-2.3
		h94.5c1.3,0,2.3,1,2.3,2.3v33.2l11-11v-22.2c0-7.3-6-13.3-13.3-13.3h-94.5c-7.3,0-13.3,6-13.3,13.3v117.4c0,7.3,6,13.3,13.3,13.3
		h94.5c7.3,0,13.3-6,13.3-13.3l0,0v-36.8l-11,11V-8647.8z"/>
</g>
</svg>
