<?xml version="1.0" encoding="utf-8"?>
<!-- Generator: Adobe Illustrator 25.0.0, SVG Export Plug-In . SVG Version: 6.00 Build 0)  -->
<svg version="1.1" id="レイヤー_1" xmlns="http://www.w3.org/2000/svg" xmlns:xlink="http://www.w3.org/1999/xlink" x="0px"
	 y="0px" viewBox="0 0 105.6 144" style="enable-background:new 0 0 105.6 144;" xml:space="preserve">
<style type="text/css">
	.st0{fill:#25263A;}
</style>
<g id="グループ_7950" transform="translate(-3115 8778.886)">
	<g id="初心者マークのアイコン素材" transform="translate(3046.765 -8778.89)">
		<path id="パス_1132" class="st0" d="M121,33.8L89.8,3.6c-5.1-4.9-13.1-4.8-18,0.3c-2.3,2.4-3.6,5.6-3.6,8.9v77.1
			c0,5.2,2.1,10.1,5.8,13.7l38.1,36.9c4.9,4.8,12.8,4.8,17.7,0l38.1-36.9c3.7-3.6,5.8-8.6,5.8-13.7V12.7c0-7-5.7-12.7-12.7-12.7
			c-3.3,0-6.5,1.3-8.9,3.6L121,33.8z M155.9,87.6c0,1.7-0.7,3.4-1.9,4.6L121,124V58.8l6.2-6l23.2-22.4c1.3-1.2,3.3-1.2,4.5,0.1
			c0.6,0.6,0.9,1.4,0.9,2.2L155.9,87.6z"/>
	</g>
</g>
</svg>
